RecursiveMono-CasualBItalic.ufo
<glyph name="quotesingle" format="1">
  <advance width="250.0"/>
  <unicode hex="0027"/>
  <outline>
    <contour>
      <point x="346.192384632026" y="439.9055887140532" type="curve"/>
      <point x="357.1451789890526" y="669.7574606619642" type="line" smooth="yes"/>
      <point x="360.09797334607924" y="729.1888225718936"/>
      <point x="335.857604382433" y="754.0"/>
      <point x="276.4240720981139" y="754.0" type="curve" smooth="yes"/>
      <point x="237.94282621085796" y="754.0"/>
      <point x="198.41493335876004" y="752.2381985892566"/>
      <point x="158.5765408989821" y="750.0" type="curve"/>
      <point x="166.81473948823873" y="726.5236028214867"/>
      <point x="168.76753384526535" y="714.2832338578405"/>
      <point x="171.24393102377863" y="658.4742268041238" type="curve" smooth="yes"/>
      <point x="181.24393102377863" y="478.38415626695604" type="line" smooth="yes"/>
      <point x="182.7203282022919" y="449.3819858925665"/>
      <point x="198.6259169163451" y="438.4763971785133"/>
      <point x="238.67529293370808" y="438.4763971785133" type="curve" smooth="yes"/>
      <point x="275.8336508602065" y="438.4763971785133"/>
      <point x="310.3422112379851" y="438.95279435702656"/>
    </contour>
  </outline>
</glyph>
<glyph name="plus" format="1">
  <advance width="600"/>
  <unicode hex="002B"/>
  <outline>
    <contour>
      <point x="49.0" y="375.0" type="line"/>
      <point x="49.0" y="369.0"/>
      <point x="49.0" y="363.0"/>
      <point x="49.0" y="356.0" type="curve" smooth="yes"/>
      <point x="49.0" y="297.0"/>
      <point x="57.0" y="263.0"/>
      <point x="75.0" y="245.0" type="curve" smooth="yes"/>
      <point x="90.0" y="230.0"/>
      <point x="110.0" y="225.0"/>
      <point x="156.0" y="225.0" type="curve"/>
      <point x="554.0" y="225.0" type="line"/>
      <point x="558.0" y="246.0"/>
      <point x="561.0" y="269.0"/>
      <point x="561.0" y="288.0" type="curve" smooth="yes"/>
      <point x="561.0" y="354.0"/>
      <point x="544.0" y="375.0"/>
      <point x="488.0" y="375.0" type="curve"/>
    </contour>
    <contour>
      <point x="376.0" y="56.0" type="curve"/>
      <point x="376.0" y="433.0" type="line" smooth="yes"/>
      <point x="376" y="485"/>
      <point x="369" y="501"/>
      <point x="349.0" y="521.0" type="curve" smooth="yes"/>
      <point x="327" y="543"/>
      <point x="287.0" y="550.0"/>
      <point x="255" y="550.0" type="curve" smooth="yes"/>
      <point x="241.0" y="550.0"/>
      <point x="227" y="549.0"/>
      <point x="213.0" y="546.0" type="curve"/>
      <point x="222.0" y="510.0"/>
      <point x="226" y="479"/>
      <point x="226.0" y="440.0" type="curve" smooth="yes"/>
      <point x="226.0" y="112.0" type="line" smooth="yes"/>
      <point x="226.0" y="58.0"/>
      <point x="261.0" y="50.0"/>
      <point x="318.0" y="50.0" type="curve" smooth="yes"/>
      <point x="341.0" y="50.0"/>
      <point x="361.0" y="52.0"/>
    </contour>
  </outline>
</glyph>
<glyph name="comma" format="1">
  <advance width="350"/>
  <unicode hex="002C"/>
  <outline>
    <contour>
      <point x="153.0" y="-200.0" type="curve" smooth="yes"/>
      <point x="175.0" y="-200.0"/>
      <point x="187.0" y="-196.0"/>
      <point x="198.0" y="-185.0" type="curve"/>
      <point x="256.0" y="-127.0"/>
      <point x="308.0" y="0.0"/>
      <point x="308.0" y="82.0" type="curve"/>
      <point x="308.0" y="138.0"/>
      <point x="273.0" y="160.0"/>
      <point x="184.0" y="160.0" type="curve" smooth="yes"/>
      <point x="159.0" y="160.0"/>
      <point x="142.0" y="158.0"/>
      <point x="113.0" y="153.0" type="curve"/>
      <point x="113.0" y="22.0"/>
      <point x="89.0" y="-85.0"/>
      <point x="42.0" y="-165.0" type="curve"/>
      <point x="73.0" y="-190.0"/>
      <point x="105.0" y="-200.0"/>
    </contour>
  </outline>
</glyph>
<glyph name="hyphen" format="1">
  <advance width="600"/>
  <unicode hex="002D"/>
  <outline>
    <contour>
      <point x="100" y="374" type="line"/>
      <point x="100.0" y="368"/>
      <point x="100.0" y="362"/>
      <point x="100" y="355" type="curve" smooth="yes"/>
      <point x="100.0" y="295.5357142857143"/>
      <point x="107.99927606177604" y="262.0007239382239"/>
      <point x="126" y="244" type="curve" smooth="yes"/>
      <point x="141" y="229"/>
      <point x="161" y="224"/>
      <point x="207" y="224" type="curve"/>
      <point x="505" y="224" type="line"/>
      <point x="509.0" y="245"/>
      <point x="512.0" y="268"/>
      <point x="512.0" y="287" type="curve" smooth="yes"/>
      <point x="512.0" y="353.0"/>
      <point x="495.0" y="374.0"/>
      <point x="439" y="374" type="curve"/>
    </contour>
  </outline>
</glyph>
<glyph name="two" format="1">
  <advance width="600"/>
  <unicode hex="0032"/>
  <outline>
    <contour>
      <point x="337" y="607" type="curve"/>
      <point x="376.0" y="574.0"/>
      <point x="382.0" y="561.0"/>
      <point x="382" y="516" type="curve" smooth="yes"/>
      <point x="382.0" y="457.0"/>
      <point x="353.0" y="426.0"/>
      <point x="258" y="363" type="curve" smooth="yes"/>
      <point x="92.0" y="253"/>
      <point x="50" y="192"/>
      <point x="50" y="121" type="curve" smooth="yes"/>
      <point x="50" y="80"/>
      <point x="83" y="64"/>
      <point x="165" y="64" type="curve"/>
      <point x="165" y="141"/>
      <point x="186" y="171"/>
      <point x="332" y="257" type="curve" smooth="yes"/>
      <point x="478" y="344"/>
      <point x="535.0" y="406.0"/>
      <point x="535" y="514" type="curve" smooth="yes"/>
      <point x="535" y="517" type="line" smooth="yes"/>
      <point x="535.0" y="622"/>
      <point x="474.0" y="663.0"/>
    </contour>
    <contour>
      <point x="545" y="0" type="line"/>
      <point x="549" y="19"/>
      <point x="552" y="42"/>
      <point x="552" y="63" type="curve" smooth="yes"/>
      <point x="552" y="129"/>
      <point x="535" y="150"/>
      <point x="479" y="150" type="curve" smooth="yes"/>
      <point x="200" y="150" type="line" smooth="yes"/>
      <point x="133" y="150"/>
      <point x="90" y="142"/>
      <point x="50" y="121" type="curve"/>
      <point x="50" y="119"/>
      <point x="50" y="118"/>
      <point x="50" y="116" type="curve" smooth="yes"/>
      <point x="50" y="69"/>
      <point x="88" y="0"/>
      <point x="122" y="0" type="curve" smooth="yes"/>
    </contour>
    <contour>
      <point x="305" y="720" type="curve" smooth="yes"/>
      <point x="220" y="720"/>
      <point x="148" y="700"/>
      <point x="115" y="667" type="curve" smooth="yes"/>
      <point x="93" y="645"/>
      <point x="81" y="610"/>
      <point x="81" y="569" type="curve" smooth="yes"/>
      <point x="81" y="542"/>
      <point x="86" y="519"/>
      <point x="94" y="504" type="curve"/>
      <point x="98" y="504" type="line"/>
      <point x="161.0" y="549.0"/>
      <point x="228.0" y="570.0"/>
      <point x="312" y="570" type="curve" smooth="yes"/>
      <point x="387.9" y="570.0"/>
      <point x="450.0" y="540.0"/>
      <point x="450" y="496" type="curve" smooth="yes"/>
      <point x="450.0" y="475.0"/>
      <point x="446.8709996984695" y="457.6498563244173"/>
      <point x="440" y="439" type="curve"/>
      <point x="500.0" y="439.0"/>
      <point x="535.0" y="467.0"/>
      <point x="535" y="517" type="curve" smooth="yes"/>
      <point x="535" y="646"/>
      <point x="441.0" y="720.0"/>
    </contour>
  </outline>
</glyph>
<glyph name="six" format="1">
  <advance width="600"/>
  <unicode hex="0036"/>
  <outline>
    <contour>
      <point x="144" y="176" type="curve"/>
      <point x="108.0" y="96.0"/>
      <point x="208.994708994709" y="-20.0"/>
      <point x="310" y="-20" type="curve"/>
      <point x="452.0" y="-20.0"/>
      <point x="550" y="69.04761904761904"/>
      <point x="550" y="200" type="curve" smooth="yes"/>
      <point x="550" y="205" type="line" smooth="yes"/>
      <point x="550.0" y="334.3129770992366"/>
      <point x="432.99114633778186" y="378.161388173563"/>
      <point x="376" y="326" type="curve"/>
      <point x="393.0" y="299.0"/>
      <point x="400" y="257.0"/>
      <point x="400" y="213" type="curve" smooth="yes"/>
      <point x="400" y="210" type="line" smooth="yes"/>
      <point x="400.0" y="164.0"/>
      <point x="365.0" y="130.0"/>
      <point x="296" y="130" type="curve" smooth="yes"/>
      <point x="236.06857142857143" y="130.0"/>
      <point x="181.0" y="147.0"/>
    </contour>
    <contour>
      <point x="185" y="502" type="curve"/>
      <point x="236" y="547.0"/>
      <point x="298.0" y="570.0"/>
      <point x="366" y="570.0" type="curve" smooth="yes"/>
      <point x="423.0" y="570.0"/>
      <point x="461.0" y="560.0"/>
      <point x="511" y="536" type="curve"/>
      <point x="515" y="536" type="line"/>
      <point x="518" y="551"/>
      <point x="520" y="567"/>
      <point x="520" y="590" type="curve" smooth="yes"/>
      <point x="520.0" y="648.3883495145631"/>
      <point x="502.1219309750986" y="672.8780690249014"/>
      <point x="488" y="687" type="curve" smooth="yes"/>
      <point x="473.66089969163903" y="701.339100308361"/>
      <point x="442.7153284671533" y="720.0"/>
      <point x="356" y="720" type="curve" smooth="yes"/>
      <point x="220.02409638554218" y="720.0"/>
      <point x="122.6070518293408" y="623.7668827201575"/>
    </contour>
    <contour>
      <point x="50" y="304" type="curve" smooth="yes"/>
      <point x="50" y="297" type="line" smooth="yes"/>
      <point x="50" y="85.0"/>
      <point x="160.0" y="-20.0"/>
      <point x="310" y="-20" type="curve" smooth="yes"/>
      <point x="317.0" y="-20.0"/>
      <point x="341.0" y="-15.42857142857143"/>
      <point x="341" y="44" type="curve"/>
      <point x="235.0" y="73.0"/>
      <point x="204.0" y="153.0"/>
      <point x="204" y="289" type="curve" smooth="yes"/>
      <point x="204" y="296" type="line" smooth="yes"/>
      <point x="204" y="506.0"/>
      <point x="240.0" y="583.0"/>
      <point x="400" y="659" type="curve"/>
      <point x="400.0" y="695.0"/>
      <point x="384.734693877551" y="720.0"/>
      <point x="356" y="720" type="curve" smooth="yes"/>
      <point x="199.44186046511626" y="720.0"/>
      <point x="50" y="611.0"/>
    </contour>
    <contour>
      <point x="349" y="404.0" type="curve" smooth="yes"/>
      <point x="288.0" y="404.0"/>
      <point x="219.0" y="383.0"/>
      <point x="191" y="355" type="curve" smooth="yes"/>
      <point x="168.0" y="332.0"/>
      <point x="164.0" y="310.0"/>
      <point x="160" y="245" type="curve"/>
      <point x="216" y="267"/>
      <point x="271" y="280"/>
      <point x="320" y="280" type="curve" smooth="yes"/>
      <point x="419.0" y="280.0"/>
      <point x="470.0" y="234.0"/>
      <point x="470.0" y="177" type="curve" smooth="yes"/>
      <point x="470.0" y="160.0"/>
      <point x="469.0" y="146.0"/>
      <point x="464" y="132" type="curve"/>
      <point x="505.0" y="132.0"/>
      <point x="550.0" y="158.70967741935485"/>
      <point x="550" y="204" type="curve" smooth="yes"/>
      <point x="550.0" y="331.6190476190476"/>
      <point x="460.0" y="404.0"/>
    </contour>
  </outline>
</glyph>
<glyph name="nine" format="1">
  <advance width="600"/>
  <unicode hex="0039"/>
  <outline>
    <contour>
      <point x="456.0" y="524.0" type="curve"/>
      <point x="492.0" y="604.0"/>
      <point x="391.0" y="720.0"/>
      <point x="290.0" y="720.0" type="curve"/>
      <point x="148.0" y="720.0"/>
      <point x="50.0" y="614.8181818181818"/>
      <point x="50.0" y="460.0" type="curve" smooth="yes"/>
      <point x="50.0" y="455.0" type="line" smooth="yes"/>
      <point x="50.0" y="326.0"/>
      <point x="167.0" y="282.0"/>
      <point x="224.0" y="334.0" type="curve"/>
      <point x="207.0" y="361.0"/>
      <point x="200.0" y="403.0"/>
      <point x="200.0" y="447.0" type="curve" smooth="yes"/>
      <point x="200.0" y="450.0" type="line" smooth="yes"/>
      <point x="200.0" y="519.0"/>
      <point x="235.0" y="570.0"/>
      <point x="304.0" y="570.0" type="curve" smooth="yes"/>
      <point x="364.0" y="570.0"/>
      <point x="419.0" y="553.0"/>
    </contour>
    <contour>
      <point x="429.0" y="198.0" type="curve"/>
      <point x="375.7105280610404" y="150.97987770091805"/>
      <point x="307.2596685082873" y="130.0"/>
      <point x="234.0" y="130.0" type="curve" smooth="yes"/>
      <point x="177.0" y="130.0"/>
      <point x="139.0" y="140.0"/>
      <point x="89.0" y="164.0" type="curve"/>
      <point x="85.0" y="164.0" type="line"/>
      <point x="82.0" y="149.0"/>
      <point x="80.0" y="133.0"/>
      <point x="80.0" y="110.0" type="curve" smooth="yes"/>
      <point x="80.0" y="52.0"/>
      <point x="98.0" y="27.0"/>
      <point x="112.0" y="13.0" type="curve" smooth="yes"/>
      <point x="126.2820679874255" y="-1.282067987425508"/>
      <point x="158.57534246575344" y="-20.0"/>
      <point x="248.0" y="-20.0" type="curve" smooth="yes"/>
      <point x="391.953216374269" y="-20.0"/>
      <point x="491.761282714214" y="74.50199207848208"/>
    </contour>
    <contour>
      <point x="550.0" y="396.0" type="curve" smooth="yes"/>
      <point x="550.0" y="403.0" type="line" smooth="yes"/>
      <point x="550.0" y="615.0"/>
      <point x="440.0" y="720.0"/>
      <point x="290.0" y="720.0" type="curve" smooth="yes"/>
      <point x="283.0" y="720.0"/>
      <point x="259.0" y="715.0"/>
      <point x="259.0" y="656.0" type="curve"/>
      <point x="365.0" y="627.0"/>
      <point x="396.0" y="547.0"/>
      <point x="396.0" y="411.0" type="curve" smooth="yes"/>
      <point x="396.0" y="404.0" type="line" smooth="yes"/>
      <point x="396.0" y="194.00000000000003"/>
      <point x="361.7927282349551" y="116.23891677428323"/>
      <point x="204.0" y="41.0" type="curve"/>
      <point x="204.0" y="5.0"/>
      <point x="219.0" y="-20.0"/>
      <point x="248.0" y="-20.0" type="curve" smooth="yes"/>
      <point x="408.0" y="-20.0"/>
      <point x="550.0" y="72.0"/>
    </contour>
    <contour>
      <point x="251.0" y="231.0" type="curve" smooth="yes"/>
      <point x="312.0" y="231.0"/>
      <point x="381.0" y="252.0"/>
      <point x="409.0" y="280.0" type="curve" smooth="yes"/>
      <point x="432.0" y="303.0"/>
      <point x="436.0" y="325.0"/>
      <point x="440.0" y="390.0" type="curve"/>
      <point x="384.0" y="368.0"/>
      <point x="329.0" y="355.0"/>
      <point x="280.0" y="355.0" type="curve" smooth="yes"/>
      <point x="181.0" y="355.0"/>
      <point x="130.0" y="412.1650485436893"/>
      <point x="130.0" y="483.0" type="curve" smooth="yes"/>
      <point x="130.0" y="500.0"/>
      <point x="131.0" y="514.0"/>
      <point x="136.0" y="528.0" type="curve"/>
      <point x="95.0" y="528.0"/>
      <point x="50.0" y="501.0"/>
      <point x="50.0" y="456.0" type="curve" smooth="yes"/>
      <point x="50.0" y="312.0"/>
      <point x="140.0" y="231.0"/>
    </contour>
  </outline>
</glyph>
<glyph name="equal" format="1">
  <advance width="600"/>
  <unicode hex="003D"/>
  <outline>
    <contour>
      <point x="50" y="500" type="line"/>
      <point x="50.0" y="494"/>
      <point x="50.0" y="488"/>
      <point x="50" y="481" type="curve" smooth="yes"/>
      <point x="50" y="422"/>
      <point x="58" y="388"/>
      <point x="76" y="370" type="curve" smooth="yes"/>
      <point x="91" y="355"/>
      <point x="111.0" y="350"/>
      <point x="157" y="350" type="curve"/>
      <point x="555" y="350" type="line"/>
      <point x="559.0" y="371"/>
      <point x="562.0" y="394"/>
      <point x="562.0" y="413" type="curve" smooth="yes"/>
      <point x="562.0" y="479.0"/>
      <point x="545.0" y="500.0"/>
      <point x="489" y="500" type="curve"/>
    </contour>
    <contour>
      <point x="562.0" y="100.0" type="line"/>
      <point x="562.0" y="106.0"/>
      <point x="562.0" y="112.0"/>
      <point x="562.0" y="119.0" type="curve" smooth="yes"/>
      <point x="562.0" y="178.0"/>
      <point x="554.0" y="212.0"/>
      <point x="536.0" y="230.0" type="curve" smooth="yes"/>
      <point x="521.0" y="245.0"/>
      <point x="501.0" y="250.0"/>
      <point x="455.0" y="250.0" type="curve"/>
      <point x="57.0" y="250.0" type="line"/>
      <point x="53.0" y="229.0"/>
      <point x="50.0" y="206.0"/>
      <point x="50.0" y="187.0" type="curve" smooth="yes"/>
      <point x="50.0" y="121.0"/>
      <point x="67.0" y="100.0"/>
      <point x="123.0" y="100.0" type="curve"/>
    </contour>
  </outline>
</glyph>
<glyph name="at" format="1">
  <advance width="600.0"/>
  <unicode hex="0040"/>
  <outline>
    <contour>
      <point x="442.71676614215954" y="497.86055344546935" type="curve" smooth="yes"/>
      <point x="423.38415626695604" y="525.5729788388497"/>
      <point x="383.57731958762884" y="556.3798155181769"/>
      <point x="317.0086814975583" y="556.3798155181769" type="curve" smooth="yes"/>
      <point x="287.1524688008682" y="556.3798155181769"/>
      <point x="263.7704829083017" y="546.0472056429734"/>
      <point x="242.91209983722192" y="524.4270211611503" type="curve" smooth="yes"/>
      <point x="225.00651112316876" y="506.52143244709714"/>
      <point x="232.90992946283234" y="477.46988605534455"/>
      <point x="332.1844818231145" y="431.99565925122084" type="curve"/>
      <point x="367.0428648941942" y="420.1437873033098"/>
      <point x="373.3815308140654" y="418.0021703743896"/>
      <point x="376.95496473141617" y="418.0021703743896" type="curve" smooth="yes"/>
      <point x="416.9322533136966" y="418.0021703743896"/>
      <point x="440.5176536193675" y="412.1049584125452"/>
      <point x="460.71459576776994" y="390.1459576776994" type="curve"/>
      <point x="459.6253450475095" y="452.5320835735026"/>
      <point x="451.33695062398266" y="483.90775908844273"/>
    </contour>
    <contour>
      <point x="466.8133478024959" y="183.76614215952253" type="curve"/>
      <point x="437.1459576776994" y="141.38415626695604"/>
      <point x="401.24036896364623" y="121.62018448182312"/>
      <point x="370.7639717851329" y="121.62018448182312" type="curve" smooth="yes"/>
      <point x="342.47856755290286" y="121.62018448182312"/>
      <point x="332.0021703743896" y="137.07030404836988"/>
      <point x="332.0021703743896" y="213.24036896364623" type="curve" smooth="yes"/>
      <point x="332.0021703743896" y="192.81551817688552" type="line" smooth="yes"/>
      <point x="332.0021703743896" y="341.65783293564084"/>
      <point x="338.79767718764555" y="400.784433128956"/>
      <point x="386.6223548562127" y="477.0515463917526" type="curve"/>
      <point x="289.72544763971786" y="538.5708084644601"/>
      <point x="255.3906673901248" y="536.9055887140531"/>
      <point x="242.91209983722192" y="524.4270211611503" type="curve" smooth="yes"/>
      <point x="192.75458091469181" y="474.26950223862025"/>
      <point x="170.00651112316876" y="380.9412944404288"/>
      <point x="170.00651112316876" y="227.61801410743354" type="curve" smooth="yes"/>
      <point x="170.00651112316876" y="159.19750406945198" type="line" smooth="yes"/>
      <point x="170.00651112316876" y="39.13467573306757"/>
      <point x="221.53011394465545" y="-21.233857840477484"/>
      <point x="309.2447097124254" y="-21.233857840477484" type="curve" smooth="yes"/>
      <point x="370.38632664134565" y="-21.233857840477484"/>
      <point x="424.71676614215954" y="-0.4720564297341241"/>
      <point x="472.2875746066196" y="77.62018448182312" type="curve" smooth="yes"/>
      <point x="485.95496473141617" y="96.52577319587628"/>
      <point x="489.1459576776994" y="126.95713510580575"/>
    </contour>
    <contour>
      <point x="575.5686380900705" y="-14.94845360824742" type="line"/>
      <point x="566.5214324470971" y="18.24253933803581"/>
      <point x="565.2832338578405" y="36.24470971242539"/>
      <point x="565.2832338578405" y="80.1953336950624" type="curve"/>
      <point x="565.2832338578405" y="500.0021703743896" type="line" smooth="yes"/>
      <point x="565.2832338578405" y="714.5664677156809"/>
      <point x="436.02335717456714" y="751.6201844818231"/>
      <point x="335.1437873033098" y="751.6201844818231" type="curve" smooth="yes"/>
      <point x="313.2397488566778" y="751.6201844818231"/>
      <point x="300.85838307107974" y="706.5257731958762"/>
      <point x="301.6201844818231" y="689.5729788388497" type="curve"/>
      <point x="420.5686380900705" y="677.8605534454693"/>
      <point x="404.81117742810636" y="624.2021860368852"/>
      <point x="404.81117742810636" y="539.0043407487792" type="curve" smooth="yes"/>
      <point x="404.81117742810636" y="73.19750406945198" type="line" smooth="yes"/>
      <point x="404.81117742810636" y="35.766142159522516"/>
      <point x="501.36570808464455" y="-14.94845360824742"/>
      <point x="549.9034183396636" y="-14.94845360824742" type="curve" smooth="yes"/>
    </contour>
    <contour>
      <point x="25.622354856212695" y="194.1931633206728" type="curve" smooth="yes"/>
      <point x="25.622354856212695" y="214.71242539338036" type="line" smooth="yes"/>
      <point x="25.622354856212695" y="47.90124796527401"/>
      <point x="52.766142159522516" y="-68.95279435702659"/>
      <point x="105.24253933803581" y="-121.42919153553989" type="curve" smooth="yes"/>
      <point x="159.40606064932263" y="-175.59271284682671"/>
      <point x="241.13944655453065" y="-140.049376017363"/>
      <point x="234.19316332067282" y="-107.90558871405318" type="curve"/>
      <point x="127.76614215952252" y="-12.096581660336412"/>
      <point x="114.95713510580575" y="1.1904348500116217"/>
      <point x="114.95713510580575" y="187.28757460661964" type="curve" smooth="yes"/>
      <point x="114.95713510580575" y="213.28540423223006" type="line" smooth="yes"/>
      <point x="114.95713510580575" y="487.6630493760174"/>
      <point x="207.4785675529029" y="666.8562126966901"/>
      <point x="323.0515463917526" y="666.8562126966901" type="curve" smooth="yes"/>
      <point x="369.77330439500815" y="666.8562126966901"/>
      <point x="381.90992946283234" y="659.6630493760174"/>
      <point x="414.71676614215954" y="637.4226804123712" type="curve"/>
      <point x="432.76614215952253" y="651.8990775908844"/>
      <point x="438.38632664134565" y="659.6630493760174"/>
      <point x="438.38632664134565" y="682.8540423223006" type="curve" smooth="yes"/>
      <point x="438.38632664134565" y="716.6673901247965"/>
      <point x="398.6162112964486" y="751.6201844818231"/>
      <point x="335.1437873033098" y="751.6201844818231" type="curve" smooth="yes"/>
      <point x="138.16673615672389" y="751.6201844818231"/>
      <point x="25.622354856212695" y="516.5257731958764"/>
    </contour>
    <contour>
      <point x="321.4763971785133" y="-192.28540423223006" type="curve" smooth="yes"/>
      <point x="390.2381985892566" y="-192.28540423223006"/>
      <point x="473.2810634834509" y="-180.23819858925665"/>
      <point x="485.1866521975041" y="-169.09441128594682" type="curve" smooth="yes"/>
      <point x="496.8540423223006" y="-157.4270211611503"/>
      <point x="501.61584373304396" y="-137.3776451437873"/>
      <point x="501.61584373304396" y="-114.18448182311448" type="curve" smooth="yes"/>
      <point x="501.61584373304396" y="-81.80683667932718" type="line"/>
      <point x="491.52143244709714" y="-81.80683667932718" type="line"/>
      <point x="452.5686380900705" y="-99.52143244709713"/>
      <point x="397.0944112859468" y="-107.52143244709713"/>
      <point x="343.2360282148671" y="-107.52143244709713" type="curve" smooth="yes"/>
      <point x="215.48073792729247" y="-107.52143244709713"/>
      <point x="165.16516794347916" y="-84.53761572333318"/>
      <point x="101.90992946283234" y="-10.665219750406948" type="curve"/>
      <point x="75.1953336950624" y="-46.521432447097126"/>
      <point x="96.14378730330982" y="-112.3304395008139"/>
      <point x="105.24253933803581" y="-121.42919153553989" type="curve"/>
      <point x="160.95496473141617" y="-177.14161692892023"/>
      <point x="220.90775908844276" y="-192.28540423223006"/>
    </contour>
  </outline>
</glyph>
<glyph name="A" format="1">
  <advance width="600.0"/>
  <unicode hex="0041"/>
  <outline>
    <contour>
      <point x="243.23385784047747" y="-7.0" type="curve"/>
      <point x="215.24036896364623" y="273.5409658166034"/>
      <point x="238.5729788388497" y="442.2940857297884"/>
      <point x="315.38415626695604" y="559.7189365165491" type="curve"/>
      <point x="340.8133478024959" y="638.4742268041238"/>
      <point x="332.0021703743896" y="688.6695604991861"/>
      <point x="373.3667932718394" y="702.3819858925665" type="curve"/>
      <point x="175.7704829083017" y="702.3819858925665" type="line"/>
      <point x="70.38849701573521" y="532.7254476397179"/>
      <point x="25.33695062398263" y="301.433532284319"/>
      <point x="48.95279435702659" y="22.718936516549107" type="curve"/>
      <point x="48.95279435702659" y="-4.188822571893651"/>
      <point x="75.86055344546935" y="-10.0"/>
      <point x="101.10526315789474" y="-10.0" type="curve" smooth="yes"/>
      <point x="151.10092240911558" y="-10.0"/>
      <point x="197.9527943570266" y="-9.0"/>
    </contour>
    <contour>
      <point x="549.2381985892566" y="-6.761801410743353" type="curve"/>
      <point x="571.9956592512208" y="254.61801410743354"/>
      <point x="528.950623982637" y="487.56429734129136"/>
      <point x="481.80683667932715" y="615.5642973412914" type="curve"/>
      <point x="460.04503526858383" y="656.9462832338578"/>
      <point x="443.1866521975041" y="675.6158437330439"/>
      <point x="429.7080846446012" y="689.0944112859469" type="curve" smooth="yes"/>
      <point x="421.0406945198047" y="697.7618014107434"/>
      <point x="400.9419424850787" y="702.3819858925665"/>
      <point x="373.3667932718394" y="702.3819858925665" type="curve"/>
      <point x="260.8540423223006" y="702.3819858925665"/>
      <point x="238.09007053716766" y="675.901247965274"/>
      <point x="238.09007053716766" y="553.8648941942486" type="curve"/>
      <point x="253.6608790016278" y="553.8648941942486"/>
      <point x="254.8046663049376" y="553.8648941942486"/>
      <point x="265.3282691264243" y="553.8648941942486" type="curve" smooth="yes"/>
      <point x="277.09224091155727" y="553.8648941942486"/>
      <point x="280.2360282148671" y="555.197504069452"/>
      <point x="302.1866521975041" y="520.3434617471514" type="curve"/>
      <point x="363.9978296256104" y="413.345632121541"/>
      <point x="386.5686380900705" y="217.74064026044493"/>
      <point x="358.098752034726" y="20.671730873575694" type="curve"/>
      <point x="356.0515463917526" y="15.622354856212699"/>
      <point x="358.0515463917526" y="9.907759088442758"/>
      <point x="362.7189365165491" y="5.24036896364623" type="curve" smooth="yes"/>
      <point x="373.0537167661422" y="-5.094411285946825"/>
      <point x="391.62886597938143" y="-10.0"/>
      <point x="410.4894194248508" y="-10.0" type="curve" smooth="yes"/>
      <point x="458.96147585458493" y="-10.0"/>
      <point x="502.9571351058058" y="-9.0"/>
    </contour>
    <contour>
      <point x="44.04503526858383" y="284.66739012479655" type="line"/>
      <point x="44.04503526858383" y="162.15680954964733" type="line" smooth="yes"/>
      <point x="44.04503526858383" y="139.4872490504612"/>
      <point x="47.99782962561042" y="121.3412913727618"/>
      <point x="59.332609875203474" y="110.00651112316875" type="curve" smooth="yes"/>
      <point x="63.04720564297341" y="106.29191535539881"/>
      <point x="66.80900705371677" y="104.29191535539881"/>
      <point x="72.5236028214867" y="104.29191535539881" type="curve"/>
      <point x="452.4248507867607" y="104.29191535539881" type="line"/>
      <point x="452.4248507867607" y="255.99782962561042"/>
      <point x="421.46988605534455" y="284.66739012479655"/>
      <point x="359.8925664677157" y="284.66739012479655" type="curve" smooth="yes"/>
    </contour>
    <contour>
      <point x="300.0" y="710.2381985892566" type="move" name="top"/>
    </contour>
    <contour>
      <point x="549.2381985892566" y="-7.761801410743353" type="move" name="ogonek"/>
    </contour>
    <contour>
      <point x="298.4763971785133" y="703.1437873033099" type="move" name="ring"/>
    </contour>
    <contour>
      <point x="296.9034183396636" y="-1.0" type="move" name="bottom"/>
    </contour>
  </outline>
</glyph>
<glyph name="B" format="1">
  <advance width="600"/>
  <unicode hex="0042"/>
  <outline>
    <contour>
      <point x="235" y="30" type="curve"/>
      <point x="235" y="495" type="line" smooth="yes"/>
      <point x="235" y="575"/>
      <point x="183" y="609"/>
      <point x="75" y="609" type="curve"/>
      <point x="75" y="85" type="line"/>
      <point x="75" y="52"/>
      <point x="153" y="30"/>
    </contour>
    <contour>
      <point x="26" y="700" type="curve"/>
      <point x="22" y="683"/>
      <point x="20" y="666"/>
      <point x="20" y="643" type="curve" smooth="yes"/>
      <point x="20" y="600"/>
      <point x="27" y="574"/>
      <point x="41" y="559" type="curve" smooth="yes"/>
      <point x="48" y="552"/>
      <point x="54" y="550"/>
      <point x="64" y="550" type="curve" smooth="yes"/>
      <point x="74" y="550"/>
      <point x="91" y="554"/>
      <point x="129" y="559" type="curve" smooth="yes"/>
      <point x="171.0" y="565.0"/>
      <point x="216.0" y="570.0"/>
      <point x="282" y="570" type="curve" smooth="yes"/>
      <point x="366.0" y="570.0"/>
      <point x="404.0" y="553.0"/>
      <point x="454" y="514" type="curve"/>
      <point x="543.0" y="603.0"/>
      <point x="440.0" y="720.0"/>
      <point x="295" y="720" type="curve" smooth="yes"/>
      <point x="205" y="720.0"/>
      <point x="111.0" y="714.0"/>
    </contour>
    <contour>
      <point x="540.0" y="511" type="curve" smooth="yes"/>
      <point x="540.0" y="518" type="line" smooth="yes"/>
      <point x="540.0" y="604.0"/>
      <point x="458.0" y="720.0"/>
      <point x="295" y="720" type="curve" smooth="yes"/>
      <point x="270.0" y="720.0"/>
      <point x="249.0" y="702.0"/>
      <point x="249" y="643" type="curve"/>
      <point x="345.0" y="643.0"/>
      <point x="390.0" y="598.0"/>
      <point x="390" y="503" type="curve" smooth="yes"/>
      <point x="390" y="491" type="line" smooth="yes"/>
      <point x="390" y="422"/>
      <point x="341" y="390"/>
      <point x="266" y="390" type="curve" smooth="yes"/>
      <point x="227.0" y="390.0"/>
      <point x="217.0" y="394.0"/>
      <point x="193" y="408" type="curve"/>
      <point x="181.0" y="396.0"/>
      <point x="176.0" y="378.0"/>
      <point x="176" y="360" type="curve" smooth="yes"/>
      <point x="176.0" y="318"/>
      <point x="216.0" y="275.0"/>
      <point x="270" y="275" type="curve" smooth="yes"/>
      <point x="283" y="275" type="line" smooth="yes"/>
      <point x="424.0" y="275"/>
      <point x="540" y="381.0"/>
    </contour>
    <contour>
      <point x="530.0" y="210" type="curve" smooth="yes"/>
      <point x="530.0" y="214" type="line" smooth="yes"/>
      <point x="530.0" y="281.0"/>
      <point x="465.0" y="350"/>
      <point x="382" y="350" type="curve" smooth="yes"/>
      <point x="376" y="350" type="line" smooth="yes"/>
      <point x="323.0" y="350.0"/>
      <point x="301.0" y="329.0"/>
      <point x="301" y="311" type="curve"/>
      <point x="301" y="307" type="line"/>
      <point x="310" y="307.0" type="line"/>
      <point x="348.0" y="307.0"/>
      <point x="380.0" y="277.0"/>
      <point x="380" y="228" type="curve" smooth="yes"/>
      <point x="380" y="220" type="line" smooth="yes"/>
      <point x="380.0" y="163.0"/>
      <point x="337.0" y="135.0"/>
      <point x="269" y="135.0" type="curve" smooth="yes"/>
      <point x="200.0" y="135.0"/>
      <point x="151.0" y="138.0"/>
      <point x="92" y="153" type="curve"/>
      <point x="77" y="138"/>
      <point x="75" y="110"/>
      <point x="75" y="85" type="curve" smooth="yes"/>
      <point x="75" y="38"/>
      <point x="175" y="-10"/>
      <point x="254" y="-10" type="curve" smooth="yes"/>
      <point x="266" y="-10" type="line" smooth="yes"/>
      <point x="410" y="-10.0"/>
      <point x="530.0" y="70.0"/>
    </contour>
  </outline>
</glyph>
<glyph name="C" format="1">
  <advance width="600.0"/>
  <unicode hex="0043"/>
  <outline>
    <contour>
      <point x="369.0944112859468" y="532.9593054801953" type="curve" smooth="yes"/>
      <point x="394.3819858925665" y="532.9593054801953"/>
      <point x="426.7639717851329" y="509.19967444384156"/>
      <point x="422.05371676614214" y="439.57297883884974" type="curve"/>
      <point x="531.3798155181769" y="508.8969072164948"/>
      <point x="557.0922409115573" y="533.7037438958221"/>
      <point x="557.0922409115573" y="548.9419424850787" type="curve" smooth="yes"/>
      <point x="557.0922409115573" y="605.0428648941943"/>
      <point x="542.901247965274" y="647.950623982637"/>
      <point x="515.5664677156809" y="675.28540423223" type="curve" smooth="yes"/>
      <point x="491.94628323385786" y="698.9055887140531"/>
      <point x="430.13944655453065" y="720.0"/>
      <point x="364.3304395008139" y="720.0" type="curve" smooth="yes"/>
      <point x="192.75963103635377" y="720.0"/>
      <point x="40.76397178513294" y="546.8090070537168"/>
      <point x="40.76397178513294" y="306.950623982637" type="curve" smooth="yes"/>
      <point x="40.76397178513294" y="245.1459576776994" type="line" smooth="yes"/>
      <point x="40.76397178513294" y="215.18882257189364"/>
      <point x="148.56863809007052" y="171.3304395008139"/>
      <point x="262.1844818231145" y="174.3776451437873" type="curve"/>
      <point x="256.9934888768313" y="195.3608740689587"/>
      <point x="254.56429734129136" y="247.9894171827285"/>
      <point x="254.56429734129136" y="279.5236028214867" type="curve" smooth="yes"/>
      <point x="254.56429734129136" y="282.2875746066196" type="line" smooth="yes"/>
      <point x="254.56429734129136" y="412.57731958762884"/>
      <point x="320.46988605534455" y="532.9593054801953"/>
    </contour>
    <contour>
      <point x="333.5236028214867" y="-20.0" type="curve" smooth="yes"/>
      <point x="436.66304937601734" y="-20.0"/>
      <point x="514.2810634834509" y="2.0"/>
      <point x="545.4720564297342" y="33.19099294628323" type="curve" smooth="yes"/>
      <point x="565.4248507867608" y="53.14378730330982"/>
      <point x="572.8540423223006" y="74.81334780249594"/>
      <point x="572.8540423223006" y="107.91209983722192" type="curve" smooth="yes"/>
      <point x="572.8540423223006" y="159.95496473141617"/>
      <point x="570.8540423223006" y="213.5214324470971"/>
      <point x="567.8540423223006" y="268.2788931090613" type="curve"/>
      <point x="557.7596310363538" y="268.2788931090613" type="line"/>
      <point x="494.6180141074335" y="205.46988605534455"/>
      <point x="436.5686380900705" y="177.99348887683126"/>
      <point x="348.28323385784046" y="177.99348887683126" type="curve" smooth="yes"/>
      <point x="250.2832338578405" y="177.99348887683126"/>
      <point x="248.32609875203474" y="251.06061089655614"/>
      <point x="248.32609875203474" y="325.24036896364623" type="curve"/>
      <point x="89.44415199136252" y="317.20279251861183"/>
      <point x="40.76397178513294" y="302.0504612045578"/>
      <point x="40.76397178513294" y="245.1459576776994" type="curve" smooth="yes"/>
      <point x="40.76397178513294" y="97.61801410743354"/>
      <point x="140.6695604991861" y="-20.0"/>
    </contour>
    <contour>
      <point x="557.0922409115573" y="373.3369506239826" type="curve"/>
      <point x="557.0922409115573" y="548.9419424850787" type="line" smooth="yes"/>
      <point x="557.0922409115573" y="641.9934888768313"/>
      <point x="499.950623982637" y="689.1844818231145"/>
      <point x="349.05588714053175" y="672.4248507867608" type="curve"/>
      <point x="367.7639717851329" y="621.8497015735214"/>
      <point x="370.42919153553987" y="578.2788931090613"/>
      <point x="370.42919153553987" y="523.4677156809549" type="curve" smooth="yes"/>
      <point x="370.42919153553987" y="404.19750406945195" type="line"/>
      <point x="370.42919153553987" y="390.7683125339121"/>
      <point x="373.9055887140532" y="385.90992946283234"/>
      <point x="379.85838307107974" y="379.9571351058057" type="curve" smooth="yes"/>
      <point x="386.47856755290286" y="373.3369506239826"/>
      <point x="400.0515463917526" y="369.6223548562127"/>
      <point x="420.6266956049919" y="369.6223548562127" type="curve"/>
      <point x="469.52794357026585" y="369.6223548562127"/>
      <point x="513.9055887140531" y="370.86055344546935"/>
    </contour>
    <contour>
      <point x="339.566467715681" y="711.0" type="move" name="top"/>
    </contour>
    <contour>
      <point x="324.95279435702656" y="-8.379815518176885" type="move" name="bottom"/>
    </contour>
  </outline>
</glyph>
<glyph name="I" format="1">
  <advance width="500.0"/>
  <unicode hex="0049"/>
  <outline>
    <contour>
      <point x="354.3776451437873" y="62.384156266956055" type="curve"/>
      <point x="354.3776451437873" y="547.0857297883884" type="line" smooth="yes"/>
      <point x="354.3776451437873" y="603.7080846446012"/>
      <point x="335.42268041237116" y="630.4698860553445"/>
      <point x="145.6223548562127" y="630.4698860553445" type="curve"/>
      <point x="145.6223548562127" y="151.81985892566468" type="line" smooth="yes"/>
      <point x="145.6223548562127" y="91.90992946283234"/>
      <point x="164.57731958762886" y="62.384156266956055"/>
    </contour>
    <contour>
      <point x="28.478567552902874" y="700.0" type="line"/>
      <point x="26.240368963646233" y="669.6695604991861"/>
      <point x="25.002170374389586" y="588.345632121541"/>
      <point x="25.002170374389586" y="555.0623982637005" type="curve"/>
      <point x="25.002170374389586" y="536.8692349430277"/>
      <point x="29.431361909929464" y="523.1052631578948"/>
      <point x="39.527943570265876" y="513.0086814975583" type="curve" smooth="yes"/>
      <point x="47.81551817688552" y="504.7211068909387"/>
      <point x="58.77048290830169" y="502.0065111231687"/>
      <point x="80.72978838849701" y="502.0065111231687" type="curve" smooth="yes"/>
      <point x="472.28323385784046" y="502.0065111231687" type="line"/>
      <point x="474.2360282148671" y="534.9571351058057"/>
      <point x="475.4742268041237" y="618.186652197504"/>
      <point x="475.4742268041237" y="650.6608790016278" type="curve" smooth="yes"/>
      <point x="475.4742268041237" y="681.0922409115573"/>
      <point x="467.4742268041237" y="700.0"/>
      <point x="443.1844818231145" y="700.0" type="curve" smooth="yes"/>
    </contour>
    <contour>
      <point x="28.95496473141617" y="197.99348887683126" type="line"/>
      <point x="26.240368963646233" y="165.99565925122084"/>
      <point x="25.002170374389586" y="83.24253933803581"/>
      <point x="25.002170374389586" y="49.00651112316875" type="curve"/>
      <point x="25.002170374389586" y="32.71893651654911"/>
      <point x="28.240368963646233" y="18.478567552902877"/>
      <point x="37.86055344546934" y="8.85838307107976" type="curve" smooth="yes"/>
      <point x="44.24253933803581" y="2.4763971785132934"/>
      <point x="50.90992946283234" y="0.0"/>
      <point x="65.00868149755833" y="0.0" type="curve" smooth="yes"/>
      <point x="473.8068366793272" y="0.0" type="line"/>
      <point x="474.75963103635377" y="30.997829625610418"/>
      <point x="475.4742268041237" y="111.94194248507867"/>
      <point x="475.4742268041237" y="145.60716223548562" type="curve" smooth="yes"/>
      <point x="475.4742268041237" y="178.32392837764513"/>
      <point x="467.4742268041237" y="197.99348887683126"/>
      <point x="443.1844818231145" y="197.99348887683126" type="curve" smooth="yes"/>
    </contour>
    <contour>
      <point x="250.23819858925665" y="711.0" type="move" name="top"/>
    </contour>
    <contour>
      <point x="473.8068366793272" y="-1.0" type="move" name="ogonek"/>
    </contour>
    <contour>
      <point x="250.23819858925665" y="-1.0" type="move" name="bottom"/>
    </contour>
  </outline>
</glyph>
<glyph name="K" format="1">
  <advance width="600"/>
  <unicode hex="004B"/>
  <outline>
    <contour>
      <point x="70.0" y="707.0" type="curve"/>
      <point x="74.0" y="669.0"/>
      <point x="75.0" y="630.0"/>
      <point x="75.0" y="590.0" type="curve" smooth="yes"/>
      <point x="75.0" y="57.0" type="line" smooth="yes"/>
      <point x="75.0" y="6.0"/>
      <point x="128.0" y="-10.0"/>
      <point x="198.0" y="-10.0" type="curve" smooth="yes"/>
      <point x="216.0" y="-10.0"/>
      <point x="227" y="-9.0"/>
      <point x="235.0" y="-7.0" type="curve"/>
      <point x="235.0" y="651.0" type="line" smooth="yes"/>
      <point x="235.0" y="669.0"/>
      <point x="230.0" y="679.0"/>
      <point x="219.0" y="690.0" type="curve" smooth="yes"/>
      <point x="205.0" y="704.0"/>
      <point x="159.0" y="710.0"/>
      <point x="111.0" y="710.0" type="curve" smooth="yes"/>
      <point x="93.0" y="710.0"/>
      <point x="82.0" y="709.0"/>
    </contour>
    <contour>
      <point x="427" y="710" type="curve"/>
      <point x="403" y="710" type="line"/>
      <point x="383" y="486"/>
      <point x="250" y="337"/>
      <point x="121" y="293" type="curve"/>
      <point x="119" y="237"/>
      <point x="150" y="205"/>
      <point x="174" y="209" type="curve"/>
      <point x="283.63476756548476" y="227.10482400163968"/>
      <point x="469.0" y="362.0"/>
      <point x="526" y="498" type="curve" smooth="yes"/>
      <point x="555" y="563"/>
      <point x="561.0" y="600.0"/>
      <point x="561.0" y="646" type="curve" smooth="yes"/>
      <point x="561.0" y="692.0"/>
      <point x="503.0" y="710.0"/>
    </contour>
    <contour>
      <point x="361" y="376" type="line"/>
      <point x="267" y="326"/>
      <point x="243.0" y="294.0"/>
      <point x="259" y="264" type="curve" smooth="yes"/>
      <point x="362" y="75" type="line" smooth="yes"/>
      <point x="401" y="4"/>
      <point x="439.0" y="-20"/>
      <point x="489" y="-20.0" type="curve" smooth="yes"/>
      <point x="494" y="-20" type="line" smooth="yes"/>
      <point x="546.0" y="-20.0"/>
      <point x="574.0" y="10.0"/>
      <point x="574.0" y="89" type="curve" smooth="yes"/>
      <point x="574.0" y="119"/>
      <point x="572.0" y="138.0"/>
      <point x="567" y="159" type="curve"/>
      <point x="563" y="159" type="line"/>
      <point x="551.0" y="152.0"/>
      <point x="543.0" y="150.0"/>
      <point x="526" y="150" type="curve" smooth="yes"/>
      <point x="497.0" y="150.0"/>
      <point x="475" y="164"/>
      <point x="455" y="202" type="curve" smooth="yes"/>
    </contour>
    <contour>
      <point x="322" y="-1" type="move" name="bottom"/>
    </contour>
  </outline>
</glyph>
<glyph name="L" format="1">
  <advance width="550.0"/>
  <unicode hex="004C"/>
  <outline>
    <contour>
      <point x="266.8990775908844" y="88.23602821486706" type="curve"/>
      <point x="266.8990775908844" y="647.6180141074335" type="line" smooth="yes"/>
      <point x="266.8990775908844" y="670.3326098752035"/>
      <point x="264.42268041237116" y="686.9034183396636"/>
      <point x="252.6608790016278" y="698.6652197504069" type="curve" smooth="yes"/>
      <point x="245.04069451980467" y="706.28540423223"/>
      <point x="233.753119913185" y="710.0"/>
      <point x="211.17797069994572" y="710.0" type="curve" smooth="yes"/>
      <point x="153.42051003798156" y="710.0"/>
      <point x="98.61584373304395" y="708.7618014107434"/>
      <point x="41.33478024959305" y="706.0472056429734" type="curve"/>
      <point x="48.049376017362995" y="671.0472056429734"/>
      <point x="49.76397178513294" y="634.8090070537168"/>
      <point x="49.76397178513294" y="596.8562126966901" type="curve" smooth="yes"/>
      <point x="49.76397178513294" y="121.00217037438958" type="line" smooth="yes"/>
      <point x="49.76397178513294" y="96.0"/>
      <point x="82.62452523060227" y="88.23602821486706"/>
    </contour>
    <contour>
      <point x="49.76397178513294" y="205.61150298426477" type="line"/>
      <point x="49.76397178513294" y="61.91427021161151" type="line" smooth="yes"/>
      <point x="49.76397178513294" y="34.148128052088985"/>
      <point x="75.48290830168204" y="0.0"/>
      <point x="98.3434617471514" y="0.0" type="curve" smooth="yes"/>
      <point x="518.5708084644601" y="0.0" type="line"/>
      <point x="519.5236028214867" y="49.28106348345089"/>
      <point x="520.0" y="102.03852414541508"/>
      <point x="520.0" y="153.22517634291916" type="curve" smooth="yes"/>
      <point x="520.0" y="189.51492132392838"/>
      <point x="509.6180141074335" y="205.61150298426477"/>
      <point x="487.7102550189908" y="205.61150298426477" type="curve" smooth="yes"/>
    </contour>
    <contour>
      <point x="422.75963103635377" y="551.0" type="move" name="caronslovak"/>
    </contour>
    <contour>
      <point x="161.23602821486708" y="711.0" type="move" name="top"/>
    </contour>
    <contour>
      <point x="429.9055887140532" y="400.0" type="move" name="dot"/>
    </contour>
    <contour>
      <point x="279.9055887140532" y="-1.0" type="move" name="bottom"/>
    </contour>
  </outline>
</glyph>
<glyph name="R" format="1">
  <advance width="600"/>
  <unicode hex="0052"/>
  <outline>
    <contour>
      <point x="248.0" y="-3.0" type="curve"/>
      <point x="239.0" y="33"/>
      <point x="235.0" y="70.0"/>
      <point x="235.0" y="110.0" type="curve" smooth="yes"/>
      <point x="235.0" y="495.0" type="line" smooth="yes"/>
      <point x="235.0" y="576.0"/>
      <point x="183.0" y="609.0"/>
      <point x="75.0" y="609.0" type="curve"/>
      <point x="75.0" y="60.0" type="line" smooth="yes"/>
      <point x="75.0" y="35.0"/>
      <point x="79" y="23"/>
      <point x="90.0" y="12.0" type="curve" smooth="yes"/>
      <point x="106" y="-4"/>
      <point x="131" y="-10.0"/>
      <point x="181.0" y="-10.0" type="curve" smooth="yes"/>
      <point x="206.0" y="-10.0"/>
      <point x="225" y="-8.0"/>
    </contour>
    <contour>
      <point x="26" y="700" type="curve"/>
      <point x="22" y="682"/>
      <point x="20" y="665"/>
      <point x="20" y="643" type="curve"/>
      <point x="20" y="601"/>
      <point x="27" y="574"/>
      <point x="41" y="559" type="curve" smooth="yes"/>
      <point x="48" y="552"/>
      <point x="54" y="550"/>
      <point x="64" y="550" type="curve" smooth="yes"/>
      <point x="74" y="550"/>
      <point x="91" y="554"/>
      <point x="129" y="559" type="curve" smooth="yes"/>
      <point x="183" y="566.0"/>
      <point x="228" y="570.0"/>
      <point x="282" y="570.0" type="curve" smooth="yes"/>
      <point x="351.0" y="570.0"/>
      <point x="386.0" y="556.0"/>
      <point x="454" y="504" type="curve"/>
      <point x="507.0" y="557.0"/>
      <point x="439" y="720.0"/>
      <point x="278" y="720.0" type="curve" smooth="yes"/>
      <point x="194" y="720.0"/>
      <point x="106" y="713.0"/>
    </contour>
    <contour>
      <point x="540" y="498" type="curve" smooth="yes"/>
      <point x="540" y="509" type="line" smooth="yes"/>
      <point x="540.0" y="604.9583333333334"/>
      <point x="477.9200000000001" y="720.0"/>
      <point x="278" y="720" type="curve"/>
      <point x="251.0" y="720.0"/>
      <point x="235.0" y="692.0"/>
      <point x="235" y="655" type="curve"/>
      <point x="361.0" y="622.0"/>
      <point x="382.0" y="594.0"/>
      <point x="382" y="503" type="curve" smooth="yes"/>
      <point x="382" y="488" type="line" smooth="yes"/>
      <point x="382.0" y="371.0"/>
      <point x="336.0" y="316.0"/>
      <point x="266" y="316" type="curve" smooth="yes"/>
      <point x="227.0" y="316.0"/>
      <point x="217.0" y="320.0"/>
      <point x="193" y="334" type="curve"/>
      <point x="181.0" y="322.0"/>
      <point x="176.0" y="304.0"/>
      <point x="176" y="286" type="curve" smooth="yes"/>
      <point x="176" y="231"/>
      <point x="216" y="180"/>
      <point x="270" y="180" type="curve" smooth="yes"/>
      <point x="276" y="180" type="line" smooth="yes"/>
      <point x="421.0" y="180.0"/>
      <point x="540.0" y="300.0"/>
    </contour>
    <contour>
      <point x="395" y="313" type="line"/>
      <point x="306" y="266"/>
      <point x="276" y="229"/>
      <point x="292" y="201" type="curve" smooth="yes"/>
      <point x="365" y="75" type="line" smooth="yes"/>
      <point x="406" y="5"/>
      <point x="444.0" y="-20"/>
      <point x="497" y="-20.0" type="curve" smooth="yes"/>
      <point x="502" y="-20" type="line" smooth="yes"/>
      <point x="549.0" y="-20.0"/>
      <point x="574.0" y="10.0"/>
      <point x="574.0" y="97.0" type="curve" smooth="yes"/>
      <point x="574.0" y="119"/>
      <point x="572.0" y="138.0"/>
      <point x="567" y="159" type="curve"/>
      <point x="563" y="159" type="line"/>
      <point x="551" y="152.0"/>
      <point x="543" y="150.0"/>
      <point x="526" y="150" type="curve" smooth="yes"/>
      <point x="497" y="150"/>
      <point x="475" y="164"/>
      <point x="455" y="202" type="curve" smooth="yes"/>
    </contour>
    <contour>
      <point x="297" y="711" type="move" name="top"/>
    </contour>
    <contour>
      <point x="297" y="-1" type="move" name="bottom"/>
    </contour>
  </outline>
</glyph>
<glyph name="U" format="1">
  <advance width="650.0"/>
  <unicode hex="0055"/>
  <outline>
    <contour>
      <point x="36.002170374389586" y="705.0472056429734" type="curve"/>
      <point x="45.76397178513294" y="673.8562126966901"/>
      <point x="49.76397178513294" y="632.28540423223"/>
      <point x="49.76397178513294" y="576.049376017363" type="curve" smooth="yes"/>
      <point x="49.76397178513294" y="151.71242539338036" type="line"/>
      <point x="49.76397178513294" y="97.5236028214867"/>
      <point x="80.48073792729247" y="118.04286489419425"/>
      <point x="243.56429734129136" y="117.2810634834509" type="curve"/>
      <point x="258.0428648941943" y="295.0"/>
      <point x="267.61584373304396" y="434.09224091155727"/>
      <point x="267.61584373304396" y="591.6608790016278" type="curve"/>
      <point x="267.61584373304396" y="549.0965816603364" type="line"/>
      <point x="267.61584373304396" y="672.71459576777"/>
      <point x="239.89907759088442" y="709.7618014107434"/>
      <point x="199.79815518176883" y="709.7618014107434" type="curve"/>
      <point x="143.80249593054802" y="709.7618014107434"/>
      <point x="90.75963103635377" y="708.5236028214867"/>
    </contour>
    <contour>
      <point x="179.33695062398263" y="-10.0" type="curve" smooth="yes"/>
      <point x="276.3326098752035" y="-10.0"/>
      <point x="349.0515463917526" y="38.0"/>
      <point x="403.3369506239826" y="124.66739012479653" type="curve" smooth="yes"/>
      <point x="422.57731958762884" y="161.1953336950624"/>
      <point x="425.8648941942485" y="192.19316332067282"/>
      <point x="406.90775908844273" y="266.6223548562127" type="curve"/>
      <point x="359.95496473141617" y="208.75963103635377"/>
      <point x="316.4742268041237" y="192.7574606619642"/>
      <point x="274.4226804123711" y="192.7574606619642" type="curve" smooth="yes"/>
      <point x="255.6115029842648" y="192.7574606619642"/>
      <point x="247.27672273467172" y="201.3474924424463"/>
      <point x="238.03852414541507" y="243.89907759088442" type="curve"/>
      <point x="128.21634618958072" y="237.8046663049376"/>
      <point x="49.76397178513294" y="188.39229517091698"/>
      <point x="49.76397178513294" y="151.71242539338036" type="curve" smooth="yes"/>
      <point x="49.76397178513294" y="60.5729788388497"/>
      <point x="106.1953336950624" y="-10.0"/>
    </contour>
    <contour>
      <point x="607.4742268041238" y="-7.0" type="curve"/>
      <point x="601.236028214867" y="24.190992946283234"/>
      <point x="600.236028214867" y="59.42919153553988"/>
      <point x="600.236028214867" y="98.71459576776994" type="curve" smooth="yes"/>
      <point x="600.236028214867" y="678.186652197504" type="line" smooth="yes"/>
      <point x="600.236028214867" y="701.6652197504069"/>
      <point x="577.4720564297342" y="709.7618014107434"/>
      <point x="542.3711340206186" y="709.7618014107434" type="curve" smooth="yes"/>
      <point x="505.802495930548" y="709.7618014107434"/>
      <point x="427.57297883884974" y="709.28540423223"/>
      <point x="390.7189365165491" y="708.3326098752035" type="curve"/>
      <point x="390.7189365165491" y="58.81334780249593" type="line" smooth="yes"/>
      <point x="390.7189365165491" y="34.431361909929464"/>
      <point x="393.90992946283234" y="16.431361909929464"/>
      <point x="407.57731958762884" y="2.763971785132936" type="curve" smooth="yes"/>
      <point x="415.67390124796526" y="-5.332609875203472"/>
      <point x="430.5344546934346" y="-10.0"/>
      <point x="450.7276180141074" y="-10.0" type="curve" smooth="yes"/>
      <point x="487.0108518719479" y="-10.0"/>
      <point x="564.2875746066196" y="-9.0"/>
    </contour>
    <contour>
      <point x="322.0" y="711.0" type="move" name="top"/>
    </contour>
    <contour>
      <point x="607.4742268041238" y="-8.238198589256648" type="move" name="ogonek"/>
    </contour>
    <contour>
      <point x="322.0" y="703.3819858925665" type="move" name="ring"/>
    </contour>
    <contour>
      <point x="322.0" y="-1.0" type="move" name="bottom"/>
    </contour>
  </outline>
</glyph>
<glyph name="Z" format="1">
  <advance width="600"/>
  <unicode hex="005A"/>
  <outline>
    <contour>
      <point x="105" y="700" type="line"/>
      <point x="102" y="691"/>
      <point x="100" y="676"/>
      <point x="100" y="662" type="curve" smooth="yes"/>
      <point x="100" y="619"/>
      <point x="110" y="586"/>
      <point x="130" y="566" type="curve" smooth="yes"/>
      <point x="143" y="553"/>
      <point x="151" y="550"/>
      <point x="172" y="550" type="curve" smooth="yes"/>
      <point x="350" y="550.0" type="line" smooth="yes"/>
      <point x="429.0" y="550.0"/>
      <point x="472" y="530"/>
      <point x="518" y="483" type="curve" smooth="yes"/>
      <point x="537" y="504"/>
      <point x="550.0" y="522.0"/>
      <point x="550" y="535" type="curve"/>
      <point x="550" y="544" type="line" smooth="yes"/>
      <point x="550.0" y="623.0"/>
      <point x="488.0" y="700.0"/>
      <point x="428" y="700" type="curve" smooth="yes"/>
    </contour>
    <contour>
      <point x="416" y="602" type="curve"/>
      <point x="334.0" y="425.0"/>
      <point x="270.0" y="344.0"/>
      <point x="50" y="140" type="curve"/>
      <point x="50.0" y="102.0"/>
      <point x="120" y="84"/>
      <point x="175" y="107" type="curve" smooth="yes"/>
      <point x="290.0" y="155.0"/>
      <point x="550.0" y="452.0"/>
      <point x="550" y="535" type="curve"/>
      <point x="550.0" y="582.0"/>
      <point x="509" y="602.0"/>
    </contour>
    <contour>
      <point x="547" y="0" type="line"/>
      <point x="549.0" y="8.0"/>
      <point x="550.0" y="18.0"/>
      <point x="550.0" y="31" type="curve" smooth="yes"/>
      <point x="550" y="75"/>
      <point x="538.0" y="107.0"/>
      <point x="513" y="132" type="curve" smooth="yes"/>
      <point x="499" y="146"/>
      <point x="489.0" y="150.0"/>
      <point x="465" y="150.0" type="curve" smooth="yes"/>
      <point x="400" y="150" type="line" smooth="yes"/>
      <point x="289.0" y="150"/>
      <point x="154.0" y="146.0"/>
      <point x="50" y="140" type="curve"/>
      <point x="50" y="125" type="line" smooth="yes"/>
      <point x="50.0" y="47"/>
      <point x="71.0" y="0.0"/>
      <point x="105" y="0" type="curve" smooth="yes"/>
    </contour>
    <contour>
      <point x="208" y="460" type="curve"/>
      <point x="208.0" y="566.0"/>
      <point x="223.0" y="603.0"/>
      <point x="223" y="666" type="curve"/>
      <point x="223.0" y="695.0"/>
      <point x="163.38636363636363" y="720.0"/>
      <point x="94" y="720" type="curve" smooth="yes"/>
      <point x="88" y="720" type="line"/>
      <point x="69.0" y="658.0"/>
      <point x="60.0" y="590.0"/>
      <point x="60" y="516" type="curve"/>
      <point x="60.0" y="470.0"/>
      <point x="83.0" y="454.0"/>
      <point x="150" y="454" type="curve" smooth="yes"/>
      <point x="173.0" y="454.0"/>
      <point x="193.0" y="456.0"/>
    </contour>
    <contour>
      <point x="300" y="711" type="move" name="top"/>
    </contour>
  </outline>
</glyph>
<glyph name="bracketleft" format="1">
  <advance width="400.0"/>
  <unicode hex="005B"/>
  <outline>
    <contour>
      <point x="157.4376017362995" y="635.4291915355399" type="curve" smooth="yes"/>
      <point x="157.4376017362995" y="72.0835594139989" type="line" smooth="yes"/>
      <point x="157.4376017362995" y="51.60282148670646"/>
      <point x="223.5835594139989" y="48.459034183396625"/>
      <point x="366.95469343461747" y="48.459034183396625" type="curve"/>
      <point x="366.95469343461747" y="700.665219750407" type="line" smooth="yes"/>
      <point x="366.95469343461747" y="729.6695604991861"/>
      <point x="360.9525230602279" y="747.8111774281064"/>
      <point x="321.13700488334234" y="747.8111774281064" type="curve" smooth="yes"/>
      <point x="252.71432447097123" y="747.8111774281064"/>
      <point x="215.43109061313075" y="746.5729788388497"/>
      <point x="149.0084102007596" y="743.0965816603364" type="curve"/>
      <point x="155.72300596852958" y="707.8583830710797"/>
      <point x="157.4376017362995" y="673.1437873033099"/>
    </contour>
    <contour>
      <point x="460.86679327183936" y="552.1030927835052" type="line"/>
      <point x="463.58138903960935" y="600.3841562669561"/>
      <point x="464.819587628866" y="649.0944112859468"/>
      <point x="464.819587628866" y="699.8046663049377" type="curve" smooth="yes"/>
      <point x="464.819587628866" y="711.6630493760174"/>
      <point x="462.86679327183936" y="730.5236028214867"/>
      <point x="452.24660879001624" y="741.1437873033099" type="curve" smooth="yes"/>
      <point x="447.57921866521974" y="745.8111774281064"/>
      <point x="442.1028214867065" y="747.8111774281064"/>
      <point x="435.00623982637" y="747.8111774281064" type="curve" smooth="yes"/>
      <point x="321.13700488334234" y="747.8111774281064" type="line"/>
      <point x="321.13700488334234" y="588.1524688008682"/>
      <point x="337.80873575691805" y="552.1030927835052"/>
      <point x="410.38605534454695" y="552.1030927835052" type="curve"/>
    </contour>
    <contour>
      <point x="463.62859468258273" y="-122.90992946283234" type="line"/>
      <point x="464.58138903960935" y="-77.43787303309821"/>
      <point x="465.0577862181226" y="-26.96581660336409"/>
      <point x="465.0577862181226" y="20.411828540423215" type="curve" smooth="yes"/>
      <point x="465.0577862181226" y="56.70157352143244"/>
      <point x="455.4376017362995" y="72.79815518176886"/>
      <point x="433.52984264785675" y="72.79815518176886" type="curve" smooth="yes"/>
      <point x="157.4376017362995" y="72.79815518176886" type="line"/>
      <point x="157.4376017362995" y="-60.99565925122083" type="line" smooth="yes"/>
      <point x="157.4376017362995" y="-89.5236028214867"/>
      <point x="181.63293543136191" y="-122.90992946283234"/>
      <point x="205.2552902875746" y="-122.90992946283234" type="curve" smooth="yes"/>
    </contour>
  </outline>
</glyph>
<glyph name="asciicircum" format="1">
  <advance width="600"/>
  <unicode hex="005E"/>
  <outline>
    <contour>
      <point x="176.0" y="355.0" type="line"/>
      <point x="202.0" y="489.0"/>
      <point x="265.0" y="574.0"/>
      <point x="348.0" y="653.0" type="curve"/>
      <point x="348.0" y="732.0"/>
      <point x="328.0" y="760.0"/>
      <point x="295.0" y="760.0" type="curve"/>
      <point x="265.0" y="760.0" type="line"/>
      <point x="192.0" y="706.0"/>
      <point x="104.0" y="588.0"/>
      <point x="58.0" y="479.0" type="curve" smooth="yes"/>
      <point x="43.0" y="445.0"/>
      <point x="37.0" y="421.0"/>
      <point x="37.0" y="410.0" type="curve" smooth="yes"/>
      <point x="37.0" y="377.0"/>
      <point x="99.0" y="355.0"/>
      <point x="156.0" y="355.0" type="curve"/>
    </contour>
    <contour>
      <point x="563.0" y="368.0" type="curve"/>
      <point x="518.0" y="522.0"/>
      <point x="456.0" y="630.0"/>
      <point x="374.0" y="717.0" type="curve" smooth="yes"/>
      <point x="336.0" y="757.0"/>
      <point x="323.0" y="760.0"/>
      <point x="299.0" y="760.0" type="curve" smooth="yes"/>
      <point x="291.0" y="760.0" type="line" smooth="yes"/>
      <point x="273.0" y="760.0"/>
      <point x="228.0" y="699.0"/>
      <point x="215.0" y="658.0" type="curve"/>
      <point x="220.0" y="658.0"/>
      <point x="224.0" y="658.0"/>
      <point x="229.0" y="658.0" type="curve" smooth="yes"/>
      <point x="232.0" y="658.0"/>
      <point x="239.0" y="656.0"/>
      <point x="245.0" y="650.0" type="curve" smooth="yes"/>
      <point x="319.0" y="583.0"/>
      <point x="361.0" y="517.0"/>
      <point x="399.0" y="400.0" type="curve" smooth="yes"/>
      <point x="407.0" y="378.0"/>
      <point x="439.0" y="358.0"/>
      <point x="499.0" y="358.0" type="curve" smooth="yes"/>
      <point x="524.0" y="358.0"/>
      <point x="542.0" y="360.0"/>
    </contour>
  </outline>
</glyph>
<glyph name="b" format="1">
  <advance width="600.0"/>
  <unicode hex="0062"/>
  <outline>
    <contour>
      <point x="11.673901247965276" y="0.0" type="line"/>
      <point x="25.65845846640792" y="-4.0"/>
      <point x="45.15073707562924" y="-6.0"/>
      <point x="68.15073707562924" y="-6.0" type="curve" smooth="yes"/>
      <point x="134.15073707562925" y="-6.0"/>
      <point x="167.0049758511414" y="21.000000000000004"/>
      <point x="181.72889618372312" y="79.0" type="curve" smooth="yes"/>
      <point x="337.8532238481671" y="675.6587086272382" type="line"/>
      <point x="348.7692337499087" y="731.9978296256104"/>
      <point x="323.8307855515628" y="756.0"/>
      <point x="249.16122505237678" y="756.0" type="curve" smooth="yes"/>
      <point x="228.5432109449432" y="756.0"/>
      <point x="208.41747544673098" y="754.2381985892566"/>
      <point x="190.59302561145688" y="750.4763971785133" type="curve"/>
      <point x="189.9460998620866" y="715.2381985892566"/>
      <point x="185.56847758966308" y="685.0"/>
      <point x="175.66791046947878" y="646.0" type="curve" smooth="yes"/>
    </contour>
    <contour>
      <point x="486.5127509495388" y="552.0" type="curve" smooth="yes"/>
      <point x="403.4161692892024" y="552.0"/>
      <point x="279.9913185024417" y="461.7618014107434"/>
      <point x="230.851871947911" y="363.0" type="curve" smooth="yes"/>
      <point x="206.66304937601737" y="314.0"/>
      <point x="194.37981551817688" y="244.0"/>
      <point x="203.23819858925663" y="205.99999999999997" type="curve"/>
      <point x="280.8046663049376" y="346.80900705371675"/>
      <point x="352.99348887683124" y="396.3326098752035"/>
      <point x="425.61367335865435" y="396.3326098752035" type="curve" smooth="yes"/>
      <point x="466.3733043950081" y="396.3326098752035"/>
      <point x="503.6115029842648" y="370.9055887140532"/>
      <point x="537.1394465545307" y="309.85838307107974" type="curve"/>
      <point x="570.901247965274" y="313.85838307107974"/>
      <point x="588.186652197504" y="321.81117742810636"/>
      <point x="589.7102550189908" y="329.5257731958763" type="curve" smooth="yes"/>
      <point x="616.3733043950082" y="440.0021703743896"/>
      <point x="565.2745523602821" y="552.0"/>
    </contour>
    <contour>
      <point x="309.6245252306023" y="-12.0" type="curve" smooth="yes"/>
      <point x="436.81117742810636" y="-12.0"/>
      <point x="534.8605534454693" y="83.4763971785133"/>
      <point x="583.6158437330439" y="303.71676614215954" type="curve" smooth="yes"/>
      <point x="589.7102550189908" y="329.5257731958763" type="line" smooth="yes"/>
      <point x="601.137276180141" y="381.5257731958763"/>
      <point x="585.0385241454151" y="474.0"/>
      <point x="498.03852414541507" y="474.0" type="curve"/>
      <point x="471.03852414541507" y="474.0"/>
      <point x="445.2295170916983" y="459.5236028214867"/>
      <point x="436.08790016277806" y="432.8068366793272" type="curve"/>
      <point x="448.7552902875746" y="399.57080846446013"/>
      <point x="449.1844818231145" y="381.80900705371675"/>
      <point x="430.13944655453065" y="310.0" type="curve" smooth="yes"/>
      <point x="425.5686380900705" y="293.6673901247965" type="line" smooth="yes"/>
      <point x="398.9055887140532" y="187.19099294628325"/>
      <point x="347.6695604991861" y="126.66739012479651"/>
      <point x="273.6695604991861" y="126.66739012479651" type="curve" smooth="yes"/>
      <point x="230.6695604991861" y="126.66739012479651"/>
      <point x="203.7167661421595" y="140.66739012479653"/>
      <point x="186.5729788388497" y="166.66739012479653" type="curve"/>
      <point x="166.7167661421595" y="138.19099294628325"/>
      <point x="157.098752034726" y="97.80900705371675"/>
      <point x="170.7189365165491" y="66.57080846446011" type="curve" smooth="yes"/>
      <point x="186.5773195876289" y="30.570808464460125"/>
      <point x="239.33912099837224" y="-12.0"/>
    </contour>
  </outline>
</glyph>
<glyph name="i" format="1">
  <advance width="350.0"/>
  <unicode hex="0069"/>
  <outline>
    <contour>
      <point x="111.32175800325555" y="546.0" type="curve"/>
      <point x="103.5127509495388" y="531.0"/>
      <point x="96.18014107433532" y="511.0"/>
      <point x="90.84753119913185" y="488.0" type="curve" smooth="yes"/>
      <point x="74.84970157352143" y="424.80900705371675"/>
      <point x="88.7552902875746" y="401.3326098752035"/>
      <point x="111.7552902875746" y="401.3326098752035" type="curve" smooth="yes"/>
      <point x="134.7959583393989" y="401.3326098752035"/>
      <point x="155.87499115336524" y="413.3326098752035"/>
      <point x="209.80249593054802" y="413.3326098752035" type="curve"/>
      <point x="228.0857297883885" y="485.28540423223006"/>
      <point x="250.0835594139989" y="550.0"/>
      <point x="201.0835594139989" y="550.0" type="curve" smooth="yes"/>
      <point x="171.08078966296105" y="550.0"/>
      <point x="141.13525101132743" y="549.882339725266"/>
    </contour>
    <contour>
      <point x="220.15073707562925" y="-4.57080846446012" type="curve"/>
      <point x="221.52814002347748" y="28.429191535539882"/>
      <point x="227.15940366671504" y="62.42919153553988"/>
      <point x="236.0445280053419" y="97.42919153553989" type="curve" smooth="yes"/>
      <point x="337.3349454656885" y="495.0" type="line" smooth="yes"/>
      <point x="348.25095536743015" y="538.0"/>
      <point x="306.29728371210217" y="550.0"/>
      <point x="211.29728371210217" y="550.0" type="curve" smooth="yes"/>
      <point x="201.29728371210217" y="550.0" type="line"/>
      <point x="75.89010018976829" y="56.0" type="line" smooth="yes"/>
      <point x="64.46636889724802" y="11.0"/>
      <point x="93.15073707562925" y="-6.0"/>
      <point x="196.2429779871865" y="-6.0" type="curve" smooth="yes"/>
      <point x="205.3395596475229" y="-6.0"/>
      <point x="212.48334695083273" y="-5.523602821486707"/>
    </contour>
    <contour>
      <point x="383.3368358663027" y="625.0" type="curve"/>
      <point x="404.4072735836179" y="708.0" type="line" smooth="yes"/>
      <point x="418.1157511346422" y="762.0"/>
      <point x="375.14663669775695" y="770.0"/>
      <point x="318.14663669775695" y="770.0" type="curve" smooth="yes"/>
      <point x="295.14663669775695" y="770.0"/>
      <point x="264.6389153069783" y="768.0"/>
      <point x="238.6234725254209" y="764.0" type="curve"/>
      <point x="217.55303480810568" y="681.0" type="line" smooth="yes"/>
      <point x="203.8445572570814" y="627.0"/>
      <point x="246.81367169396663" y="619.0"/>
      <point x="303.8136716939666" y="619.0" type="curve" smooth="yes"/>
      <point x="326.8136716939666" y="619.0"/>
      <point x="357.3213930847453" y="621.0"/>
    </contour>
  </outline>
</glyph>
<glyph name="k" format="1">
  <advance width="600.0"/>
  <unicode hex="006B"/>
  <outline>
    <contour>
      <point x="176.67390124796526" y="-4.440892098500626e-16" type="curve"/>
      <point x="338.38316421097477" y="637.0" type="line" smooth="yes"/>
      <point x="351.5839203712204" y="689.0"/>
      <point x="348.6456914974499" y="705.0"/>
      <point x="333.72290540523665" y="725.0" type="curve" smooth="yes"/>
      <point x="317.3078407038021" y="747.0"/>
      <point x="269.08486557152753" y="754.0"/>
      <point x="237.08486557152753" y="754.0" type="curve" smooth="yes"/>
      <point x="223.08486557152753" y="754.0"/>
      <point x="208.8310048761382" y="753.0"/>
      <point x="194.06942278997013" y="750.0" type="curve"/>
      <point x="193.9304377559539" y="714.0"/>
      <point x="190.0607561988844" y="683.0"/>
      <point x="180.16018907870014" y="644.0" type="curve" smooth="yes"/>
      <point x="30.89010018976832" y="56.0" type="line" smooth="yes"/>
      <point x="17.181622638743974" y="2.0"/>
      <point x="60.15073707562924" y="-6.0"/>
      <point x="117.15073707562925" y="-6.0" type="curve" smooth="yes"/>
      <point x="140.15073707562925" y="-6.0"/>
      <point x="160.65845846640792" y="-4.0"/>
    </contour>
    <contour>
      <point x="489.8050051028809" y="552.0" type="line"/>
      <point x="403.20273662214385" y="396.0"/>
      <point x="276.67090585872205" y="323.0"/>
      <point x="134.47014969847635" y="271.0" type="curve"/>
      <point x="117.96920449816929" y="206.0"/>
      <point x="140.33794085493173" y="172.0"/>
      <point x="165.3533836364891" y="176.0" type="curve" smooth="yes"/>
      <point x="304.93831893505455" y="198.0"/>
      <point x="490.33983125554585" y="302.0"/>
      <point x="590.1033037423281" y="435.0" type="curve" smooth="yes"/>
      <point x="615.7345673855657" y="469.0"/>
      <point x="619.7808957302377" y="481.0"/>
      <point x="623.3349454656885" y="495.0" type="curve" smooth="yes"/>
      <point x="631.204627022758" y="526.0"/>
      <point x="576.805005102881" y="552.0"/>
      <point x="513.805005102881" y="552.0" type="curve"/>
    </contour>
    <contour>
      <point x="434.13529429407185" y="-10.0" type="curve" smooth="yes"/>
      <point x="482.13529429407185" y="-10.0"/>
      <point x="507.91231916179726" y="-3.0000000000000004"/>
      <point x="538.2433937649735" y="17.999999999999996" type="curve"/>
      <point x="468.0599707868992" y="100.0"/>
      <point x="417.47692588894796" y="208.0"/>
      <point x="388.6863486402794" y="327.0" type="curve"/>
      <point x="333.89388099099665" y="316.0"/>
      <point x="258.70856761230834" y="268.0"/>
      <point x="263.5695825782921" y="232.0" type="curve" smooth="yes"/>
      <point x="272.260726947145" y="152.0"/>
      <point x="313.6516822759363" y="59.0"/>
      <point x="335.2897221096455" y="30.0" type="curve" smooth="yes"/>
      <point x="356.9277619433546" y="0.9999999999999996"/>
      <point x="384.13529429407185" y="-10.0"/>
    </contour>
  </outline>
</glyph>
<glyph name="m" format="1">
  <advance width="850.0"/>
  <unicode hex="006D"/>
  <outline>
    <contour>
      <point x="171.6739012479653" y="-4.440892098500626e-16" type="curve"/>
      <point x="280.58013956999207" y="429.0" type="line" smooth="yes"/>
      <point x="293.7808957302377" y="481.0"/>
      <point x="290.8426668564672" y="497.0"/>
      <point x="275.91988076425395" y="517.0" type="curve" smooth="yes"/>
      <point x="259.50481606281943" y="539.0"/>
      <point x="211.28184093054486" y="546.0"/>
      <point x="179.28184093054486" y="546.0" type="curve" smooth="yes"/>
      <point x="165.28184093054486" y="546.0"/>
      <point x="151.0279802351555" y="545.0"/>
      <point x="136.26639814898746" y="542.0" type="curve"/>
      <point x="136.12741311497126" y="506.0"/>
      <point x="132.2577315579017" y="475.0"/>
      <point x="122.35716443771744" y="436.0" type="curve" smooth="yes"/>
      <point x="25.89010018976832" y="56.0" type="line" smooth="yes"/>
      <point x="12.18162263874396" y="2.0"/>
      <point x="55.15073707562924" y="-6.0"/>
      <point x="112.15073707562924" y="-6.0" type="curve" smooth="yes"/>
      <point x="135.15073707562925" y="-6.0"/>
      <point x="155.65845846640792" y="-4.0"/>
    </contour>
    <contour>
      <point x="472.1801410743353" y="552.0" type="curve" smooth="yes"/>
      <point x="369.2767227346717" y="552.0"/>
      <point x="285.42051003798156" y="454.0"/>
      <point x="230.47205642973412" y="338.0" type="curve" smooth="yes"/>
      <point x="190.14161692892023" y="252.52360282148672"/>
      <point x="170.23819858925665" y="160.71459576776996"/>
      <point x="186.42919153553987" y="106.0" type="curve"/>
      <point x="273.7080846446012" y="340.57080846446013"/>
      <point x="330.99040653220203" y="390.3326098752035"/>
      <point x="376.1872938405865" y="390.3326098752035" type="curve" smooth="yes"/>
      <point x="410.1872938405865" y="390.3326098752035"/>
      <point x="428.602358542021" y="368.3326098752035"/>
      <point x="435.17862724950066" y="323.3326098752035" type="curve"/>
      <point x="493.1786272495007" y="323.3326098752035"/>
      <point x="541.5664677156809" y="352.0472056429734"/>
      <point x="549.1844818231145" y="381.71459576776994" type="curve" smooth="yes"/>
      <point x="568.2295170916983" y="453.3819858925665"/>
      <point x="536.2745523602821" y="552.0"/>
    </contour>
    <contour>
      <point x="451.67390124796526" y="0.0" type="curve"/>
      <point x="549.1844818231145" y="381.71459576776994" type="line"/>
      <point x="556.802495930548" y="410.2381985892566"/>
      <point x="532.8631618226061" y="432.3330341684938"/>
      <point x="436.08786096077074" y="429.33260987520345" type="curve"/>
      <point x="386.4281120398876" y="322.48211660000226"/>
      <point x="343.57080846446013" y="223.85621269669016"/>
      <point x="321.47856755290286" y="137.04720564297338" type="curve" smooth="yes"/>
      <point x="319.1931633206728" y="129.76180141074337" type="line" smooth="yes"/>
      <point x="288.7211068909387" y="22.761801410743352"/>
      <point x="322.15073707562925" y="-5.999999999999999"/>
      <point x="407.15073707562925" y="-5.999999999999999" type="curve" smooth="yes"/>
      <point x="424.15073707562925" y="-5.999999999999999"/>
      <point x="436.4045977710186" y="-4.999999999999999"/>
    </contour>
    <contour>
      <point x="752.1801410743353" y="552.0" type="curve" smooth="yes"/>
      <point x="649.2767227346717" y="552.0"/>
      <point x="563.9441128594683" y="457.0"/>
      <point x="508.99565925122084" y="341.0" type="curve" smooth="yes"/>
      <point x="468.66521975040695" y="255.5236028214867"/>
      <point x="447.2381985892566" y="160.71459576776996"/>
      <point x="463.42919153553987" y="106.0" type="curve"/>
      <point x="550.7080846446012" y="340.57080846446013"/>
      <point x="611.0018624786766" y="390.3326098752035"/>
      <point x="658.1872938405866" y="390.3326098752035" type="curve" smooth="yes"/>
      <point x="690.1872938405866" y="390.3326098752035"/>
      <point x="708.6023585420211" y="368.3326098752035"/>
      <point x="715.1786272495007" y="323.3326098752035" type="curve"/>
      <point x="773.1786272495007" y="323.3326098752035"/>
      <point x="821.5664677156809" y="352.0472056429734"/>
      <point x="828.4226804123712" y="382.4763971785133" type="curve" smooth="yes"/>
      <point x="847.4677156809549" y="455.66739012479655"/>
      <point x="816.2745523602821" y="552.0"/>
    </contour>
    <contour>
      <point x="752.6739012479653" y="0.0" type="curve"/>
      <point x="751.6516822759363" y="59.0"/>
      <point x="755.7906673099525" y="95.0"/>
      <point x="772.0377518148703" y="159.0" type="curve" smooth="yes"/>
      <point x="828.4226804123712" y="382.4763971785133" type="line"/>
      <point x="836.802495930548" y="411.7618014107434"/>
      <point x="812.8631618226061" y="432.3330341684938"/>
      <point x="716.0878609607707" y="429.3326098752035" type="curve"/>
      <point x="666.4281120398875" y="322.48211660000226"/>
      <point x="621.2702689199389" y="218.52622972290308"/>
      <point x="599.6912344301368" y="134.0" type="curve" smooth="yes"/>
      <point x="598.4219309531901" y="129.0" type="line" smooth="yes"/>
      <point x="571.2588365465307" y="22.0"/>
      <point x="608.1507370756292" y="-6.0"/>
      <point x="693.1507370756292" y="-6.0" type="curve" smooth="yes"/>
      <point x="714.1507370756292" y="-6.0"/>
      <point x="731.658458466408" y="-4.0"/>
    </contour>
  </outline>
</glyph>
<glyph name="n" format="1">
  <advance width="600.0"/>
  <unicode hex="006E"/>
  <outline>
    <contour>
      <point x="169.15029842647857" y="-3.0472056429734127" type="curve"/>
      <point x="281.8969072164948" y="421.42051003798156" type="line" smooth="yes"/>
      <point x="291.80032555615844" y="468.6630493760174"/>
      <point x="286.22734671730876" y="490.8562126966902"/>
      <point x="272.22517634291916" y="508.66739012479655" type="curve" smooth="yes"/>
      <point x="254.31958762886597" y="532.6673901247965"/>
      <point x="221.46337493217578" y="542.9527943570266"/>
      <point x="177.0363537710255" y="542.9527943570266" type="curve" smooth="yes"/>
      <point x="163.27455236028214" y="542.9527943570266"/>
      <point x="149.75094953879545" y="541.9527943570266"/>
      <point x="135.22734671730873" y="538.9527943570266" type="curve"/>
      <point x="135.0857297883885" y="502.95279435702656"/>
      <point x="131.46771568095497" y="471.95279435702656"/>
      <point x="121.56429734129136" y="432.95279435702656" type="curve" smooth="yes"/>
      <point x="24.815518176885547" y="52.95279435702659" type="line" smooth="yes"/>
      <point x="11.103092783505161" y="-1.0472056429734131"/>
      <point x="52.62669560499185" y="-9.047205642973413"/>
      <point x="109.62669560499185" y="-9.047205642973413" type="curve" smooth="yes"/>
      <point x="132.62669560499185" y="-9.047205642973413"/>
      <point x="153.38849701573523" y="-7.047205642973412"/>
    </contour>
    <contour>
      <point x="485.5149213239284" y="548.9527943570266" type="curve" smooth="yes"/>
      <point x="396.32392837764513" y="548.9527943570266"/>
      <point x="290.56429734129136" y="447.1437873033098"/>
      <point x="234.09224091155727" y="329.6201844818231" type="curve" smooth="yes"/>
      <point x="193.76180141074335" y="244.1437873033098"/>
      <point x="178.24036896364623" y="154.62018448182312"/>
      <point x="183.7661421595225" y="97.62018448182312" type="curve"/>
      <point x="283.23385784047747" y="336.7618014107434"/>
      <point x="358.80249593054805" y="387.28540423223006"/>
      <point x="409.46988605534455" y="387.28540423223006" type="curve" smooth="yes"/>
      <point x="435.2316874660879" y="387.28540423223006"/>
      <point x="455.4226804123711" y="371.3798155181769"/>
      <point x="461.23385784047747" y="338.5686380900705" type="curve"/>
      <point x="519.2338578404775" y="338.5686380900705"/>
      <point x="565.5664677156809" y="364.9978296256104"/>
      <point x="573.9462832338578" y="396.18882257189364" type="curve" smooth="yes"/>
      <point x="589.1823114487249" y="455.66739012479655"/>
      <point x="552.6565382528486" y="548.9527943570266"/>
    </contour>
    <contour>
      <point x="491.3412913727618" y="-3.0472056429734127" type="curve"/>
      <point x="490.5773195876289" y="55.95279435702659"/>
      <point x="494.7189365165491" y="91.95279435702659"/>
      <point x="510.71676614215954" y="155.9527943570266" type="curve" smooth="yes"/>
      <point x="573.9462832338578" y="396.18882257189364" type="line"/>
      <point x="579.2788931090613" y="419.3798155181769"/>
      <point x="557.1351058057514" y="429.28540423223006"/>
      <point x="460.3733043950081" y="426.28540423223006" type="curve"/>
      <point x="404.8540423223006" y="324.33260987520345"/>
      <point x="354.9472367741723" y="216.45755405556082"/>
      <point x="335.5751492132393" y="138.57080846446016" type="curve" smooth="yes"/>
      <point x="331.76614215952253" y="125.95279435702659" type="line" smooth="yes"/>
      <point x="304.10425281808693" y="17.47987728225864"/>
      <point x="341.42159522517636" y="-9.047205642973413"/>
      <point x="431.81768855127507" y="-9.047205642973413" type="curve" smooth="yes"/>
      <point x="452.81768855127507" y="-9.047205642973413"/>
      <point x="470.57948996201844" y="-7.047205642973412"/>
    </contour>
  </outline>
</glyph>
<glyph name="p" format="1">
  <advance width="600.0"/>
  <unicode hex="0070"/>
  <outline>
    <contour>
      <point x="110.90176217009731" y="-200.0" type="curve"/>
      <point x="245.19407003105812" y="329.0" type="line" smooth="yes"/>
      <point x="273.6264679146641" y="440.7618014107434"/>
      <point x="282.191377486954" y="488.9034183396636"/>
      <point x="261.155908979121" y="516.28540423223" type="curve" smooth="yes"/>
      <point x="245.502729702118" y="537.2617884520205"/>
      <point x="207.27044646499954" y="546.0"/>
      <point x="178.32904657351827" y="546.0" type="curve"/>
      <point x="164.32904657351827" y="546.0"/>
      <point x="151.0279802351555" y="545.0"/>
      <point x="136.26639814898746" y="542.0" type="curve"/>
      <point x="136.12741311497126" y="506.0"/>
      <point x="132.2577315579017" y="475.0"/>
      <point x="122.35716443771744" y="436.0" type="curve" smooth="yes"/>
      <point x="-24.88203888809963" y="-144.0" type="line" smooth="yes"/>
      <point x="-38.590516439123974" y="-198.0"/>
      <point x="0.37859799776124703" y="-206.0"/>
      <point x="51.378597997761275" y="-206.0" type="curve"/>
      <point x="74.37859799776128" y="-206.0"/>
      <point x="94.88631938853995" y="-204.0"/>
    </contour>
    <contour>
      <point x="491.80500510288095" y="552.0" type="curve" smooth="yes"/>
      <point x="398.80500510288084" y="552.0"/>
      <point x="279.70368182245096" y="461.0"/>
      <point x="230.82533367429562" y="363.0" type="curve" smooth="yes"/>
      <point x="206.38615960021798" y="314.0"/>
      <point x="194.61591092296422" y="244.0"/>
      <point x="202.9692044981693" y="205.99999999999997" type="curve"/>
      <point x="278.7481197665088" y="343.0"/>
      <point x="352.7104580129225" y="396.3326098752035"/>
      <point x="433.71045801292246" y="396.3326098752035" type="curve" smooth="yes"/>
      <point x="457.7104580129225" y="396.3326098752035"/>
      <point x="490.3793834097464" y="377.0"/>
      <point x="539.6554630771647" y="319.0" type="curve"/>
      <point x="573.670905858722" y="323.0"/>
      <point x="591.4633735080048" y="334.0"/>
      <point x="594.0019804618983" y="344.0" type="curve" smooth="yes"/>
      <point x="622.4343783455043" y="456.0"/>
      <point x="569.805005102881" y="552.0"/>
    </contour>
    <contour>
      <point x="293.62757290329324" y="-12.0" type="curve" smooth="yes"/>
      <point x="392.62757290329324" y="-12.0"/>
      <point x="528.2520603560591" y="85.0"/>
      <point x="588.4170451633327" y="322.0" type="curve" smooth="yes"/>
      <point x="594.0019804618983" y="344.0" type="line" smooth="yes"/>
      <point x="607.2027366221439" y="396.0"/>
      <point x="586.7808957302377" y="479.3326098752035"/>
      <point x="499.7808957302378" y="479.3326098752035" type="curve" smooth="yes"/>
      <point x="472.7808957302378" y="479.3326098752035"/>
      <point x="446.7191246040083" y="463.33260987520345"/>
      <point x="435.29539331148806" y="418.3326098752035" type="curve"/>
      <point x="448.7259007944799" y="400.33260987520345"/>
      <point x="447.6332441051357" y="378.0"/>
      <point x="430.37071681866064" y="310.0" type="curve" smooth="yes"/>
      <point x="427.5782491693779" y="299.0" type="line" smooth="yes"/>
      <point x="400.1612940673292" y="191.0"/>
      <point x="347.40648817163276" y="126.66739012479651"/>
      <point x="273.40648817163276" y="126.66739012479651" type="curve" smooth="yes"/>
      <point x="230.40648817163276" y="126.66739012479651"/>
      <point x="205.73756277480888" y="146.0"/>
      <point x="188.33794085493173" y="172.0" type="curve"/>
      <point x="167.72211999325154" y="142.0"/>
      <point x="153.5368066145632" y="94.0"/>
      <point x="167.41326436210434" y="62.0" type="curve" smooth="yes"/>
      <point x="183.2742793280881" y="26.0"/>
      <point x="225.6275729032932" y="-12.0"/>
    </contour>
  </outline>
</glyph>
<glyph name="v" format="1">
  <advance width="600.0"/>
  <unicode hex="0076"/>
  <outline>
    <contour>
      <point x="503.8050051028809" y="552.0" type="curve" smooth="yes"/>
      <point x="479.8050051028809" y="552.0" type="line"/>
      <point x="390.0705277785992" y="297.0"/>
      <point x="339.39971198116115" y="188.0"/>
      <point x="229.61402052235002" y="114.0" type="curve"/>
      <point x="197.02908522378453" y="92.0"/>
      <point x="201.1352942940719" y="-10.0"/>
      <point x="261.13529429407185" y="-10.0" type="curve"/>
      <point x="301.1352942940719" y="-10.0" type="line"/>
      <point x="423.7134534021658" y="75.0"/>
      <point x="540.9469855261403" y="265.0"/>
      <point x="615.0193136440697" y="478.0" type="curve"/>
      <point x="629.9353235458113" y="521.0"/>
      <point x="568.805005102881" y="552.0"/>
    </contour>
    <contour>
      <point x="158.84536082474227" y="552.0" type="curve" smooth="yes"/>
      <point x="134.84536082474227" y="552.0" type="line"/>
      <point x="94.09224091155724" y="296.0"/>
      <point x="99.43136190992946" y="129.0"/>
      <point x="167.81551817688552" y="37.0" type="curve"/>
      <point x="199.15029842647857" y="-5.0"/>
      <point x="229.3884970157352" y="-10.0"/>
      <point x="258.3884970157352" y="-10.0" type="curve" smooth="yes"/>
      <point x="269.38849701573525" y="-10.0" type="line" smooth="yes"/>
      <point x="307.3884970157352" y="-10.0"/>
      <point x="343.7683125339121" y="23.0"/>
      <point x="371.9571351058058" y="72.0" type="curve"/>
      <point x="364.9571351058058" y="72.0"/>
      <point x="361.9571351058058" y="72.0"/>
      <point x="354.9571351058058" y="72.0" type="curve" smooth="yes"/>
      <point x="346.9571351058057" y="72.0"/>
      <point x="337.7189365165491" y="75.0"/>
      <point x="326.76614215952253" y="86.0" type="curve"/>
      <point x="263.7639717851329" y="149.0"/>
      <point x="252.4742268041237" y="266.0"/>
      <point x="285.89473684210526" y="502.0" type="curve"/>
      <point x="290.51275094953877" y="530.0"/>
      <point x="223.84536082474224" y="552.0"/>
    </contour>
  </outline>
</glyph>
<glyph name="y" format="1">
  <advance width="600.0"/>
  <unicode hex="0079"/>
  <outline>
    <contour>
      <point x="534.7895623213235" y="548.0" type="curve" smooth="yes"/>
      <point x="517.7895623213235" y="548.0"/>
      <point x="487.89473684210526" y="546.0"/>
      <point x="474.37113402061857" y="540.0" type="curve"/>
      <point x="346.6223548562127" y="158.00000000000003"/>
      <point x="254.10309278350516" y="26.0"/>
      <point x="165.81985892566468" y="-44.0" type="curve" smooth="yes"/>
      <point x="113.15463917525773" y="-85.99999999999999"/>
      <point x="58.34563212154097" y="-100.99999999999999"/>
      <point x="10.345632121540973" y="-100.99999999999999" type="curve" smooth="yes"/>
      <point x="-14.654367878459027" y="-100.99999999999999" type="line"/>
      <point x="-15.416169289202372" y="-105.0" type="line" smooth="yes"/>
      <point x="-36.74660879001627" y="-188.0"/>
      <point x="-9.791272599369691" y="-250.0"/>
      <point x="44.208727400630295" y="-250.0" type="curve" smooth="yes"/>
      <point x="46.20872740063031" y="-250.0" type="line" smooth="yes"/>
      <point x="110.20872740063032" y="-250.0"/>
      <point x="177.57068756692118" y="-221.0"/>
      <point x="245.27916511794552" y="-167.0" type="curve" smooth="yes"/>
      <point x="378.18839882921554" y="-61.0"/>
      <point x="528.8765478088251" y="182.0"/>
      <point x="628.3040599025737" y="487.0" type="curve" smooth="yes"/>
      <point x="641.4584877181474" y="527.0"/>
      <point x="601.7895623213235" y="548.0"/>
    </contour>
    <contour>
      <point x="176.53570162593417" y="547.0" type="curve" smooth="yes"/>
      <point x="157.5357016259342" y="547.0"/>
      <point x="140.0279802351555" y="545.0"/>
      <point x="121.75867675820881" y="540.0" type="curve"/>
      <point x="72.4238213538043" y="259.0"/>
      <point x="93.75300555636625" y="150.0"/>
      <point x="146.72889618372312" y="79.0" type="curve" smooth="yes"/>
      <point x="179.55902558659216" y="35.0"/>
      <point x="224.95930548019533" y="15.332609875203472"/>
      <point x="281.9593054801953" y="15.332609875203472" type="curve" smooth="yes"/>
      <point x="288.9593054801953" y="15.332609875203472" type="line" smooth="yes"/>
      <point x="320.9593054801953" y="15.332609875203472"/>
      <point x="334.6266956049919" y="33.0"/>
      <point x="351.38632664134565" y="98.0" type="curve"/>
      <point x="331.433532284319" y="110.0" type="line"/>
      <point x="311.24253933803584" y="125.0"/>
      <point x="294.0515463917526" y="141.0"/>
      <point x="278.38415626695604" y="162.0" type="curve" smooth="yes"/>
      <point x="234.62018448182312" y="221.0"/>
      <point x="242.04503526858383" y="329.0"/>
      <point x="273.18231144872493" y="491.0" type="curve" smooth="yes"/>
      <point x="279.32392837764513" y="528.0"/>
      <point x="255.5357016259342" y="547.0"/>
    </contour>
  </outline>
</glyph>
<glyph name="registered" format="1">
  <advance width="600"/>
  <unicode hex="00AE"/>
  <outline>
    <contour>
      <point x="277" y="331" type="curve"/>
      <point x="272.0" y="355.0"/>
      <point x="270.0" y="379.0"/>
      <point x="270" y="404" type="curve"/>
      <point x="270" y="531" type="line"/>
      <point x="270.0" y="566.0"/>
      <point x="246.0" y="579.0"/>
      <point x="188" y="579" type="curve"/>
      <point x="188" y="361" type="line" smooth="yes"/>
      <point x="188.0" y="340.0"/>
      <point x="206" y="324.0"/>
      <point x="242" y="324" type="curve" smooth="yes"/>
      <point x="253.0" y="324.0"/>
      <point x="265.0" y="324.0"/>
    </contour>
    <contour>
      <point x="169" y="630" type="curve"/>
      <point x="165.0" y="620.0"/>
      <point x="163.0" y="609.0"/>
      <point x="163.0" y="594" type="curve"/>
      <point x="163.0" y="566.0"/>
      <point x="170.0" y="555.0"/>
      <point x="180" y="555" type="curve"/>
      <point x="184.0" y="555.0"/>
      <point x="189.0" y="556.0"/>
      <point x="197" y="558" type="curve" smooth="yes"/>
      <point x="225" y="563.0"/>
      <point x="265.0" y="566.0"/>
      <point x="293" y="566" type="curve" smooth="yes"/>
      <point x="337.0" y="566.0"/>
      <point x="356" y="563.0"/>
      <point x="378" y="549" type="curve"/>
      <point x="412.0" y="576.0"/>
      <point x="368.0" y="641.0"/>
      <point x="317" y="641" type="curve" smooth="yes"/>
      <point x="276.0" y="641.0"/>
      <point x="222.0" y="638.0"/>
    </contour>
    <contour>
      <point x="430.0" y="537" type="curve" smooth="yes"/>
      <point x="430" y="548" type="line" smooth="yes"/>
      <point x="430.0" y="592.0"/>
      <point x="398.0" y="641.0"/>
      <point x="317" y="641" type="curve"/>
      <point x="292.0" y="641.0"/>
      <point x="264.0" y="620.0"/>
      <point x="264.0" y="586" type="curve"/>
      <point x="329.0" y="586.0"/>
      <point x="349" y="574"/>
      <point x="349.0" y="545" type="curve" smooth="yes"/>
      <point x="349.0" y="539" type="line" smooth="yes"/>
      <point x="349.0" y="508.0"/>
      <point x="314.0" y="489.0"/>
      <point x="249" y="489" type="curve" smooth="yes"/>
      <point x="232" y="489.0"/>
      <point x="228.0" y="489.0"/>
      <point x="224" y="489" type="curve"/>
      <point x="222.0" y="481.0"/>
      <point x="221.0" y="475.0"/>
      <point x="221" y="458" type="curve" smooth="yes"/>
      <point x="221.0" y="438.0"/>
      <point x="227.0" y="417.0"/>
      <point x="250" y="417" type="curve" smooth="yes"/>
      <point x="252" y="417" type="line" smooth="yes"/>
      <point x="347.0" y="417"/>
      <point x="430.0" y="468.0"/>
    </contour>
    <contour>
      <point x="360" y="492" type="line"/>
      <point x="330.0" y="484.0"/>
      <point x="293.0" y="453.0"/>
      <point x="299" y="438" type="curve" smooth="yes"/>
      <point x="323" y="374" type="line" smooth="yes"/>
      <point x="335" y="344"/>
      <point x="357.0" y="324"/>
      <point x="386" y="324.0" type="curve" smooth="yes"/>
      <point x="391" y="324.0" type="line" smooth="yes"/>
      <point x="415.0" y="324.0"/>
      <point x="429.0" y="339"/>
      <point x="429.0" y="373.0" type="curve"/>
      <point x="429.0" y="388.0"/>
      <point x="428.0" y="397.0"/>
      <point x="424" y="408" type="curve"/>
      <point x="422" y="408" type="line"/>
      <point x="418.0" y="404.0"/>
      <point x="413.0" y="403.0"/>
      <point x="406" y="403.0" type="curve"/>
      <point x="397.0" y="403.0"/>
      <point x="392" y="406"/>
      <point x="382" y="432" type="curve" smooth="yes"/>
    </contour>
    <contour>
      <point x="300.0" y="760.0" type="curve" smooth="yes"/>
      <point x="136.0" y="760.0"/>
      <point x="42" y="672.0"/>
      <point x="42" y="498" type="curve" smooth="yes"/>
      <point x="42" y="473" type="line" smooth="yes"/>
      <point x="42" y="290.0"/>
      <point x="134.0" y="202.0"/>
      <point x="300.0" y="202.0" type="curve" smooth="yes"/>
      <point x="332.0" y="202.0"/>
      <point x="341.0" y="223.0"/>
      <point x="341" y="242" type="curve"/>
      <point x="189.0" y="242.0"/>
      <point x="100" y="306.0"/>
      <point x="100" y="458" type="curve" smooth="yes"/>
      <point x="100" y="504" type="line" smooth="yes"/>
      <point x="100" y="648.0"/>
      <point x="171.0" y="705.0"/>
      <point x="300.0" y="705" type="curve" smooth="yes"/>
      <point x="352.0" y="705.0"/>
      <point x="406.57355941293326" y="690.6500315446509"/>
      <point x="465" y="655" type="curve"/>
      <point x="493.23412655339956" y="707.5738908235717"/>
      <point x="378.0" y="760.0"/>
    </contour>
    <contour>
      <point x="300.0" y="202.0" type="curve" smooth="yes"/>
      <point x="464.0" y="202.0"/>
      <point x="558.0" y="291.0"/>
      <point x="558.0" y="464.0" type="curve" smooth="yes"/>
      <point x="558.0" y="489.0" type="line" smooth="yes"/>
      <point x="558.0" y="672.0"/>
      <point x="466.0" y="760.0"/>
      <point x="300.0" y="760.0" type="curve" smooth="yes"/>
      <point x="268.0" y="760.0"/>
      <point x="259.0" y="739.0"/>
      <point x="259.0" y="720.0" type="curve"/>
      <point x="411.0" y="720.0"/>
      <point x="500.0" y="656.0"/>
      <point x="500.0" y="504.0" type="curve" smooth="yes"/>
      <point x="500.0" y="458.0" type="line" smooth="yes"/>
      <point x="500.0" y="314.0"/>
      <point x="429.0" y="257.0"/>
      <point x="300.0" y="257.0" type="curve" smooth="yes"/>
      <point x="248.0" y="257.0"/>
      <point x="190.78166551220428" y="270.79084870260425"/>
      <point x="135.0" y="307.0" type="curve"/>
      <point x="114.67982722933648" y="250.87761806197696"/>
      <point x="222.0" y="202.0"/>
    </contour>
  </outline>
</glyph>
<glyph name="onequarter" format="1">
  <advance width="600.0"/>
  <unicode hex="00BC"/>
  <outline>
    <contour>
      <point x="223.0472056429734" y="399.8133478024959" type="curve"/>
      <point x="223.0472056429734" y="494.7639717851329"/>
      <point x="223.0472056429734" y="590.4291915355399"/>
      <point x="223.0472056429734" y="683.9034183396636" type="curve" smooth="yes"/>
      <point x="223.0472056429734" y="704.0472056429734"/>
      <point x="200.5214324470971" y="710.0"/>
      <point x="170.18448182311448" y="710.0" type="curve" smooth="yes"/>
      <point x="111.5729788388497" y="710.0" type="line"/>
      <point x="111.5729788388497" y="634.0021703743896"/>
      <point x="111.5729788388497" y="555.5279435702658"/>
      <point x="111.5729788388497" y="479.00651112316876" type="curve" smooth="yes"/>
      <point x="111.5729788388497" y="423.6223548562127"/>
      <point x="176.18882257189364" y="399.8133478024959"/>
    </contour>
    <contour>
      <point x="18.761801410743352" y="473.0" type="line"/>
      <point x="16.761801410743352" y="459.19099294628325"/>
      <point x="15.761801410743352" y="432.4313619099295"/>
      <point x="15.761801410743352" y="410.24253933803584" type="curve" smooth="yes"/>
      <point x="15.761801410743352" y="381.2381985892566"/>
      <point x="26.064004575821365" y="366.0"/>
      <point x="56.1953336950624" y="366.0" type="curve" smooth="yes"/>
      <point x="301.6180141074335" y="366.0" type="line"/>
      <point x="302.33260987520345" y="378.7618014107434"/>
      <point x="302.80900705371675" y="413.28323385784046"/>
      <point x="302.80900705371675" y="426.2360282148671" type="curve" smooth="yes"/>
      <point x="302.80900705371675" y="454.9527943570266"/>
      <point x="266.4313619099295" y="473.0"/>
      <point x="211.1953336950624" y="473.0" type="curve" smooth="yes"/>
    </contour>
    <contour>
      <point x="36.33695062398264" y="510.90775908844273" type="curve" smooth="yes"/>
      <point x="68.10092240911557" y="510.90775908844273"/>
      <point x="156.28757460661964" y="617.5729788388497"/>
      <point x="177.61801410743354" y="660.7618014107434" type="curve" smooth="yes"/>
      <point x="180.66521975040695" y="673.5729788388497"/>
      <point x="178.61801410743354" y="710.0"/>
      <point x="146.09224091155724" y="710.0" type="curve"/>
      <point x="101.76397178513294" y="710.0" type="line"/>
      <point x="79.5729788388497" y="667.9527943570266"/>
      <point x="50.28757460661964" y="638.0965816603364"/>
      <point x="12.858383071079764" y="619.3819858925665" type="curve"/>
      <point x="12.858383071079764" y="559.5301139446555" type="line" smooth="yes"/>
      <point x="12.858383071079764" y="523.9099294628323"/>
      <point x="25.049376017362995" y="510.90775908844273"/>
    </contour>
    <contour>
      <point x="369.14161692892026" y="123.37981551817688" type="curve"/>
      <point x="394.8540423223006" y="203.4742268041237"/>
      <point x="451.9034183396636" y="272.57080846446013"/>
      <point x="541.0944112859468" y="325.8068366793272" type="curve"/>
      <point x="541.0944112859468" y="328.8068366793272" type="line"/>
      <point x="515.2381985892566" y="338.57080846446013"/>
      <point x="462.90775908844273" y="342.4763971785133"/>
      <point x="423.5257731958763" y="342.4763971785133" type="curve" smooth="yes"/>
      <point x="398.0" y="342.4763971785133"/>
      <point x="386.3798155181769" y="335.2381985892566"/>
      <point x="372.2360282148671" y="321.0944112859468" type="curve" smooth="yes"/>
      <point x="327.9978296256104" y="279.9034183396636"/>
      <point x="289.2360282148671" y="215.66304937601737"/>
      <point x="289.2360282148671" y="159.09224091155724" type="curve" smooth="yes"/>
      <point x="289.2360282148671" y="138.75963103635377"/>
      <point x="326.3304395008139" y="123.37981551817688"/>
    </contour>
    <contour>
      <point x="587.2381985892566" y="69.5236028214867" type="line"/>
      <point x="589.4763971785133" y="86.90341833966359"/>
      <point x="590.4763971785133" y="118.71025501899078"/>
      <point x="590.4763971785133" y="136.32826912642432" type="curve" smooth="yes"/>
      <point x="590.4763971785133" y="156.09224091155724"/>
      <point x="583.4763971785133" y="173.8562126966902"/>
      <point x="557.4763971785133" y="173.8562126966902" type="curve" smooth="yes"/>
      <point x="502.23385784047747" y="173.8562126966902" type="line" smooth="yes"/>
      <point x="443.901247965274" y="173.8562126966902"/>
      <point x="391.6587086272382" y="170.99782962561042"/>
      <point x="289.2360282148671" y="159.09224091155724" type="curve"/>
      <point x="289.2360282148671" y="111.6695604991861" type="line" smooth="yes"/>
      <point x="289.2360282148671" y="95.81117742810635"/>
      <point x="305.3798155181769" y="69.5236028214867"/>
      <point x="325.0" y="69.5236028214867" type="curve" smooth="yes"/>
    </contour>
    <contour>
      <point x="548.3819858925665" y="-3.0" type="curve"/>
      <point x="543.3819858925665" y="16.0"/>
      <point x="541.3819858925665" y="25.905588714053174"/>
      <point x="541.3819858925665" y="45.905588714053174" type="curve" smooth="yes"/>
      <point x="541.3819858925665" y="196.9527943570266" type="line" smooth="yes"/>
      <point x="541.3819858925665" y="215.19099294628325"/>
      <point x="520.5708084644601" y="229.38198589256646"/>
      <point x="501.75963103635377" y="229.38198589256646" type="curve" smooth="yes"/>
      <point x="479.95279435702656" y="229.38198589256646" type="line"/>
      <point x="450.19099294628325" y="192.5257731958763"/>
      <point x="435.3819858925665" y="168.37981551817688"/>
      <point x="435.3819858925665" y="156.90124796527402" type="curve" smooth="yes"/>
      <point x="435.3819858925665" y="30.523602821486705" type="line" smooth="yes"/>
      <point x="435.3819858925665" y="3.7618014107433533"/>
      <point x="459.098752034726" y="-6.0"/>
      <point x="486.1953336950624" y="-6.0" type="curve" smooth="yes"/>
      <point x="504.2897449810092" y="-6.0"/>
      <point x="530.763971785133" y="-5.0"/>
    </contour>
    <component base="fraction"/>
  </outline>
</glyph>
<glyph name="onehalf" format="1">
  <advance width="600.0"/>
  <unicode hex="00BD"/>
  <outline>
    <contour>
      <point x="223.0472056429734" y="399.8133478024959" type="curve"/>
      <point x="223.0472056429734" y="494.7639717851329"/>
      <point x="223.0472056429734" y="590.4291915355399"/>
      <point x="223.0472056429734" y="683.9034183396636" type="curve" smooth="yes"/>
      <point x="223.0472056429734" y="704.0472056429734"/>
      <point x="200.5214324470971" y="710.0"/>
      <point x="170.18448182311448" y="710.0" type="curve" smooth="yes"/>
      <point x="111.5729788388497" y="710.0" type="line"/>
      <point x="111.5729788388497" y="634.0021703743896"/>
      <point x="111.5729788388497" y="555.5279435702658"/>
      <point x="111.5729788388497" y="479.00651112316876" type="curve" smooth="yes"/>
      <point x="111.5729788388497" y="423.6223548562127"/>
      <point x="176.18882257189364" y="399.8133478024959"/>
    </contour>
    <contour>
      <point x="18.047205642973413" y="473.0" type="line"/>
      <point x="16.523602821486705" y="460.6201844818231"/>
      <point x="15.761801410743352" y="435.2897449810092"/>
      <point x="15.761801410743352" y="414.2919153553988" type="curve" smooth="yes"/>
      <point x="15.761801410743352" y="381.34702736222"/>
      <point x="25.38198589256647" y="366.0"/>
      <point x="56.1953336950624" y="366.0" type="curve" smooth="yes"/>
      <point x="301.6180141074335" y="366.0" type="line"/>
      <point x="302.33260987520345" y="378.7618014107434"/>
      <point x="302.80900705371675" y="413.28323385784046"/>
      <point x="302.80900705371675" y="426.2360282148671" type="curve" smooth="yes"/>
      <point x="302.80900705371675" y="454.9527943570266"/>
      <point x="266.4313619099295" y="473.0"/>
      <point x="211.1953336950624" y="473.0" type="curve" smooth="yes"/>
    </contour>
    <contour>
      <point x="36.33695062398264" y="510.90775908844273" type="curve" smooth="yes"/>
      <point x="68.10092240911557" y="510.90775908844273"/>
      <point x="156.28757460661964" y="617.5729788388497"/>
      <point x="177.61801410743354" y="660.7618014107434" type="curve" smooth="yes"/>
      <point x="180.66521975040695" y="673.5729788388497"/>
      <point x="178.61801410743354" y="710.0"/>
      <point x="146.09224091155724" y="710.0" type="curve"/>
      <point x="101.76397178513294" y="710.0" type="line"/>
      <point x="79.5729788388497" y="667.9527943570266"/>
      <point x="50.28757460661964" y="638.0965816603364"/>
      <point x="12.858383071079764" y="619.3819858925665" type="curve"/>
      <point x="12.858383071079764" y="559.5301139446555" type="line" smooth="yes"/>
      <point x="12.858383071079764" y="523.9099294628323"/>
      <point x="25.049376017362995" y="510.90775908844273"/>
    </contour>
    <contour>
      <point x="418.19099294628325" y="245.5236028214867" type="curve" smooth="yes"/>
      <point x="461.33478024959305" y="245.5236028214867"/>
      <point x="470.8133478024959" y="238.09441128594682"/>
      <point x="477.9593054801953" y="212.90341833966357" type="curve"/>
      <point x="557.049376017363" y="221.33260987520347"/>
      <point x="573.4291915355399" y="238.09441128594682"/>
      <point x="573.4291915355399" y="249.33260987520347" type="curve" smooth="yes"/>
      <point x="573.4291915355399" y="297.04720564297344"/>
      <point x="546.4291915355399" y="342.0"/>
      <point x="439.57080846446013" y="342.0" type="curve" smooth="yes"/>
      <point x="372.95279435702656" y="342.0"/>
      <point x="330.95279435702656" y="332.7618014107434"/>
      <point x="314.4763971785133" y="316.28540423223006" type="curve" smooth="yes"/>
      <point x="304.80900705371675" y="306.6180141074335"/>
      <point x="301.80900705371675" y="292.4742268041237"/>
      <point x="301.80900705371675" y="274.3304395008139" type="curve" smooth="yes"/>
      <point x="301.80900705371675" y="256.5686380900705"/>
      <point x="303.04720564297344" y="233.90341833966357"/>
      <point x="305.28540423223006" y="219.09441128594682" type="curve"/>
      <point x="307.28540423223006" y="219.09441128594682" type="line"/>
      <point x="351.33260987520345" y="240.80900705371675"/>
      <point x="382.57080846446013" y="245.5236028214867"/>
    </contour>
    <contour>
      <point x="443.2875746066196" y="288.3304395008139" type="curve"/>
      <point x="452.33478024959305" y="268.4742268041237"/>
      <point x="455.6201844818231" y="249.0472056429734"/>
      <point x="455.6201844818231" y="234.23819858925665" type="curve" smooth="yes"/>
      <point x="455.6201844818231" y="226.28540423223006"/>
      <point x="449.42919153553987" y="216.47639717851328"/>
      <point x="392.71459576776994" y="198.5236028214867" type="curve" smooth="yes"/>
      <point x="311.6180141074335" y="174.14161692892023"/>
      <point x="290.7618014107434" y="131.75963103635377"/>
      <point x="290.7618014107434" y="79.99782962561042" type="curve" smooth="yes"/>
      <point x="290.7618014107434" y="68.3776451437873"/>
      <point x="296.95279435702656" y="68.85404232230059"/>
      <point x="393.6608790016278" y="68.85404232230059" type="curve"/>
      <point x="393.6608790016278" y="104.4742268041237"/>
      <point x="400.0428648941942" y="119.66739012479653"/>
      <point x="471.3304395008139" y="140.47639717851328" type="curve" smooth="yes"/>
      <point x="546.4763971785133" y="161.23819858925665"/>
      <point x="573.4291915355399" y="192.23819858925665"/>
      <point x="573.4291915355399" y="247.33260987520347" type="curve" smooth="yes"/>
      <point x="573.4291915355399" y="249.33260987520347" type="line" smooth="yes"/>
      <point x="573.4291915355399" y="278.66521975040695"/>
      <point x="537.5729788388497" y="291.9034183396636"/>
    </contour>
    <contour>
      <point x="574.4291915355399" y="0.0" type="line"/>
      <point x="576.6673901247965" y="19.332609875203474"/>
      <point x="577.9055887140531" y="49.80683667932718"/>
      <point x="577.9055887140531" y="69.3776451437873" type="curve" smooth="yes"/>
      <point x="577.9055887140531" y="100.57080846446013"/>
      <point x="562.9055887140531" y="110.4763971785133"/>
      <point x="515.9055887140531" y="110.4763971785133" type="curve" smooth="yes"/>
      <point x="472.2919153553988" y="110.4763971785133" type="line" smooth="yes"/>
      <point x="412.9571351058057" y="110.4763971785133"/>
      <point x="347.47856755290286" y="101.4763971785133"/>
      <point x="290.7618014107434" y="79.99782962561042" type="curve"/>
      <point x="290.7618014107434" y="69.09441128594682"/>
      <point x="290.7618014107434" y="57.42919153553988"/>
      <point x="290.7618014107434" y="46.52577319587629" type="curve" smooth="yes"/>
      <point x="290.7618014107434" y="22.14378730330982"/>
      <point x="307.2381985892566" y="0.0"/>
      <point x="328.95279435702656" y="0.0" type="curve" smooth="yes"/>
    </contour>
    <component base="fraction" xOffset="-7.618014107433532"/>
  </outline>
</glyph>
<glyph name="threequarters" format="1">
  <advance width="600.0"/>
  <unicode hex="00BE"/>
  <outline>
    <contour>
      <point x="155.61801410743354" y="609.0965816603364" type="curve" smooth="yes"/>
      <point x="196.76180141074335" y="609.0965816603364"/>
      <point x="208.09658166033643" y="596.1437873033099"/>
      <point x="208.09658166033643" y="584.28540423223" type="curve" smooth="yes"/>
      <point x="208.09658166033643" y="577.0472056429734"/>
      <point x="207.09658166033643" y="569.0"/>
      <point x="206.09658166033643" y="562.4763971785133" type="curve"/>
      <point x="256.8562126966902" y="564.4763971785133"/>
      <point x="313.950623982637" y="597.6673901247965"/>
      <point x="313.950623982637" y="621.0472056429734" type="curve" smooth="yes"/>
      <point x="313.950623982637" y="630.3326098752035" type="line" smooth="yes"/>
      <point x="313.950623982637" y="687.236028214867"/>
      <point x="252.0" y="711.0"/>
      <point x="173.80900705371675" y="711.0" type="curve"/>
      <point x="132.14161692892023" y="711.0"/>
      <point x="92.4270211611503" y="701.5236028214867"/>
      <point x="77.950623982637" y="687.0472056429734" type="curve" smooth="yes"/>
      <point x="65.52143244709713" y="674.6180141074335"/>
      <point x="61.04503526858383" y="662.4742268041238"/>
      <point x="61.04503526858383" y="643.8540423223006" type="curve" smooth="yes"/>
      <point x="61.04503526858383" y="623.5214324470971"/>
      <point x="62.04503526858383" y="595.0"/>
      <point x="66.28323385784047" y="577.4763971785133" type="curve"/>
      <point x="68.28323385784047" y="577.4763971785133" type="line"/>
      <point x="99.28323385784047" y="602.3819858925665"/>
      <point x="123.90341833966359" y="609.0965816603364"/>
    </contour>
    <contour>
      <point x="119.33478024959305" y="527.28540423223" type="curve" smooth="yes"/>
      <point x="272.61584373304396" y="527.28540423223"/>
      <point x="313.950623982637" y="580.1416169289203"/>
      <point x="313.950623982637" y="621.0472056429734" type="curve" smooth="yes"/>
      <point x="313.950623982637" y="634.3819858925665"/>
      <point x="283.3776451437873" y="644.3347802495931"/>
      <point x="208.43136190992948" y="644.3347802495931" type="curve"/>
      <point x="211.47856755290286" y="638.0021703743896"/>
      <point x="212.24036896364623" y="625.3369506239826"/>
      <point x="212.24036896364623" y="612.6717308735757" type="curve" smooth="yes"/>
      <point x="212.24036896364623" y="579.9055887140531"/>
      <point x="174.85838307107974" y="567.28540423223"/>
      <point x="99.33478024959305" y="567.28540423223" type="curve"/>
      <point x="97.33478024959305" y="560.8090070537168"/>
      <point x="96.33478024959305" y="552.0"/>
      <point x="96.33478024959305" y="542.28540423223" type="curve" smooth="yes"/>
      <point x="96.33478024959305" y="530.28540423223"/>
      <point x="114.33478024959305" y="527.28540423223"/>
    </contour>
    <contour>
      <point x="124.66739012479653" y="502.7618014107434" type="curve" smooth="yes"/>
      <point x="195.90341833966357" y="501.57080846446013"/>
      <point x="216.7167661421595" y="491.04503526858383"/>
      <point x="216.7167661421595" y="474.09007053716766" type="curve" smooth="yes"/>
      <point x="216.7167661421595" y="466.23385784047747"/>
      <point x="215.95496473141617" y="442.14161692892026"/>
      <point x="213.6695604991861" y="435.57080846446013" type="curve"/>
      <point x="288.61584373304396" y="435.57080846446013"/>
      <point x="318.18882257189364" y="441.7618014107434"/>
      <point x="318.18882257189364" y="454.57080846446013" type="curve" smooth="yes"/>
      <point x="318.18882257189364" y="531.7618014107434"/>
      <point x="249.18665219750406" y="547.0"/>
      <point x="101.62018448182312" y="547.0" type="curve"/>
      <point x="100.62018448182312" y="541.4763971785133"/>
      <point x="96.33478024959305" y="538.4291915355399"/>
      <point x="96.33478024959305" y="534.6673901247965" type="curve" smooth="yes"/>
      <point x="96.33478024959305" y="517.5708084644601"/>
      <point x="101.04937601736299" y="503.2381985892566"/>
    </contour>
    <contour>
      <point x="149.33478024959305" y="463.2360282148671" type="curve" smooth="yes"/>
      <point x="109.4763971785133" y="463.2360282148671"/>
      <point x="83.37981551817688" y="477.3304395008139"/>
      <point x="61.28323385784048" y="492.0944112859468" type="curve"/>
      <point x="59.28323385784048" y="492.0944112859468" type="line"/>
      <point x="52.521432447097126" y="464.6201844818231"/>
      <point x="50.521432447097126" y="438.1459576776994"/>
      <point x="50.521432447097126" y="414.5751492132393" type="curve" smooth="yes"/>
      <point x="50.521432447097126" y="397.5257731958763"/>
      <point x="51.47422680412371" y="389.3819858925665"/>
      <point x="61.66521975040695" y="379.19099294628325" type="curve" smooth="yes"/>
      <point x="73.33260987520347" y="367.7618014107434"/>
      <point x="107.09658166033641" y="357.0"/>
      <point x="176.09441128594682" y="357.0" type="curve" smooth="yes"/>
      <point x="257.28540423223006" y="357.0"/>
      <point x="318.18882257189364" y="391.19099294628325"/>
      <point x="318.18882257189364" y="448.0944112859468" type="curve" smooth="yes"/>
      <point x="318.18882257189364" y="454.57080846446013" type="line" smooth="yes"/>
      <point x="318.18882257189364" y="470.66739012479655"/>
      <point x="283.6180141074335" y="510.3776451437873"/>
      <point x="213.049376017363" y="510.8540423223006" type="curve"/>
      <point x="214.049376017363" y="505.8540423223006"/>
      <point x="215.049376017363" y="498.3304395008139"/>
      <point x="215.049376017363" y="492.3304395008139" type="curve" smooth="yes"/>
      <point x="215.049376017363" y="477.3304395008139"/>
      <point x="203.19099294628325" y="463.2360282148671"/>
    </contour>
    <contour>
      <point x="369.14161692892026" y="123.37981551817688" type="curve"/>
      <point x="394.8540423223006" y="203.4742268041237"/>
      <point x="451.9034183396636" y="272.57080846446013"/>
      <point x="541.0944112859468" y="325.8068366793272" type="curve"/>
      <point x="541.0944112859468" y="328.8068366793272" type="line"/>
      <point x="515.2381985892566" y="338.57080846446013"/>
      <point x="462.90775908844273" y="342.4763971785133"/>
      <point x="423.5257731958763" y="342.4763971785133" type="curve" smooth="yes"/>
      <point x="398.0" y="342.4763971785133"/>
      <point x="386.3798155181769" y="335.2381985892566"/>
      <point x="372.2360282148671" y="321.0944112859468" type="curve" smooth="yes"/>
      <point x="327.9978296256104" y="279.9034183396636"/>
      <point x="289.2360282148671" y="215.66304937601737"/>
      <point x="289.2360282148671" y="159.09224091155724" type="curve" smooth="yes"/>
      <point x="289.2360282148671" y="138.75963103635377"/>
      <point x="326.3304395008139" y="123.37981551817688"/>
    </contour>
    <contour>
      <point x="587.2381985892566" y="69.5236028214867" type="line"/>
      <point x="589.4763971785133" y="86.90341833966359"/>
      <point x="590.4763971785133" y="118.71025501899078"/>
      <point x="590.4763971785133" y="136.32826912642432" type="curve" smooth="yes"/>
      <point x="590.4763971785133" y="156.09224091155724"/>
      <point x="583.4763971785133" y="173.8562126966902"/>
      <point x="557.4763971785133" y="173.8562126966902" type="curve" smooth="yes"/>
      <point x="502.23385784047747" y="173.8562126966902" type="line" smooth="yes"/>
      <point x="421.80900705371675" y="173.8562126966902"/>
      <point x="387.08790016277806" y="171.75963103635377"/>
      <point x="289.2360282148671" y="159.09224091155724" type="curve"/>
      <point x="289.2360282148671" y="111.6695604991861" type="line" smooth="yes"/>
      <point x="289.2360282148671" y="95.81117742810635"/>
      <point x="305.3798155181769" y="69.5236028214867"/>
      <point x="325.0" y="69.5236028214867" type="curve" smooth="yes"/>
    </contour>
    <contour>
      <point x="548.3819858925665" y="-3.0" type="curve"/>
      <point x="543.3819858925665" y="16.0"/>
      <point x="541.3819858925665" y="25.905588714053174"/>
      <point x="541.3819858925665" y="45.905588714053174" type="curve" smooth="yes"/>
      <point x="541.3819858925665" y="192.38198589256646" type="line" smooth="yes"/>
      <point x="541.3819858925665" y="211.38198589256646"/>
      <point x="520.5708084644601" y="229.38198589256646"/>
      <point x="501.75963103635377" y="229.38198589256646" type="curve" smooth="yes"/>
      <point x="479.95279435702656" y="229.38198589256646" type="line"/>
      <point x="449.42919153553987" y="195.5729788388497"/>
      <point x="435.3819858925665" y="168.37981551817688"/>
      <point x="435.3819858925665" y="156.90124796527402" type="curve" smooth="yes"/>
      <point x="435.3819858925665" y="30.523602821486705" type="line" smooth="yes"/>
      <point x="435.3819858925665" y="3.7618014107433533"/>
      <point x="459.098752034726" y="-6.0"/>
      <point x="486.1953336950624" y="-6.0" type="curve" smooth="yes"/>
      <point x="504.2897449810092" y="-6.0"/>
      <point x="530.763971785133" y="-5.0"/>
    </contour>
    <component base="fraction"/>
  </outline>
</glyph>
<glyph name="Eth" format="1">
  <advance width="600"/>
  <unicode hex="00D0"/>
  <outline>
    <contour>
      <point x="5.0" y="390" type="line"/>
      <point x="5.0" y="386"/>
      <point x="5.0" y="382"/>
      <point x="5.0" y="377" type="curve" smooth="yes"/>
      <point x="5.0" y="302.0"/>
      <point x="17.0" y="288.0"/>
      <point x="50" y="288.0" type="curve" smooth="yes"/>
      <point x="316" y="288" type="line"/>
      <point x="318.0" y="302.0"/>
      <point x="320.0" y="318.0"/>
      <point x="320" y="331" type="curve" smooth="yes"/>
      <point x="320.0" y="375.0"/>
      <point x="308.0" y="390.0"/>
      <point x="270" y="390" type="curve"/>
    </contour>
    <component base="D"/>
  </outline>
</glyph>
<glyph name="eth" format="1">
  <advance width="600"/>
  <unicode hex="00F0"/>
  <outline>
    <contour>
      <point x="252" y="492.0" type="curve" smooth="yes"/>
      <point x="145.0" y="492.0"/>
      <point x="50" y="392.9401709401709"/>
      <point x="50" y="248" type="curve" smooth="yes"/>
      <point x="50" y="234" type="line" smooth="yes"/>
      <point x="50" y="64.875"/>
      <point x="163.0" y="-12.0"/>
      <point x="295" y="-12" type="curve" smooth="yes"/>
      <point x="329.0" y="-12.0"/>
      <point x="351.0" y="44.0"/>
      <point x="351" y="82" type="curve"/>
      <point x="249.0" y="82.0"/>
      <point x="195.0" y="103.11229946524065"/>
      <point x="195" y="229" type="curve" smooth="yes"/>
      <point x="195" y="236" type="line" smooth="yes"/>
      <point x="195.0" y="319.1698113207547"/>
      <point x="230.0" y="355.0"/>
      <point x="297" y="355.0" type="curve" smooth="yes"/>
      <point x="354.0" y="355.0"/>
      <point x="378" y="345"/>
      <point x="415" y="320" type="curve"/>
      <point x="430" y="332"/>
      <point x="437" y="348"/>
      <point x="437" y="366" type="curve" smooth="yes"/>
      <point x="437.0" y="422.0"/>
      <point x="367.0" y="492.0"/>
    </contour>
    <contour>
      <point x="295" y="-12" type="curve" smooth="yes"/>
      <point x="450.0" y="-12.0"/>
      <point x="550.0" y="86.0"/>
      <point x="550" y="272" type="curve" smooth="yes"/>
      <point x="550" y="286" type="line" smooth="yes"/>
      <point x="550.0" y="462.0"/>
      <point x="489" y="623"/>
      <point x="390" y="722" type="curve"/>
      <point x="358" y="754"/>
      <point x="330" y="770.0"/>
      <point x="295" y="770" type="curve"/>
      <point x="255" y="770.0"/>
      <point x="231" y="753.0"/>
      <point x="210" y="733" type="curve"/>
      <point x="210" y="729" type="line"/>
      <point x="342.0" y="600.0"/>
      <point x="405.0" y="468.0"/>
      <point x="405" y="264" type="curve" smooth="yes"/>
      <point x="405" y="254" type="line" smooth="yes"/>
      <point x="405.0" y="163.0"/>
      <point x="363.0" y="128.0"/>
      <point x="272" y="128" type="curve" smooth="yes"/>
      <point x="219" y="128"/>
      <point x="194" y="143.0"/>
      <point x="175" y="180" type="curve"/>
      <point x="100.0" y="100.0"/>
      <point x="180.0" y="-12.0"/>
    </contour>
    <contour>
      <point x="553.0" y="748" type="curve"/>
      <point x="381.0" y="700" type="line" smooth="yes"/>
      <point x="345" y="690"/>
      <point x="338" y="703"/>
      <point x="288.0" y="690" type="curve" smooth="yes"/>
      <point x="185.0" y="663" type="line" smooth="yes"/>
      <point x="130.0" y="648"/>
      <point x="120.0" y="629"/>
      <point x="120.0" y="600" type="curve" smooth="yes"/>
      <point x="120.0" y="582.0"/>
      <point x="123.0" y="563"/>
      <point x="127.0" y="545" type="curve"/>
      <point x="350.0" y="606" type="line" smooth="yes"/>
      <point x="387" y="616"/>
      <point x="401" y="602"/>
      <point x="435.0" y="612" type="curve" smooth="yes"/>
      <point x="484.0" y="626" type="line" smooth="yes"/>
      <point x="549" y="645"/>
      <point x="560.0" y="662"/>
      <point x="560.0" y="699" type="curve" smooth="yes"/>
      <point x="560.0" y="715.0"/>
      <point x="558.0" y="732"/>
    </contour>
  </outline>
</glyph>
<glyph name="dcaron" format="1">
  <advance width="600"/>
  <unicode hex="010F"/>
  <outline>
    <contour>
      <point x="250" y="552" type="curve" smooth="yes"/>
      <point x="151.0" y="552.0"/>
      <point x="40" y="455.0"/>
      <point x="40" y="218" type="curve" smooth="yes"/>
      <point x="40" y="196" type="line" smooth="yes"/>
      <point x="40" y="144"/>
      <point x="82" y="66"/>
      <point x="169" y="66" type="curve" smooth="yes"/>
      <point x="196.0" y="66.0"/>
      <point x="218.0" y="82.0"/>
      <point x="218" y="127" type="curve"/>
      <point x="200" y="145"/>
      <point x="195" y="162"/>
      <point x="195" y="230" type="curve" smooth="yes"/>
      <point x="195" y="241" type="line" smooth="yes"/>
      <point x="195" y="349.0"/>
      <point x="231.0" y="408.0"/>
      <point x="305" y="408" type="curve" smooth="yes"/>
      <point x="348.0" y="408.0"/>
      <point x="368.0" y="394.0"/>
      <point x="392" y="368" type="curve"/>
      <point x="405.0" y="398.0"/>
      <point x="407.0" y="446.0"/>
      <point x="385" y="478" type="curve" smooth="yes"/>
      <point x="360.0" y="514.0"/>
      <point x="318.0" y="552.0"/>
    </contour>
    <contour>
      <point x="195" y="-12" type="curve" smooth="yes"/>
      <point x="288.0" y="-12.0"/>
      <point x="374.0" y="79.0"/>
      <point x="398" y="177" type="curve" smooth="yes"/>
      <point x="410.0" y="226.0"/>
      <point x="404.0" y="296.0"/>
      <point x="386" y="334" type="curve"/>
      <point x="345.0" y="197.0"/>
      <point x="295.0" y="149.0"/>
      <point x="214" y="149" type="curve" smooth="yes"/>
      <point x="190" y="149"/>
      <point x="152" y="163"/>
      <point x="88" y="221" type="curve"/>
      <point x="55.0" y="217.0"/>
      <point x="40.0" y="206.0"/>
      <point x="40" y="196" type="curve" smooth="yes"/>
      <point x="40.0" y="84.0"/>
      <point x="117.0" y="-12.0"/>
    </contour>
    <contour>
      <point x="324" y="750" type="curve"/>
      <point x="332" y="714"/>
      <point x="335" y="684"/>
      <point x="335" y="646" type="curve" smooth="yes"/>
      <point x="335" y="213" type="line"/>
      <point x="335" y="119"/>
      <point x="362" y="54"/>
      <point x="391" y="25" type="curve" smooth="yes"/>
      <point x="411" y="5"/>
      <point x="435" y="-4"/>
      <point x="460" y="-4" type="curve" smooth="yes"/>
      <point x="474.0" y="-4.0"/>
      <point x="484.0" y="-3.0"/>
      <point x="498" y="0" type="curve"/>
      <point x="489.0" y="36.0"/>
      <point x="485" y="67"/>
      <point x="485" y="106" type="curve" smooth="yes"/>
      <point x="485" y="694" type="line"/>
      <point x="485" y="711"/>
      <point x="480" y="724"/>
      <point x="471" y="733" type="curve" smooth="yes"/>
      <point x="452" y="752"/>
      <point x="426" y="756"/>
      <point x="387" y="756" type="curve" smooth="yes"/>
      <point x="364.0" y="756.0"/>
      <point x="342.0" y="754.0"/>
    </contour>
    <contour>
      <point x="553" y="494" type="curve" smooth="yes"/>
      <point x="573" y="494"/>
      <point x="580.0" y="497.0"/>
      <point x="591" y="508" type="curve" smooth="yes"/>
      <point x="620.0" y="537.0"/>
      <point x="633.0" y="604.0"/>
      <point x="633" y="662" type="curve"/>
      <point x="633.0" y="702.0"/>
      <point x="619.0" y="721.0"/>
      <point x="570" y="721" type="curve" smooth="yes"/>
      <point x="551.0" y="721.0"/>
      <point x="536.0" y="719.0"/>
      <point x="513" y="712" type="curve"/>
      <point x="513.0" y="621.0"/>
      <point x="513" y="575"/>
      <point x="513" y="502" type="curve"/>
      <point x="522.0" y="497.0"/>
      <point x="538.0" y="494.0"/>
    </contour>
  </outline>
</glyph>
<glyph name="Hbar" format="1">
  <advance width="650"/>
  <unicode hex="0126"/>
  <outline>
    <contour>
      <point x="15" y="590" type="line"/>
      <point x="15.0" y="586.0"/>
      <point x="15.0" y="582.0"/>
      <point x="15" y="577" type="curve" smooth="yes"/>
      <point x="15" y="502.0"/>
      <point x="27" y="488"/>
      <point x="60" y="488" type="curve" smooth="yes"/>
      <point x="631" y="488" type="line"/>
      <point x="633.0" y="502.0"/>
      <point x="635.0" y="518"/>
      <point x="635" y="531" type="curve" smooth="yes"/>
      <point x="635.0" y="575.0"/>
      <point x="623.0" y="590.0"/>
      <point x="585" y="590" type="curve" smooth="yes"/>
    </contour>
    <component base="H"/>
  </outline>
</glyph>
<glyph name="hbar" format="1">
  <advance width="600"/>
  <unicode hex="0127"/>
  <outline>
    <contour>
      <point x="20.0" y="690" type="line"/>
      <point x="20.0" y="686"/>
      <point x="20.0" y="682"/>
      <point x="20.0" y="677" type="curve" smooth="yes"/>
      <point x="20.0" y="602.0"/>
      <point x="32.0" y="588.0"/>
      <point x="65" y="588.0" type="curve" smooth="yes"/>
      <point x="376" y="588" type="line"/>
      <point x="378.0" y="602"/>
      <point x="380.0" y="618"/>
      <point x="380" y="631" type="curve" smooth="yes"/>
      <point x="380.0" y="675.0"/>
      <point x="373.0" y="690.0"/>
      <point x="350" y="690" type="curve"/>
    </contour>
    <component base="h"/>
  </outline>
</glyph>
<glyph name="Ldot" format="1">
  <advance width="600"/>
  <unicode hex="013F"/>
  <outline>
    <contour>
      <point x="518" y="328" type="curve"/>
      <point x="518" y="423" type="line" smooth="yes"/>
      <point x="518.0" y="477.0"/>
      <point x="477.0" y="485.0"/>
      <point x="426" y="485" type="curve" smooth="yes"/>
      <point x="403.0" y="485.0"/>
      <point x="373.0" y="483.0"/>
      <point x="348" y="479" type="curve"/>
      <point x="348" y="384" type="line" smooth="yes"/>
      <point x="348.0" y="330.0"/>
      <point x="389" y="322.0"/>
      <point x="440" y="322" type="curve" smooth="yes"/>
      <point x="463.0" y="322.0"/>
      <point x="493.0" y="324.0"/>
    </contour>
    <component base="L"/>
  </outline>
</glyph>
<glyph name="OE" format="1">
  <advance width="800"/>
  <unicode hex="0152"/>
  <outline>
    <contour>
      <point x="256" y="710.0" type="curve" smooth="yes"/>
      <point x="128.0" y="710.0"/>
      <point x="50" y="588.0"/>
      <point x="50" y="342" type="curve" smooth="yes"/>
      <point x="50" y="326" type="line" smooth="yes"/>
      <point x="50" y="93.0"/>
      <point x="122.0" y="-10.0"/>
      <point x="258" y="-10.0" type="curve" smooth="yes"/>
      <point x="368.0" y="-10.0"/>
      <point x="423.0" y="64.0"/>
      <point x="423.0" y="182" type="curve" smooth="yes"/>
      <point x="423.0" y="202.0"/>
      <point x="419.0" y="215.0"/>
      <point x="395.0" y="230" type="curve"/>
      <point x="364.0" y="145.0"/>
      <point x="339.0" y="123.0"/>
      <point x="287.0" y="123.0" type="curve" smooth="yes"/>
      <point x="234.0" y="123.0"/>
      <point x="200" y="169.0"/>
      <point x="200" y="299" type="curve" smooth="yes"/>
      <point x="200" y="312" type="line" smooth="yes"/>
      <point x="200" y="483.6730038022814"/>
      <point x="234.0" y="570.0"/>
      <point x="287.0" y="570.0" type="curve" smooth="yes"/>
      <point x="341.97391304347826" y="570.0"/>
      <point x="364.3034587455491" y="545.3646332515066"/>
      <point x="396.0" y="479" type="curve"/>
      <point x="410.3072704097316" y="489.0150892868121"/>
      <point x="412.0" y="500.0"/>
      <point x="412.0" y="515" type="curve" smooth="yes"/>
      <point x="412.0" y="663.0"/>
      <point x="325.0" y="710.0"/>
    </contour>
    <contour>
      <point x="525.0" y="85.0" type="curve"/>
      <point x="525.0" y="557.0" type="line" smooth="yes"/>
      <point x="525.0" y="638.0"/>
      <point x="490.0" y="684.0"/>
      <point x="385.0" y="684.0" type="curve"/>
      <point x="385.0" y="140.0" type="line"/>
      <point x="385.0" y="97.0"/>
      <point x="452.0" y="85.0"/>
    </contour>
    <contour>
      <point x="385" y="700" type="line"/>
      <point x="385" y="675" type="line" smooth="yes"/>
      <point x="385.0" y="615.0"/>
      <point x="453.0" y="550.0"/>
      <point x="482" y="550" type="curve" smooth="yes"/>
      <point x="750" y="550" type="line"/>
      <point x="755.0" y="564.0"/>
      <point x="757.0" y="583.0"/>
      <point x="757.0" y="604" type="curve" smooth="yes"/>
      <point x="757.0" y="625.0"/>
      <point x="752" y="669"/>
      <point x="733" y="688" type="curve" smooth="yes"/>
      <point x="723" y="698"/>
      <point x="716.0" y="700.0"/>
      <point x="699" y="700.0" type="curve"/>
    </contour>
    <contour>
      <point x="484" y="370" type="line"/>
      <point x="484" y="354" type="line"/>
      <point x="484.0" y="275"/>
      <point x="496.0" y="240.0"/>
      <point x="529" y="240" type="curve" smooth="yes"/>
      <point x="722" y="240" type="line"/>
      <point x="725.0" y="252"/>
      <point x="727.0" y="266.0"/>
      <point x="727.0" y="282" type="curve" smooth="yes"/>
      <point x="727.0" y="329.0"/>
      <point x="712.0" y="370.0"/>
      <point x="666" y="370" type="curve"/>
    </contour>
    <contour>
      <point x="385.0" y="150.0" type="line"/>
      <point x="385.0" y="132" type="line" smooth="yes"/>
      <point x="385" y="64"/>
      <point x="424.0" y="0"/>
      <point x="480" y="0.0" type="curve" smooth="yes"/>
      <point x="751.0" y="0.0" type="line"/>
      <point x="755.0" y="15"/>
      <point x="757.0" y="35"/>
      <point x="757.0" y="58.0" type="curve" smooth="yes"/>
      <point x="757.0" y="124.0"/>
      <point x="739.0" y="150.0"/>
      <point x="695.0" y="150.0" type="curve" smooth="yes"/>
    </contour>
  </outline>
</glyph>
<glyph name="oe" format="1">
  <advance width="850"/>
  <unicode hex="0153"/>
  <outline>
    <contour>
      <point x="267.0" y="552.0" type="curve" smooth="yes"/>
      <point x="136.0" y="552.0"/>
      <point x="46.0" y="433.0"/>
      <point x="46.0" y="258.0" type="curve" smooth="yes"/>
      <point x="46.0" y="244.0" type="line" smooth="yes"/>
      <point x="46.0" y="68.0"/>
      <point x="146.5469387755102" y="-12.0"/>
      <point x="264.0" y="-12.0" type="curve" smooth="yes"/>
      <point x="314.3928571428571" y="-12.0"/>
      <point x="347.0" y="22.125"/>
      <point x="347.0" y="72.0" type="curve"/>
      <point x="245.0" y="72.0"/>
      <point x="191.0" y="120.22459893048129"/>
      <point x="191.0" y="239.0" type="curve" smooth="yes"/>
      <point x="191.0" y="246.0" type="line" smooth="yes"/>
      <point x="191.0" y="365.0"/>
      <point x="218.0" y="412.0"/>
      <point x="275.0" y="412.0" type="curve" smooth="yes"/>
      <point x="324.609756097561" y="412.0"/>
      <point x="359.0" y="391.0"/>
      <point x="388.0" y="341.0" type="curve"/>
      <point x="498.0" y="402.0"/>
      <point x="387.0" y="552.0"/>
    </contour>
    <contour>
      <point x="264.0" y="-12.0" type="curve" smooth="yes"/>
      <point x="399.0" y="-12.0"/>
      <point x="495.0" y="103.0"/>
      <point x="495.0" y="242.0" type="curve" smooth="yes"/>
      <point x="495.0" y="286.0" type="line" smooth="yes"/>
      <point x="495.0" y="465.0"/>
      <point x="378.0" y="552.0"/>
      <point x="267.0" y="552.0" type="curve" smooth="yes"/>
      <point x="239.0" y="552.0"/>
      <point x="221.0" y="513.8125"/>
      <point x="221.0" y="458.0" type="curve"/>
      <point x="305.0" y="458.0"/>
      <point x="350.0" y="403.66972477064223"/>
      <point x="350.0" y="270.0" type="curve" smooth="yes"/>
      <point x="350.0" y="201.0" type="line" smooth="yes"/>
      <point x="350.0" y="148.27777777777777"/>
      <point x="323.71794871794873" y="128.0"/>
      <point x="268.0" y="128.0" type="curve" smooth="yes"/>
      <point x="215.0" y="128.0"/>
      <point x="191.0" y="141.0"/>
      <point x="151.0" y="169.0" type="curve"/>
      <point x="97.38656670579812" y="115.38656670579812"/>
      <point x="171.0" y="-12.0"/>
    </contour>
    <contour>
      <point x="596.0" y="209.0" type="line" smooth="yes"/>
      <point x="729" y="209"/>
      <point x="808" y="255"/>
      <point x="808.0" y="356.0" type="curve" smooth="yes"/>
      <point x="808.0" y="372.0" type="line" smooth="yes"/>
      <point x="808" y="479.0"/>
      <point x="721.0" y="552.0"/>
      <point x="619.0" y="552.0" type="curve" smooth="yes"/>
      <point x="577.0" y="552.0"/>
      <point x="563.0" y="532.0"/>
      <point x="563" y="457" type="curve"/>
      <point x="627" y="457.0"/>
      <point x="655" y="420.0"/>
      <point x="655.0" y="369.0" type="curve" smooth="yes"/>
      <point x="655.0" y="357.0" type="line" smooth="yes"/>
      <point x="655" y="319"/>
      <point x="623" y="304.0"/>
      <point x="554.0" y="304.0" type="curve" smooth="yes"/>
      <point x="514" y="304.0"/>
      <point x="490" y="305.0"/>
      <point x="451" y="317" type="curve"/>
      <point x="445.0" y="275"/>
      <point x="451" y="250"/>
      <point x="466.0" y="235.0" type="curve" smooth="yes"/>
      <point x="485" y="216"/>
      <point x="533.0" y="209.0"/>
      <point x="586.0" y="209.0" type="curve" smooth="yes"/>
    </contour>
    <contour>
      <point x="602" y="412" type="curve" smooth="yes"/>
      <point x="641" y="412.0"/>
      <point x="665.0" y="405.0"/>
      <point x="690" y="387" type="curve"/>
      <point x="762.0" y="494.0"/>
      <point x="697.0" y="552.0"/>
      <point x="619" y="552" type="curve"/>
      <point x="460.0" y="552.0"/>
      <point x="362" y="439.0"/>
      <point x="362" y="246" type="curve" smooth="yes"/>
      <point x="362.0" y="228" type="line" smooth="yes"/>
      <point x="362.0" y="88.0"/>
      <point x="450.0" y="-12"/>
      <point x="628" y="-12" type="curve" smooth="yes"/>
      <point x="636.0" y="-12.0"/>
      <point x="655.0" y="6.0"/>
      <point x="655" y="78" type="curve"/>
      <point x="562.0" y="79.0"/>
      <point x="502.0" y="129.0"/>
      <point x="502.0" y="203" type="curve" smooth="yes"/>
      <point x="502.0" y="267" type="line" smooth="yes"/>
      <point x="502" y="377.0"/>
      <point x="530.0" y="412.0"/>
    </contour>
    <contour>
      <point x="762" y="23" type="curve" smooth="yes"/>
      <point x="784" y="45"/>
      <point x="794.0" y="73.0"/>
      <point x="794" y="102" type="curve" smooth="yes"/>
      <point x="794" y="132"/>
      <point x="791" y="151"/>
      <point x="787" y="167" type="curve"/>
      <point x="783" y="167" type="line"/>
      <point x="736.0" y="136.0"/>
      <point x="688.0" y="120.0"/>
      <point x="624" y="120" type="curve" smooth="yes"/>
      <point x="560.0" y="120.0"/>
      <point x="520.0" y="136.0"/>
      <point x="481" y="167" type="curve"/>
      <point x="457.0" y="90.0"/>
      <point x="499" y="-12.0"/>
      <point x="628" y="-12" type="curve" smooth="yes"/>
      <point x="683" y="-12.0"/>
      <point x="739.0" y="0.0"/>
    </contour>
  </outline>
</glyph>
<glyph name="brevecomb" format="1">
  <unicode hex="0306"/>
  <outline>
    <contour>
      <point x="-101" y="808.0" type="curve"/>
      <point x="-126.0" y="807.0"/>
      <point x="-151" y="801.0"/>
      <point x="-172" y="788" type="curve"/>
      <point x="-184" y="780"/>
      <point x="-186" y="765"/>
      <point x="-181" y="750" type="curve" smooth="yes"/>
      <point x="-152.0" y="669.0"/>
      <point x="-93.0" y="626.0"/>
      <point x="-4" y="626.0" type="curve" smooth="yes"/>
      <point x="0.0" y="626.0" type="line"/>
      <point x="30.0" y="626.0"/>
      <point x="54.0" y="677.0"/>
      <point x="43.0" y="738" type="curve"/>
      <point x="-28.0" y="738.0"/>
      <point x="-79" y="739"/>
    </contour>
    <contour>
      <point x="101" y="808.0" type="curve"/>
      <point x="79" y="739"/>
      <point x="28.0" y="738.0"/>
      <point x="-43.0" y="738.0" type="curve"/>
      <point x="-54.0" y="677.0"/>
      <point x="-30.0" y="626.0"/>
      <point x="0.0" y="626.0" type="curve"/>
      <point x="4.0" y="626.0" type="line" smooth="yes"/>
      <point x="93.0" y="626.0"/>
      <point x="152.0" y="669.0"/>
      <point x="181" y="750" type="curve" smooth="yes"/>
      <point x="186" y="765"/>
      <point x="184" y="780"/>
      <point x="172" y="788" type="curve"/>
      <point x="151" y="801.0"/>
      <point x="126.0" y="807.0"/>
    </contour>
    <contour>
      <point x="0" y="549" type="move" name="_top"/>
    </contour>
  </outline>
</glyph>
<glyph name="ringcomb" format="1">
  <unicode hex="030A"/>
  <outline>
    <contour>
      <point x="17.0" y="658.0" type="curve"/>
      <point x="-23.0" y="658.0"/>
      <point x="-48" y="693.0"/>
      <point x="-48.0" y="734.0" type="curve" smooth="yes"/>
      <point x="-48.0" y="741.0" type="line" smooth="yes"/>
      <point x="-48" y="772.0"/>
      <point x="-29.0" y="790.0"/>
      <point x="3.0" y="790.0" type="curve" smooth="yes"/>
      <point x="24.0" y="790.0"/>
      <point x="37.0" y="782.0"/>
      <point x="54.0" y="761.0" type="curve"/>
      <point x="75.0" y="810.0"/>
      <point x="51.0" y="868.0"/>
      <point x="3.0" y="868.0" type="curve"/>
      <point x="-79.0" y="868.0"/>
      <point x="-139.0" y="812.0"/>
      <point x="-139.0" y="731.0" type="curve" smooth="yes"/>
      <point x="-139.0" y="724.0" type="line" smooth="yes"/>
      <point x="-139.0" y="644"/>
      <point x="-81.0" y="592.0"/>
      <point x="-3.0" y="592.0" type="curve"/>
      <point x="13.0" y="592.0"/>
      <point x="17.0" y="617.0"/>
    </contour>
    <contour>
      <point x="-17.0" y="803.0" type="curve"/>
      <point x="23.0" y="803.0"/>
      <point x="48" y="782.0"/>
      <point x="48.0" y="747.0" type="curve" smooth="yes"/>
      <point x="48.0" y="740.0" type="line" smooth="yes"/>
      <point x="48.0" y="714.0"/>
      <point x="28.0" y="695.0"/>
      <point x="0.0" y="695.0" type="curve" smooth="yes"/>
      <point x="-23.0" y="695.0"/>
      <point x="-39.0" y="700"/>
      <point x="-54.0" y="720.0" type="curve"/>
      <point x="-75.0" y="671.0"/>
      <point x="-51.0" y="592.0"/>
      <point x="-3.0" y="592.0" type="curve"/>
      <point x="79.0" y="592.0"/>
      <point x="139.0" y="649"/>
      <point x="139.0" y="730.0" type="curve" smooth="yes"/>
      <point x="139.0" y="737.0" type="line" smooth="yes"/>
      <point x="139.0" y="816.0"/>
      <point x="81.0" y="868.0"/>
      <point x="3.0" y="868.0" type="curve"/>
      <point x="-13.0" y="868.0"/>
      <point x="-17.0" y="862.0"/>
    </contour>
    <contour>
      <point x="0" y="549" type="move" name="_top"/>
    </contour>
    <contour>
      <point x="0" y="852" type="move" name="top"/>
    </contour>
    <contour>
      <point x="0" y="568" type="move" name="_ring"/>
    </contour>
  </outline>
</glyph>
<glyph name="commaaboverightcomb" format="1">
  <unicode hex="0315"/>
  <outline>
    <contour>
      <point x="-19.0" y="513.0" type="curve" smooth="yes"/>
      <point x="1.0" y="513.0"/>
      <point x="11.0" y="516.0"/>
      <point x="24" y="529" type="curve" smooth="yes"/>
      <point x="60" y="565"/>
      <point x="73.0" y="619.0"/>
      <point x="73.0" y="673" type="curve" smooth="yes"/>
      <point x="73.0" y="701"/>
      <point x="46.0" y="720.0"/>
      <point x="-3" y="720.0" type="curve" smooth="yes"/>
      <point x="-22.0" y="720.0"/>
      <point x="-37" y="718.0"/>
      <point x="-60" y="711.0" type="curve"/>
      <point x="-60.0" y="620.0"/>
      <point x="-63.0" y="594.0"/>
      <point x="-76.0" y="525.0" type="curve"/>
      <point x="-59" y="516.0"/>
      <point x="-45.0" y="513.0"/>
    </contour>
    <contour>
      <point x="0" y="611" type="move" name="_caronslovak"/>
    </contour>
  </outline>
</glyph>
<glyph name="quoteleft" format="1">
  <advance width="350.0"/>
  <unicode hex="2018"/>
  <outline>
    <contour>
      <point x="251.7959432775909" y="708.5729788388497" type="curve" smooth="yes"/>
      <point x="238.41395738502445" y="708.5729788388497"/>
      <point x="231.50836867097127" y="706.0965816603364"/>
      <point x="224.31737572468802" y="698.9055887140531" type="curve"/>
      <point x="172.41178701063484" y="627.9549647314162"/>
      <point x="114.31737572468802" y="483.433532284319"/>
      <point x="124.22079406435162" y="368.67607162235487" type="curve"/>
      <point x="124.22079406435162" y="332.75236804454397"/>
      <point x="153.67683246021062" y="324.1953336950624"/>
      <point x="188.03848261562672" y="324.1953336950624" type="curve" smooth="yes"/>
      <point x="250.366751742051" y="324.1953336950624"/>
      <point x="289.4589926536083" y="326.1953336950624"/>
      <point x="355.78726178003257" y="331.9571351058057" type="curve"/>
      <point x="355.78726178003257" y="494.95279435702656"/>
      <point x="374.4546519048291" y="582.9077590884427"/>
      <point x="431.3580702444927" y="691.8562126966901" type="curve"/>
      <point x="382.07483638665224" y="703.9055887140531"/>
      <point x="330.26799970732503" y="708.5729788388497"/>
    </contour>
  </outline>
</glyph>
<glyph name="uni2126" format="1">
  <advance width="600"/>
  <unicode hex="2126"/>
  <outline>
    <contour>
      <point x="40" y="150" type="line"/>
      <point x="40.0" y="144.0"/>
      <point x="40.0" y="138.0"/>
      <point x="40" y="131" type="curve"/>
      <point x="40.0" y="31.0"/>
      <point x="66.0" y="0.0"/>
      <point x="147" y="0" type="curve"/>
      <point x="260" y="0" type="line"/>
      <point x="264.0" y="21.0"/>
      <point x="267.0" y="44.0"/>
      <point x="267" y="63" type="curve" smooth="yes"/>
      <point x="267.0" y="129.0"/>
      <point x="256.1320754716981" y="150.0"/>
      <point x="219" y="150" type="curve"/>
    </contour>
    <contour>
      <point x="296" y="720" type="curve" smooth="yes"/>
      <point x="150.0" y="720.0"/>
      <point x="50" y="602"/>
      <point x="50" y="382" type="curve" smooth="yes"/>
      <point x="50" y="366" type="line" smooth="yes"/>
      <point x="50" y="207"/>
      <point x="116.0" y="133.0"/>
      <point x="220" y="133" type="curve"/>
      <point x="231.0" y="133.0"/>
      <point x="239.0" y="135.0"/>
      <point x="239" y="142" type="curve"/>
      <point x="204.0" y="161.0"/>
      <point x="200" y="206.0"/>
      <point x="200" y="339" type="curve" smooth="yes"/>
      <point x="200" y="352" type="line" smooth="yes"/>
      <point x="200" y="494"/>
      <point x="236.0" y="571.0"/>
      <point x="308" y="571" type="curve" smooth="yes"/>
      <point x="349" y="571"/>
      <point x="378" y="556"/>
      <point x="417" y="520" type="curve"/>
      <point x="477" y="575"/>
      <point x="394" y="720"/>
    </contour>
    <contour>
      <point x="358" y="127" type="curve" smooth="yes"/>
      <point x="474.0" y="127.0"/>
      <point x="550" y="216"/>
      <point x="550" y="398" type="curve" smooth="yes"/>
      <point x="550" y="414" type="line" smooth="yes"/>
      <point x="550" y="620"/>
      <point x="461.0" y="720.0"/>
      <point x="296" y="720" type="curve" smooth="yes"/>
      <point x="253" y="720"/>
      <point x="225" y="672"/>
      <point x="225" y="602" type="curve"/>
      <point x="352.0" y="602.0"/>
      <point x="400" y="554"/>
      <point x="400" y="441" type="curve" smooth="yes"/>
      <point x="400" y="428" type="line" smooth="yes"/>
      <point x="400" y="216.0"/>
      <point x="386" y="150.0"/>
      <point x="346" y="136" type="curve"/>
      <point x="344.0" y="131.0"/>
      <point x="345.0" y="127.0"/>
    </contour>
    <contour>
      <point x="345" y="150" type="line"/>
      <point x="338.0" y="133.0"/>
      <point x="335.0" y="118.0"/>
      <point x="335.0" y="93" type="curve"/>
      <point x="335.0" y="31.0"/>
      <point x="360.0" y="0.0"/>
      <point x="437" y="0" type="curve"/>
      <point x="555" y="0" type="line"/>
      <point x="559.0" y="21.0"/>
      <point x="562.0" y="44.0"/>
      <point x="562" y="63" type="curve" smooth="yes"/>
      <point x="562.0" y="129.0"/>
      <point x="550" y="150"/>
      <point x="509" y="150" type="curve"/>
    </contour>
  </outline>
</glyph>
<glyph name="estimated" format="1">
  <advance width="600"/>
  <unicode hex="212E"/>
  <outline>
    <contour>
      <point x="337" y="203" type="line" smooth="yes"/>
      <point x="503.11961722488036" y="203.0"/>
      <point x="550.0" y="234.7826086956522"/>
      <point x="550.0" y="332" type="curve" smooth="yes"/>
      <point x="550.0" y="336" type="line" smooth="yes"/>
      <point x="550.0" y="471.6521739130435"/>
      <point x="464.11374407582935" y="552.0"/>
      <point x="329" y="552" type="curve" smooth="yes"/>
      <point x="300.0" y="552.0"/>
      <point x="279.0" y="531.0"/>
      <point x="279" y="499" type="curve"/>
      <point x="358.0" y="499.0"/>
      <point x="391.0" y="470.0"/>
      <point x="391.0" y="404" type="curve" smooth="yes"/>
      <point x="391.0" y="332" type="line" smooth="yes"/>
      <point x="391.0" y="292.0"/>
      <point x="362.29896907216494" y="284.0"/>
      <point x="295" y="284" type="curve" smooth="yes"/>
      <point x="223.0" y="284.0"/>
      <point x="190.0" y="290.0"/>
      <point x="166" y="298" type="curve"/>
      <point x="164.0" y="270.0"/>
      <point x="166.38553984025975" y="257.61446015974025"/>
      <point x="191" y="233" type="curve" smooth="yes"/>
      <point x="209.07873582539236" y="215.1931248637113"/>
      <point x="248.0" y="203.0"/>
      <point x="325" y="203.0" type="curve" smooth="yes"/>
    </contour>
    <contour>
      <point x="317" y="474.0" type="curve" smooth="yes"/>
      <point x="363" y="474.0"/>
      <point x="380" y="467.0"/>
      <point x="405" y="452" type="curve"/>
      <point x="462.0" y="496.0"/>
      <point x="396.0" y="552.0"/>
      <point x="329" y="552" type="curve"/>
      <point x="155.0" y="552.0"/>
      <point x="50" y="431.0"/>
      <point x="50.0" y="262" type="curve" smooth="yes"/>
      <point x="50" y="259" type="line" smooth="yes"/>
      <point x="50" y="75.0"/>
      <point x="157.0" y="-20.0"/>
      <point x="332" y="-20" type="curve" smooth="yes"/>
      <point x="381" y="-20.0"/>
      <point x="392" y="9"/>
      <point x="393" y="44" type="curve"/>
      <point x="245.0" y="44.0"/>
      <point x="223.0" y="77.0"/>
      <point x="223.0" y="171" type="curve" smooth="yes"/>
      <point x="223.0" y="402" type="line" smooth="yes"/>
      <point x="223.0" y="450.0"/>
      <point x="255.0" y="474.0"/>
    </contour>
    <contour>
      <point x="506" y="29" type="curve" smooth="yes"/>
      <point x="518" y="41.0"/>
      <point x="530.0" y="64"/>
      <point x="530.0" y="91" type="curve" smooth="yes"/>
      <point x="530.0" y="103"/>
      <point x="528.0" y="117"/>
      <point x="524" y="130" type="curve"/>
      <point x="520" y="130" type="line"/>
      <point x="467" y="88"/>
      <point x="425.0" y="70.0"/>
      <point x="344" y="70" type="curve" smooth="yes"/>
      <point x="254.0" y="70.0"/>
      <point x="231.0" y="81.0"/>
      <point x="184" y="124" type="curve"/>
      <point x="150.0" y="40.0"/>
      <point x="250.0" y="-20.0"/>
      <point x="332" y="-20" type="curve" smooth="yes"/>
      <point x="423.0" y="-20.0"/>
      <point x="478.0" y="1.0"/>
    </contour>
  </outline>
</glyph>
<glyph name="summation" format="1">
  <advance width="600"/>
  <unicode hex="2211"/>
  <outline>
    <contour>
      <point x="43" y="700" type="line"/>
      <point x="39.0" y="682.0"/>
      <point x="38.0" y="667.0"/>
      <point x="38" y="645" type="curve" smooth="yes"/>
      <point x="38.0" y="566.0"/>
      <point x="62.0" y="550.0"/>
      <point x="99" y="550.0" type="curve" smooth="yes"/>
      <point x="543" y="550" type="line"/>
      <point x="548.0" y="564.0"/>
      <point x="550.0" y="583.0"/>
      <point x="550.0" y="604" type="curve" smooth="yes"/>
      <point x="550.0" y="659.0"/>
      <point x="530.0" y="700.0"/>
      <point x="492" y="700" type="curve" smooth="yes"/>
    </contour>
    <contour>
      <point x="419" y="220.0" type="curve" smooth="yes"/>
      <point x="463.0" y="220.0"/>
      <point x="487.0" y="239.0"/>
      <point x="487" y="265" type="curve" smooth="yes"/>
      <point x="487" y="281" type="line"/>
      <point x="369.0" y="368.0"/>
      <point x="306.0" y="468.0"/>
      <point x="253" y="598" type="curve"/>
      <point x="227.4" y="662.0"/>
      <point x="193.0" y="667.0"/>
      <point x="81" y="631" type="curve"/>
      <point x="126.0" y="476.0"/>
      <point x="189.0" y="358.0"/>
      <point x="299" y="255" type="curve"/>
      <point x="329.0" y="227.0"/>
      <point x="363.0" y="220.0"/>
    </contour>
    <contour>
      <point x="332" y="294" type="curve"/>
      <point x="288.0" y="156.0"/>
      <point x="183.0" y="49.0"/>
      <point x="47" y="-50" type="curve"/>
      <point x="42.0" y="-65.0"/>
      <point x="41.0" y="-73.0"/>
      <point x="41.0" y="-92" type="curve" smooth="yes"/>
      <point x="41.0" y="-105"/>
      <point x="53.0" y="-114.0"/>
      <point x="169" y="-114" type="curve"/>
      <point x="362.0" y="20"/>
      <point x="437.0" y="121.0"/>
      <point x="476" y="211" type="curve"/>
      <point x="483.0" y="227.0"/>
      <point x="487.0" y="244.0"/>
      <point x="487.0" y="265" type="curve" smooth="yes"/>
      <point x="487.0" y="285.0"/>
      <point x="456.0" y="294.0"/>
    </contour>
    <contour>
      <point x="63" y="-50" type="curve"/>
      <point x="49.0" y="-62"/>
      <point x="41.0" y="-76"/>
      <point x="41.0" y="-92" type="curve"/>
      <point x="41" y="-153"/>
      <point x="74.0" y="-200.0"/>
      <point x="129" y="-200" type="curve" smooth="yes"/>
      <point x="544" y="-200" type="line"/>
      <point x="548.0" y="-185"/>
      <point x="551.0" y="-165"/>
      <point x="551" y="-142" type="curve" smooth="yes"/>
      <point x="551" y="-91"/>
      <point x="543" y="-50"/>
      <point x="489" y="-50" type="curve" smooth="yes"/>
      <point x="207" y="-50" type="line"/>
      <point x="159.0" y="-50.0"/>
      <point x="111.0" y="-50.0"/>
    </contour>
  </outline>
</glyph>
<glyph name="D.replaced_with_nokinks" format="1">
  <advance width="600"/>
  <outline>
    <contour>
      <point x="260.0" y="5.0" type="curve"/>
      <point x="260.0" y="639.0" type="line" smooth="yes"/>
      <point x="260.0" y="645.0"/>
      <point x="255.0" y="650.0"/>
      <point x="35.0" y="650.0" type="curve"/>
      <point x="35.0" y="11.0" type="line" smooth="yes"/>
      <point x="35.0" y="6.0"/>
      <point x="55.0" y="5.0"/>
    </contour>
    <contour>
      <point x="5" y="700" type="curve"/>
      <point x="5.0" y="637"/>
      <point x="5.0" y="574"/>
      <point x="5" y="511" type="curve"/>
      <point x="5.0" y="508.0"/>
      <point x="6" y="505"/>
      <point x="8" y="503" type="curve" smooth="yes"/>
      <point x="10" y="501"/>
      <point x="13" y="500"/>
      <point x="16" y="500" type="curve" smooth="yes"/>
      <point x="30.0" y="500.0"/>
      <point x="78" y="500.0"/>
      <point x="92" y="500" type="curve" smooth="yes"/>
      <point x="155" y="500.0"/>
      <point x="243" y="500"/>
      <point x="305" y="500" type="curve" smooth="yes"/>
      <point x="349.0" y="500.0"/>
      <point x="372.0" y="485.0"/>
      <point x="402" y="444" type="curve"/>
      <point x="530.0" y="577.0"/>
      <point x="534" y="623"/>
      <point x="516" y="641" type="curve" smooth="yes"/>
      <point x="481.0" y="676.0"/>
      <point x="428.0" y="700.0"/>
      <point x="343" y="700" type="curve" smooth="yes"/>
      <point x="273.0" y="700.0"/>
      <point x="84.0" y="700.0"/>
    </contour>
    <contour>
      <point x="575" y="246" type="curve" smooth="yes"/>
      <point x="575.0" y="456" type="line" smooth="yes"/>
      <point x="575.0" y="522.0"/>
      <point x="568.0" y="589.0"/>
      <point x="516" y="641" type="curve" smooth="yes"/>
      <point x="482" y="675"/>
      <point x="466" y="658"/>
      <point x="304" y="569" type="curve"/>
      <point x="334" y="544"/>
      <point x="345" y="518"/>
      <point x="345.0" y="470" type="curve" smooth="yes"/>
      <point x="345" y="256" type="line" smooth="yes"/>
      <point x="345.0" y="218.0"/>
      <point x="325.0" y="200.0"/>
      <point x="289" y="200.0" type="curve" smooth="yes"/>
      <point x="279" y="200.0"/>
      <point x="94" y="200.0"/>
      <point x="75" y="200" type="curve"/>
      <point x="48.0" y="141.0"/>
      <point x="35.0" y="82"/>
      <point x="35" y="11" type="curve" smooth="yes"/>
      <point x="35" y="5"/>
      <point x="40" y="0"/>
      <point x="46" y="0" type="curve" smooth="yes"/>
      <point x="355" y="0.0" type="line" smooth="yes"/>
      <point x="491.0" y="0.0"/>
      <point x="575" y="93"/>
    </contour>
  </outline>
</glyph>
<glyph name="J.replaced_with_nokinks" format="1">
  <advance width="600"/>
  <outline>
    <contour>
      <point x="40" y="700" type="line"/>
      <point x="40.0" y="634"/>
      <point x="40.0" y="567"/>
      <point x="40" y="501" type="curve" smooth="yes"/>
      <point x="40" y="498"/>
      <point x="41" y="495"/>
      <point x="43" y="493" type="curve" smooth="yes"/>
      <point x="45" y="491"/>
      <point x="48" y="490"/>
      <point x="51" y="490" type="curve" smooth="yes"/>
      <point x="430" y="490" type="line"/>
      <point x="430" y="692"/>
      <point x="425.0" y="700.0"/>
      <point x="419" y="700" type="curve"/>
    </contour>
    <contour>
      <point x="559" y="245" type="curve" smooth="yes"/>
      <point x="559" y="689" type="line" smooth="yes"/>
      <point x="559.0" y="695.0"/>
      <point x="554.0" y="700.0"/>
      <point x="548" y="700" type="curve" smooth="yes"/>
      <point x="326" y="700" type="line"/>
      <point x="326" y="276" type="line" smooth="yes"/>
      <point x="326.0" y="191.0"/>
      <point x="316" y="161"/>
      <point x="282" y="106" type="curve"/>
      <point x="452" y="31"/>
      <point x="468.0" y="31.0"/>
      <point x="487" y="50" type="curve" smooth="yes"/>
      <point x="540.631412360839" y="103.63141236083897"/>
      <point x="559" y="167.0"/>
    </contour>
    <contour>
      <point x="229" y="195" type="curve" smooth="yes"/>
      <point x="164" y="195.0"/>
      <point x="109" y="205"/>
      <point x="50" y="229" type="curve"/>
      <point x="30" y="229" type="line"/>
      <point x="30.0" y="171"/>
      <point x="30.0" y="94"/>
      <point x="30" y="31" type="curve"/>
      <point x="30" y="28"/>
      <point x="31" y="25"/>
      <point x="33" y="23" type="curve" smooth="yes"/>
      <point x="48.0" y="8.0"/>
      <point x="130.0" y="-20"/>
      <point x="230" y="-20" type="curve" smooth="yes"/>
      <point x="247" y="-20" type="line" smooth="yes"/>
      <point x="347.0" y="-20"/>
      <point x="431.0" y="-6.0"/>
      <point x="487" y="50" type="curve" smooth="yes"/>
      <point x="511.0" y="74.0"/>
      <point x="501" y="85"/>
      <point x="436" y="239" type="curve"/>
      <point x="360" y="205"/>
      <point x="309" y="195.0"/>
    </contour>
  </outline>
</glyph>
<glyph name="b.replaced_with_nokinks" format="1">
  <advance width="600"/>
  <outline>
    <contour>
      <point x="35" y="0" type="line"/>
      <point x="60" y="0.0"/>
      <point x="125" y="0.0"/>
      <point x="150" y="0" type="curve" smooth="yes"/>
      <point x="153.0" y="0.0"/>
      <point x="260.0" y="110.0"/>
      <point x="260" y="114" type="curve" smooth="yes"/>
      <point x="260" y="739" type="line"/>
      <point x="260.0" y="745.0"/>
      <point x="255.0" y="750.0"/>
      <point x="249" y="750" type="curve" smooth="yes"/>
      <point x="201" y="750.0"/>
      <point x="83" y="750.0"/>
      <point x="35" y="750" type="curve"/>
      <point x="35.0" y="701"/>
      <point x="35.0" y="652.0"/>
      <point x="35" y="603" type="curve" smooth="yes"/>
    </contour>
    <contour>
      <point x="416" y="560" type="curve" smooth="yes"/>
      <point x="363.0" y="560.0"/>
      <point x="304" y="529"/>
      <point x="261" y="486" type="curve" smooth="yes"/>
      <point x="211" y="436"/>
      <point x="180" y="368"/>
      <point x="177" y="294" type="curve"/>
      <point x="238.0" y="348.0"/>
      <point x="282.0" y="360.0"/>
      <point x="347" y="360" type="curve" smooth="yes"/>
      <point x="408.0" y="360.0"/>
      <point x="476.1989460623394" y="350.2282827044129"/>
      <point x="507" y="303" type="curve"/>
      <point x="552" y="303"/>
      <point x="570" y="328"/>
      <point x="570" y="397" type="curve" smooth="yes"/>
      <point x="570.0" y="488.0"/>
      <point x="507.0" y="560.0"/>
    </contour>
    <contour>
      <point x="390.0" y="-10.0" type="curve" smooth="yes"/>
      <point x="499.0" y="-10.0"/>
      <point x="570.0" y="61.0"/>
      <point x="570.0" y="170.0" type="curve" smooth="yes"/>
      <point x="570.0" y="397.0" type="line" smooth="yes"/>
      <point x="570" y="470"/>
      <point x="478.0" y="489.0"/>
      <point x="405.0" y="489.0" type="curve"/>
      <point x="350" y="489.0"/>
      <point x="330.0" y="477.0"/>
      <point x="303.0" y="450.0" type="curve"/>
      <point x="337.33477510057924" y="427.728794529354"/>
      <point x="347.0" y="411.0"/>
      <point x="347.0" y="364.0" type="curve" smooth="yes"/>
      <point x="347.0" y="220.0" type="line" smooth="yes"/>
      <point x="347.0" y="184.0"/>
      <point x="332.0" y="170.0"/>
      <point x="303.0" y="170.0" type="curve" smooth="yes"/>
      <point x="263.0" y="170.0"/>
      <point x="232.4123350050824" y="187.561546550699"/>
      <point x="188.0" y="230.0" type="curve"/>
      <point x="181.0" y="207.0"/>
      <point x="183.0" y="163.0"/>
      <point x="183.0" y="150.0" type="curve" smooth="yes"/>
      <point x="183.0" y="105.0"/>
      <point x="268" y="-10.0"/>
    </contour>
  </outline>
</glyph>
<glyph name="brevecomb.case" format="1">
  <outline>
    <contour>
      <point x="-99.0" y="955" type="curve"/>
      <point x="-135.0" y="955"/>
      <point x="-158.0" y="951"/>
      <point x="-180.0" y="939" type="curve"/>
      <point x="-194.0" y="931"/>
      <point x="-196.0" y="918"/>
      <point x="-193.0" y="906" type="curve" smooth="yes"/>
      <point x="-172.0" y="826.0"/>
      <point x="-109.0" y="775.0"/>
      <point x="-4.0" y="775.0" type="curve" smooth="yes"/>
      <point x="0.0" y="775.0" type="line"/>
      <point x="16.0" y="775.0"/>
      <point x="35.0" y="838.0"/>
      <point x="23.0" y="895" type="curve"/>
      <point x="-37.0" y="895"/>
      <point x="-74.0" y="912"/>
    </contour>
    <contour>
      <point x="99.0" y="955" type="curve"/>
      <point x="73.0" y="912"/>
      <point x="37.0" y="895"/>
      <point x="-23.0" y="895" type="curve"/>
      <point x="-35.0" y="838.0"/>
      <point x="-16.0" y="775.0"/>
      <point x="0.0" y="775.0" type="curve"/>
      <point x="4.0" y="775.0" type="line" smooth="yes"/>
      <point x="109.0" y="775.0"/>
      <point x="172.0" y="826.0"/>
      <point x="193.0" y="906" type="curve" smooth="yes"/>
      <point x="196.0" y="918"/>
      <point x="194.0" y="931"/>
      <point x="180.0" y="939" type="curve"/>
      <point x="158.0" y="951"/>
      <point x="135.0" y="955"/>
    </contour>
    <contour>
      <point x="0" y="712" type="move" name="_top"/>
    </contour>
  </outline>
</glyph>
<glyph name="c.replaced_with_ss01" format="1">
  <advance width="600"/>
  <outline>
    <contour>
      <point x="340" y="552" type="curve" smooth="yes"/>
      <point x="170" y="552"/>
      <point x="51" y="433"/>
      <point x="51" y="268" type="curve" smooth="yes"/>
      <point x="51" y="261" type="line" smooth="yes"/>
      <point x="51.0" y="106.0"/>
      <point x="142.0" y="-12.0"/>
      <point x="322" y="-12" type="curve" smooth="yes"/>
      <point x="372.0" y="-12.0"/>
      <point x="383.0" y="12.0"/>
      <point x="383" y="56" type="curve"/>
      <point x="249.0" y="76.0"/>
      <point x="201" y="130.0"/>
      <point x="201" y="244" type="curve" smooth="yes"/>
      <point x="201" y="252" type="line" smooth="yes"/>
      <point x="201" y="355.0"/>
      <point x="265.0" y="426.0"/>
      <point x="353" y="426" type="curve" smooth="yes"/>
      <point x="404.0" y="426.0"/>
      <point x="436.0" y="414.0"/>
      <point x="481" y="388" type="curve"/>
      <point x="494.0" y="411.0"/>
      <point x="507.0" y="463.0"/>
      <point x="480" y="490" type="curve" smooth="yes"/>
      <point x="441" y="529"/>
      <point x="398.0" y="552.0"/>
    </contour>
    <contour>
      <point x="138.0" y="233.0" type="curve"/>
      <point x="75.0" y="120.0"/>
      <point x="170.0" y="-12.0"/>
      <point x="322.0" y="-12.0" type="curve" smooth="yes"/>
      <point x="401.0" y="-12.0"/>
      <point x="479.3678104382734" y="2.367810438273427"/>
      <point x="504.0" y="27.0" type="curve" smooth="yes"/>
      <point x="523.0" y="46.0"/>
      <point x="539.0" y="90.0"/>
      <point x="539.0" y="140.0" type="curve"/>
      <point x="539.0" y="152"/>
      <point x="538.0" y="165"/>
      <point x="535.0" y="178.0" type="curve"/>
      <point x="531.0" y="178.0" type="line"/>
      <point x="470.0" y="143.0"/>
      <point x="403.0" y="133.0"/>
      <point x="332" y="133.0" type="curve" smooth="yes"/>
      <point x="237.0" y="133.0"/>
      <point x="185.0" y="159.0"/>
    </contour>
    <contour>
      <point x="540" y="272" type="curve"/>
      <point x="540" y="344" type="line" smooth="yes"/>
      <point x="540.0" y="409.0"/>
      <point x="528" y="442"/>
      <point x="480" y="490" type="curve" smooth="yes"/>
      <point x="459.0" y="511.0"/>
      <point x="438.0" y="509.0"/>
      <point x="417" y="502" type="curve"/>
      <point x="393.0" y="432.0"/>
      <point x="380.0" y="376.0"/>
      <point x="380.0" y="333" type="curve" smooth="yes"/>
      <point x="380.0" y="328" type="line" smooth="yes"/>
      <point x="380.0" y="282.0"/>
      <point x="406.0" y="266.0"/>
      <point x="482" y="266.0" type="curve" smooth="yes"/>
      <point x="505.0" y="266.0"/>
      <point x="525.0" y="268.0"/>
    </contour>
  </outline>
</glyph>
<glyph name="commaaboverightcomb.case" format="1">
  <outline>
    <contour>
      <point x="-19.0" y="471.0" type="curve" smooth="yes"/>
      <point x="5.0" y="471.0"/>
      <point x="20" y="476"/>
      <point x="33" y="489.0" type="curve" smooth="yes"/>
      <point x="69.0" y="525.0"/>
      <point x="83.0" y="592.0"/>
      <point x="83" y="650.0" type="curve" smooth="yes"/>
      <point x="83" y="690"/>
      <point x="47" y="709.0"/>
      <point x="-2" y="709.0" type="curve" smooth="yes"/>
      <point x="-21.0" y="709.0"/>
      <point x="-36.0" y="707.0"/>
      <point x="-59" y="700.0" type="curve"/>
      <point x="-59.0" y="609.0"/>
      <point x="-63.0" y="552.0"/>
      <point x="-76.0" y="483.0" type="curve"/>
      <point x="-59.0" y="474.0"/>
      <point x="-45.0" y="471.0"/>
    </contour>
    <contour>
      <point x="0" y="550" type="move" name="_caronslovak"/>
    </contour>
  </outline>
</glyph>
<glyph name="dotbelowcomb.case" format="1">
  <outline>
    <contour>
      <point x="0" y="-11" type="move" name="_bottom"/>
    </contour>
  </outline>
</glyph>
<glyph name="f.replaced_with_ss01" format="1">
  <advance width="600"/>
  <outline>
    <contour>
      <point x="345" y="-6" type="curve"/>
      <point x="338.0" y="27"/>
      <point x="335.0" y="61.0"/>
      <point x="335" y="96" type="curve" smooth="yes"/>
      <point x="335" y="520" type="line" smooth="yes"/>
      <point x="319.0" y="571.0"/>
      <point x="308" y="658"/>
      <point x="308" y="726" type="curve"/>
      <point x="273" y="732"/>
      <point x="261" y="728"/>
      <point x="239" y="706" type="curve" smooth="yes"/>
      <point x="181" y="648"/>
      <point x="175.0" y="613.0"/>
      <point x="175" y="568" type="curve" smooth="yes"/>
      <point x="175.0" y="56" type="line" smooth="yes"/>
      <point x="175.0" y="11.0"/>
      <point x="218" y="-6"/>
      <point x="328" y="-6.0" type="curve" smooth="yes"/>
      <point x="334.0" y="-6.0"/>
      <point x="339" y="-6.0"/>
    </contour>
    <contour>
      <point x="243.0" y="607.0" type="curve"/>
      <point x="294.0" y="630.0"/>
      <point x="350.0" y="635.0"/>
      <point x="400.0" y="635.0" type="curve" smooth="yes"/>
      <point x="474.0" y="635.0"/>
      <point x="538.0" y="623.0"/>
      <point x="568.0" y="610.0" type="curve"/>
      <point x="572.0" y="610.0" type="line"/>
      <point x="576.0" y="625"/>
      <point x="577.0" y="642"/>
      <point x="577.0" y="658.0" type="curve"/>
      <point x="577.0" y="690.0"/>
      <point x="569.0" y="726.0"/>
      <point x="551.0" y="744.0" type="curve" smooth="yes"/>
      <point x="534.0" y="761.0"/>
      <point x="480.0" y="770.0"/>
      <point x="419.0" y="770.0" type="curve" smooth="yes"/>
      <point x="417.0" y="770.0" type="line" smooth="yes"/>
      <point x="349.0" y="770.0"/>
      <point x="299" y="766"/>
      <point x="239.0" y="706.0" type="curve" smooth="yes"/>
      <point x="212" y="679"/>
      <point x="207.0" y="630.0"/>
    </contour>
    <contour>
      <point x="41" y="520" type="curve"/>
      <point x="41.0" y="514"/>
      <point x="41.0" y="508"/>
      <point x="41" y="501" type="curve" smooth="yes"/>
      <point x="41" y="450"/>
      <point x="50" y="420"/>
      <point x="68" y="402" type="curve" smooth="yes"/>
      <point x="93" y="377"/>
      <point x="126" y="370"/>
      <point x="217" y="370" type="curve" smooth="yes"/>
      <point x="434.0" y="370.0"/>
      <point x="368.0" y="370.0"/>
      <point x="545" y="370" type="curve"/>
      <point x="549.0" y="387"/>
      <point x="552.0" y="410"/>
      <point x="552.0" y="433" type="curve" smooth="yes"/>
      <point x="552.0" y="499.0"/>
      <point x="535.0" y="520.0"/>
      <point x="479" y="520" type="curve" smooth="yes"/>
      <point x="389" y="520.0"/>
      <point x="260" y="520.0"/>
    </contour>
  </outline>
</glyph>
<glyph name="flatg" format="1">
  <advance width="600"/>
  <outline>
    <contour>
      <point x="327" y="422.0" type="curve" smooth="yes"/>
      <point x="435" y="422.0"/>
      <point x="490" y="411.0"/>
      <point x="528" y="411" type="curve" smooth="yes"/>
      <point x="564" y="411.0"/>
      <point x="578" y="445"/>
      <point x="578" y="494" type="curve" smooth="yes"/>
      <point x="578.0" y="514"/>
      <point x="575.0" y="534"/>
      <point x="571" y="544" type="curve"/>
      <point x="495" y="550"/>
      <point x="424" y="553"/>
      <point x="338" y="553" type="curve"/>
      <point x="158" y="553"/>
      <point x="65" y="471"/>
      <point x="65" y="352" type="curve" smooth="yes"/>
      <point x="65" y="342" type="line" smooth="yes"/>
      <point x="65" y="227"/>
      <point x="165" y="148"/>
      <point x="301" y="150" type="curve" smooth="yes"/>
      <point x="341" y="150"/>
      <point x="352" y="159"/>
      <point x="352" y="212" type="curve"/>
      <point x="259" y="217"/>
      <point x="201" y="260"/>
      <point x="201" y="328" type="curve" smooth="yes"/>
      <point x="201" y="336" type="line" smooth="yes"/>
      <point x="201" y="395"/>
      <point x="243.0" y="422.0"/>
    </contour>
    <contour>
      <point x="291.0" y="275.0" type="curve" smooth="yes"/>
      <point x="238" y="275.0"/>
      <point x="214" y="281"/>
      <point x="177.0" y="300.0" type="curve"/>
      <point x="151" y="237"/>
      <point x="200" y="150.0"/>
      <point x="301.0" y="150.0" type="curve" smooth="yes"/>
      <point x="426.0" y="150.0"/>
      <point x="509.0" y="216"/>
      <point x="509.0" y="304.0" type="curve" smooth="yes"/>
      <point x="509.0" y="315.0" type="line" smooth="yes"/>
      <point x="509.0" y="363"/>
      <point x="477" y="403.0"/>
      <point x="420.0" y="441.0" type="curve" smooth="yes"/>
      <point x="392.0" y="460.0"/>
      <point x="336" y="451"/>
      <point x="326.0" y="441.0" type="curve"/>
      <point x="360" y="422"/>
      <point x="380.0" y="398"/>
      <point x="380.0" y="357.0" type="curve" smooth="yes"/>
      <point x="380.0" y="344.0" type="line" smooth="yes"/>
      <point x="380.0" y="297"/>
      <point x="354.0" y="275.0"/>
    </contour>
    <contour>
      <point x="135" y="69" type="curve" smooth="yes"/>
      <point x="135" y="65" type="line" smooth="yes"/>
      <point x="135" y="-9"/>
      <point x="194" y="-50"/>
      <point x="283" y="-57" type="curve" smooth="yes"/>
      <point x="400" y="-66" type="line" smooth="yes"/>
      <point x="417" y="-67"/>
      <point x="427" y="-79"/>
      <point x="427" y="-94" type="curve" smooth="yes"/>
      <point x="427" y="-101" type="line" smooth="yes"/>
      <point x="427" y="-136"/>
      <point x="424" y="-161"/>
      <point x="406" y="-206" type="curve"/>
      <point x="448" y="-204"/>
      <point x="506" y="-194"/>
      <point x="521" y="-179" type="curve" smooth="yes"/>
      <point x="561" y="-139"/>
      <point x="575" y="-107"/>
      <point x="575" y="-57" type="curve" smooth="yes"/>
      <point x="575" y="-45" type="line" smooth="yes"/>
      <point x="575" y="25"/>
      <point x="519" y="63"/>
      <point x="447" y="68" type="curve" smooth="yes"/>
      <point x="309" y="78" type="line" smooth="yes"/>
      <point x="288" y="80"/>
      <point x="275" y="94"/>
      <point x="275" y="117" type="curve" smooth="yes"/>
      <point x="275" y="120" type="line" smooth="yes"/>
      <point x="275" y="136.0"/>
      <point x="279.0" y="157.0"/>
      <point x="292" y="175" type="curve"/>
      <point x="289.0" y="186.0"/>
      <point x="284.0" y="190.0"/>
      <point x="275" y="190" type="curve" smooth="yes"/>
      <point x="210.0" y="190.0"/>
      <point x="135" y="139.0"/>
    </contour>
    <contour>
      <point x="553" y="-77" type="curve"/>
      <point x="449" y="-149"/>
      <point x="373.0" y="-150.0"/>
      <point x="276" y="-150" type="curve" smooth="yes"/>
      <point x="263" y="-150" type="line" smooth="yes"/>
      <point x="205.0" y="-150.0"/>
      <point x="184" y="-135"/>
      <point x="184" y="-95" type="curve" smooth="yes"/>
      <point x="184" y="-89" type="line" smooth="yes"/>
      <point x="184.0" y="-53"/>
      <point x="197" y="-25"/>
      <point x="230" y="-2" type="curve"/>
      <point x="230.0" y="13.0"/>
      <point x="200" y="23"/>
      <point x="167" y="23" type="curve" smooth="yes"/>
      <point x="83" y="23.0"/>
      <point x="30" y="-35"/>
      <point x="30" y="-103" type="curve" smooth="yes"/>
      <point x="30" y="-111" type="line" smooth="yes"/>
      <point x="30.0" y="-193.0"/>
      <point x="104.0" y="-250.0"/>
      <point x="245" y="-250" type="curve" smooth="yes"/>
      <point x="254" y="-250" type="line" smooth="yes"/>
      <point x="373.0" y="-250.0"/>
      <point x="468" y="-233"/>
      <point x="521" y="-179" type="curve"/>
      <point x="559" y="-141"/>
      <point x="572" y="-96"/>
    </contour>
    <contour>
      <point x="304" y="551" type="move" name="top"/>
    </contour>
  </outline>
</glyph>
<glyph name="g.italic" format="1">
  <advance width="600.0"/>
  <outline>
    <contour>
      <point x="323.1329354313619" y="552.0" type="curve" smooth="yes"/>
      <point x="194.42268041237114" y="552.0"/>
      <point x="96.37330439500813" y="456.5236028214867"/>
      <point x="47.61801410743354" y="236.28323385784046" type="curve" smooth="yes"/>
      <point x="41.52360282148671" y="210.4742268041237" type="line" smooth="yes"/>
      <point x="30.096581660336405" y="158.4742268041237"/>
      <point x="46.1953336950624" y="66.0"/>
      <point x="133.1953336950624" y="66.0" type="curve" smooth="yes"/>
      <point x="160.1953336950624" y="66.0"/>
      <point x="186.00434074877916" y="80.4763971785133"/>
      <point x="195.1459576776994" y="107.19316332067282" type="curve"/>
      <point x="182.47856755290286" y="140.42919153553987"/>
      <point x="182.049376017363" y="158.19099294628325"/>
      <point x="201.09441128594682" y="230.0" type="curve" smooth="yes"/>
      <point x="205.66521975040695" y="246.33260987520347" type="line" smooth="yes"/>
      <point x="232.3282691264243" y="352.80900705371675"/>
      <point x="283.56429734129136" y="413.3326098752035"/>
      <point x="357.56429734129136" y="413.3326098752035" type="curve" smooth="yes"/>
      <point x="400.56429734129136" y="413.3326098752035"/>
      <point x="427.517091698318" y="399.33260987520345"/>
      <point x="444.6608790016278" y="373.33260987520345" type="curve"/>
      <point x="465.7080846446012" y="401.80900705371675"/>
      <point x="474.2788931090613" y="440.33478024959305"/>
      <point x="461.3733043950081" y="470.3819858925665" type="curve" smooth="yes"/>
      <point x="445.27672273467175" y="506.6201844818231"/>
      <point x="393.0857297883885" y="552.0"/>
    </contour>
    <contour>
      <point x="144.7211068909387" y="-12.0" type="curve" smooth="yes"/>
      <point x="227.8176885512751" y="-12.0"/>
      <point x="351.24253933803584" y="78.23819858925665"/>
      <point x="400.3819858925665" y="177.0" type="curve" smooth="yes"/>
      <point x="424.57080846446013" y="226.0"/>
      <point x="436.8540423223006" y="296.0"/>
      <point x="427.99565925122084" y="334.0" type="curve"/>
      <point x="350.42919153553987" y="193.19099294628325"/>
      <point x="278.24036896364623" y="143.66739012479653"/>
      <point x="205.62018448182312" y="143.66739012479653" type="curve" smooth="yes"/>
      <point x="164.86055344546935" y="143.66739012479653"/>
      <point x="127.6223548562127" y="169.09441128594682"/>
      <point x="94.09441128594682" y="230.14161692892023" type="curve"/>
      <point x="60.332609875203474" y="226.14161692892023"/>
      <point x="43.04720564297341" y="218.18882257189367"/>
      <point x="41.52360282148671" y="210.4742268041237" type="curve" smooth="yes"/>
      <point x="14.860553445469343" y="99.99782962561042"/>
      <point x="65.95930548019534" y="-12.0"/>
    </contour>
    <contour>
      <point x="480.15029842647857" y="-5.999999999999999" type="curve" smooth="yes"/>
      <point x="594.4205100379816" y="444.0" type="line" smooth="yes"/>
      <point x="604.3239283776452" y="483.0"/>
      <point x="615.9419424850787" y="514.0"/>
      <point x="634.083559413999" y="550.0" type="curve"/>
      <point x="620.8453608247423" y="553.0"/>
      <point x="607.6071622354856" y="554.0"/>
      <point x="593.6071622354856" y="554.0" type="curve" smooth="yes"/>
      <point x="561.6071622354856" y="554.0"/>
      <point x="509.3217580032556" y="547.0"/>
      <point x="481.9891481280521" y="525.0" type="curve" smooth="yes"/>
      <point x="456.6565382528486" y="505.0"/>
      <point x="445.8475311991318" y="489.0"/>
      <point x="432.89690721649487" y="437.0" type="curve" smooth="yes"/>
      <point x="327.00651112316876" y="20.0" type="line" smooth="yes"/>
      <point x="306.43787303309824" y="-61.0"/>
      <point x="286.5344546934346" y="-98.33260987520347"/>
      <point x="230.0602278893109" y="-154.33260987520347" type="curve"/>
      <point x="329.82419967444383" y="-213.33260987520347"/>
      <point x="455.0108518719479" y="-106.0"/>
    </contour>
    <contour>
      <point x="166.77482365708084" y="-105.33260987520347" type="curve" smooth="yes"/>
      <point x="87.63103635377102" y="-105.33260987520347"/>
      <point x="42.4872490504612" y="-96.80900705371675"/>
      <point x="0.6288659793814588" y="-76.33260987520346" type="curve"/>
      <point x="-3.371134020618541" y="-76.33260987520346" type="line"/>
      <point x="-9.41833966359198" y="-88.33260987520347"/>
      <point x="-13.465545306565403" y="-100.33260987520349"/>
      <point x="-17.274552360282172" y="-114.33260987520347" type="curve" smooth="yes"/>
      <point x="-27.177970699945746" y="-156.0472056429734"/>
      <point x="-26.84319045035268" y="-199.76180141074335"/>
      <point x="-11.175800325556153" y="-220.0" type="curve" smooth="yes"/>
      <point x="2.491589799240373" y="-238.23819858925665"/>
      <point x="48.111774281063504" y="-250.0"/>
      <point x="159.54096581660338" y="-250.0" type="curve" smooth="yes"/>
      <point x="335.53445469343467" y="-250.0"/>
      <point x="444.8220293000543" y="-148.9034183396636"/>
      <point x="480.15029842647857" y="-5.999999999999999" type="curve" smooth="yes"/>
      <point x="482.43570265870864" y="4.714595767769941"/>
      <point x="461.3884970157352" y="32.37981551817688"/>
      <point x="432.3884970157352" y="32.37981551817688" type="curve"/>
      <point x="370.9636462289745" y="-74.85838307107977"/>
      <point x="249.68041237113403" y="-105.33260987520347"/>
    </contour>
  </outline>
</glyph>
<glyph name="gravecomb.case" format="1">
  <outline>
    <contour>
      <point x="82.0" y="771.0" type="curve"/>
      <point x="21.0" y="823.0"/>
      <point x="-18.0" y="867.0"/>
      <point x="-39.0" y="934.0" type="curve"/>
      <point x="-93.0" y="934.0"/>
      <point x="-124.0" y="929.0"/>
      <point x="-164.0" y="915.0" type="curve" smooth="yes"/>
      <point x="-179.0" y="909.0"/>
      <point x="-184.0" y="894.0"/>
      <point x="-178.0" y="879.0" type="curve" smooth="yes"/>
      <point x="-154.0" y="822.0"/>
      <point x="-135.0" y="802.0"/>
      <point x="-80.0" y="772.0" type="curve" smooth="yes"/>
      <point x="-64.0" y="764.0"/>
      <point x="-45.0" y="758.0"/>
      <point x="-8.0" y="758.0" type="curve" smooth="yes"/>
      <point x="25.0" y="758.0"/>
      <point x="46.0" y="761.0"/>
    </contour>
    <contour>
      <point x="0" y="712" type="move" name="_top"/>
    </contour>
  </outline>
</glyph>
<glyph name="macroncomb.case" format="1">
  <outline>
    <contour>
      <point x="-206" y="913" type="line"/>
      <point x="-206.0" y="907"/>
      <point x="-206.0" y="901"/>
      <point x="-206" y="894" type="curve" smooth="yes"/>
      <point x="-206.0" y="817.0"/>
      <point x="-182.0" y="793.0"/>
      <point x="-60" y="793" type="curve"/>
      <point x="197" y="793" type="line"/>
      <point x="200.0" y="807"/>
      <point x="204.0" y="827"/>
      <point x="204" y="846" type="curve" smooth="yes"/>
      <point x="204" y="896"/>
      <point x="187.0" y="913.0"/>
      <point x="131" y="913" type="curve"/>
    </contour>
    <contour>
      <point x="0" y="712" type="move" name="_top"/>
    </contour>
  </outline>
</glyph>
<glyph name="r.italic" format="1">
  <advance width="450.0"/>
  <outline>
    <contour>
      <point x="101.32175800325555" y="546.0" type="curve"/>
      <point x="93.5127509495388" y="531.0"/>
      <point x="86.18014107433532" y="511.0"/>
      <point x="80.84753119913185" y="488.0" type="curve" smooth="yes"/>
      <point x="64.84970157352143" y="424.80900705371675"/>
      <point x="78.75529028757461" y="401.3326098752035"/>
      <point x="101.75529028757461" y="401.3326098752035" type="curve" smooth="yes"/>
      <point x="121.75529028757461" y="401.3326098752035"/>
      <point x="140.80249593054802" y="413.33260987520345"/>
      <point x="186.80249593054802" y="413.33260987520345" type="curve"/>
      <point x="212.70374389582202" y="515.5236028214867"/>
      <point x="216.0835594139989" y="550.0"/>
      <point x="188.0835594139989" y="550.0" type="curve" smooth="yes"/>
      <point x="162.0835594139989" y="550.0"/>
      <point x="127.08355941399891" y="549.0"/>
    </contour>
    <contour>
      <point x="197.15073707562925" y="-6.0" type="curve"/>
      <point x="198.52814002347745" y="27.0"/>
      <point x="204.15940366671504" y="61.0"/>
      <point x="213.04452800534193" y="96.0" type="curve"/>
      <point x="283.363940628189" y="373.0" type="line" smooth="yes"/>
      <point x="312.81178129335245" y="489.0"/>
      <point x="238.29728371210217" y="550.0"/>
      <point x="188.29728371210217" y="550.0" type="curve" smooth="yes"/>
      <point x="185.29728371210217" y="550.0"/>
      <point x="181.04342301671284" y="549.0"/>
      <point x="177.53570162593417" y="547.0" type="curve"/>
      <point x="52.89010018976832" y="56.0" type="line"/>
      <point x="41.46636889724802" y="11.0"/>
      <point x="70.15073707562924" y="-6.0"/>
      <point x="180.15073707562925" y="-6.0" type="curve"/>
      <point x="186.15073707562925" y="-6.0"/>
      <point x="191.15073707562925" y="-6.000000000000001"/>
    </contour>
    <contour>
      <point x="226.81117742810636" y="171.6695604991861" type="curve"/>
      <point x="297.4248507867607" y="352.80900705371675"/>
      <point x="343.145396373978" y="389.3326098752035"/>
      <point x="402.9334331451971" y="389.3326098752035" type="curve" smooth="yes"/>
      <point x="422.6916571556869" y="389.3326098752035"/>
      <point x="433.89049217567464" y="385.27154247076135"/>
      <point x="449.61780132357836" y="372.3326098752035" type="curve"/>
      <point x="453.6178013235784" y="372.3326098752035" type="line"/>
      <point x="469.4720400990905" y="399.3326098752035"/>
      <point x="478.29539331148806" y="418.3326098752035"/>
      <point x="487.68823904089356" y="455.3326098752035" type="curve"/>
      <point x="504.80306555914217" y="523.8421743205248"/>
      <point x="491.8358906659956" y="560.0"/>
      <point x="449.8358906659956" y="560.0" type="curve" smooth="yes"/>
      <point x="447.8358906659956" y="560.0" type="line" smooth="yes"/>
      <point x="380.9040724841774" y="560.0"/>
      <point x="315.80032555615844" y="496.9978296256104"/>
      <point x="241.61584373304396" y="321.9978296256104" type="curve" smooth="yes"/>
      <point x="229.75963103635377" y="295.9978296256104"/>
      <point x="220.66521975040695" y="252.0"/>
    </contour>
  </outline>
</glyph>
<glyph name="y.italic" format="1">
  <advance width="600.0"/>
  <outline>
    <contour>
      <point x="140.5599565925122" y="542.0" type="curve"/>
      <point x="141.32392837764513" y="483.0"/>
      <point x="137.1823114487249" y="447.0"/>
      <point x="121.18448182311448" y="383.0" type="curve" smooth="yes"/>
      <point x="57.954964731416176" y="142.76397178513292" type="line"/>
      <point x="52.622354856212716" y="119.5729788388497"/>
      <point x="74.76614215952252" y="109.66739012479653"/>
      <point x="171.52794357026588" y="112.66739012479653" type="curve"/>
      <point x="226.28540423223006" y="213.85838307107977"/>
      <point x="271.9484536082474" y="321.19099294628325"/>
      <point x="297.08790016277806" y="404.19099294628325" type="curve" smooth="yes"/>
      <point x="300.1351058057515" y="413.0" type="line" smooth="yes"/>
      <point x="332.13076505697234" y="519.2381985892566"/>
      <point x="290.41616928920234" y="548.0"/>
      <point x="200.0835594139989" y="548.0" type="curve" smooth="yes"/>
      <point x="179.0835594139989" y="548.0"/>
      <point x="161.32175800325555" y="546.0"/>
    </contour>
    <contour>
      <point x="146.38632664134562" y="-10.0" type="curve" smooth="yes"/>
      <point x="235.57731958762886" y="-10.0"/>
      <point x="341.33695062398266" y="91.80900705371675"/>
      <point x="397.80900705371675" y="209.3326098752035" type="curve" smooth="yes"/>
      <point x="438.13944655453065" y="294.80900705371675"/>
      <point x="453.6608790016278" y="384.33260987520345"/>
      <point x="448.1351058057515" y="441.33260987520345" type="curve"/>
      <point x="348.6673901247965" y="202.19099294628325"/>
      <point x="273.098752034726" y="151.66739012479653"/>
      <point x="222.43136190992948" y="151.66739012479653" type="curve" smooth="yes"/>
      <point x="196.6695604991861" y="151.66739012479653"/>
      <point x="176.47856755290286" y="167.5729788388497"/>
      <point x="170.66739012479653" y="200.38415626695604" type="curve"/>
      <point x="112.66739012479653" y="200.38415626695604"/>
      <point x="66.33478024959305" y="173.95496473141617"/>
      <point x="57.954964731416176" y="142.76397178513292" type="curve" smooth="yes"/>
      <point x="42.71893651654912" y="83.28540423223006"/>
      <point x="79.24470971242539" y="-10.0"/>
    </contour>
    <contour>
      <point x="480.15029842647857" y="-5.999999999999999" type="curve" smooth="yes"/>
      <point x="604.3239283776452" y="484.0" type="line" smooth="yes"/>
      <point x="618.0363537710255" y="538.0"/>
      <point x="575.3217580032556" y="546.0"/>
      <point x="518.3217580032556" y="546.0" type="curve" smooth="yes"/>
      <point x="495.3217580032555" y="546.0"/>
      <point x="474.5599565925122" y="544.0"/>
      <point x="458.79815518176883" y="540.0" type="curve"/>
      <point x="327.00651112316876" y="20.0" type="line" smooth="yes"/>
      <point x="306.4378730330982" y="-61.0"/>
      <point x="286.53445469343467" y="-98.33260987520347"/>
      <point x="230.0602278893109" y="-154.33260987520347" type="curve"/>
      <point x="329.82419967444383" y="-213.33260987520347"/>
      <point x="455.0108518719479" y="-106.0"/>
    </contour>
    <contour>
      <point x="166.77482365708084" y="-105.33260987520347" type="curve" smooth="yes"/>
      <point x="87.63103635377104" y="-105.33260987520347"/>
      <point x="42.487249050461216" y="-96.80900705371675"/>
      <point x="0.6288659793814446" y="-76.33260987520346" type="curve"/>
      <point x="-3.371134020618541" y="-76.33260987520346" type="line"/>
      <point x="-9.41833966359198" y="-88.33260987520347"/>
      <point x="-13.465545306565403" y="-100.33260987520349"/>
      <point x="-17.274552360282115" y="-114.33260987520347" type="curve" smooth="yes"/>
      <point x="-27.177970699945746" y="-156.0472056429734"/>
      <point x="-26.843190450352694" y="-199.76180141074335"/>
      <point x="-11.175800325556153" y="-220.0" type="curve" smooth="yes"/>
      <point x="2.4915897992403586" y="-238.23819858925665"/>
      <point x="48.111774281063504" y="-250.0"/>
      <point x="159.54096581660338" y="-250.0" type="curve" smooth="yes"/>
      <point x="335.5344546934346" y="-250.0"/>
      <point x="444.8220293000543" y="-148.9034183396636"/>
      <point x="480.15029842647857" y="-5.999999999999999" type="curve" smooth="yes"/>
      <point x="482.43570265870864" y="4.714595767769941"/>
      <point x="461.3884970157352" y="32.37981551817688"/>
      <point x="432.3884970157352" y="32.37981551817688" type="curve"/>
      <point x="370.9636462289745" y="-74.85838307107977"/>
      <point x="249.68041237113403" y="-105.33260987520347"/>
    </contour>
  </outline>
</glyph>
